{
  "header": {
    "keySignatures": [
      {
        "key": "F",
        "scale": "major",
        "ticks": 0
      },
      {
        "key": "F",
        "scale": "major",
        "ticks": 7680
      },
      {
        "key": "F",
        "scale": "major",
        "ticks": 0
      },
      {
        "key": "F",
        "scale": "major",
        "ticks": 7680
      }
    ],
    "meta": [],
    "name": "",
    "ppq": 480,
    "tempos": [
      {
        "bpm": 113.99995440001824,
        "ticks": 0
      },
      {
        "bpm": 113.99995440001824,
        "ticks": 7680
      }
    ],
    "timeSignatures": [
      {
        "ticks": 0,
        "timeSignature": [
          4,
          4
        ],
        "measures": 0
      },
      {
        "ticks": 7680,
        "timeSignature": [
          4,
          4
        ],
        "measures": 4
      }
    ]
  },
  "tracks": [
    {
      "channel": 0,
      "controlChanges": {
        "7": [
          {
            "number": 7,
            "ticks": 0,
            "time": 0,
            "value": 0.7874015748031497
          }
        ],
        "10": [
          {
            "number": 10,
            "ticks": 0,
            "time": 0,
            "value": 0.5039370078740157
          }
        ],
        "91": [
          {
            "number": 91,
            "ticks": 0,
            "time": 0,
            "value": 0
          }
        ],
        "93": [
          {
            "number": 93,
            "ticks": 0,
            "time": 0,
            "value": 0
          }
        ],
        "121": [
          {
            "number": 121,
            "ticks": 0,
            "time": 0,
            "value": 0
          }
        ]
      },
      "pitchBends": [],
      "instrument": {
        "family": "piano",
        "number": 0,
        "name": "acoustic grand piano"
      },
      "name": "",
      "notes": [
        {
          "duration": 0.7489038083333334,
          "durationTicks": 683,
          "midi": 58,
          "name": "A#3",
          "ticks": 0,
          "time": 0,
          "velocity": 0.6299212598425197
        },
        {
          "duration": 0.7489038083333334,
          "durationTicks": 683,
          "midi": 62,
          "name": "D4",
          "ticks": 0,
          "time": 0,
          "velocity": 0.6299212598425197
        },
        {
          "duration": 0.7489038083333334,
          "durationTicks": 683,
          "midi": 65,
          "name": "F4",
          "ticks": 0,
          "time": 0,
          "velocity": 0.6299212598425197
        },
        {
          "duration": 0.7489038083333333,
          "durationTicks": 683,
          "midi": 60,
          "name": "C4",
          "ticks": 720,
          "time": 0.789474,
          "velocity": 0.6299212598425197
        },
        {
          "duration": 1.2489040083333334,
          "durationTicks": 1139,
          "midi": 64,
          "name": "E4",
          "ticks": 720,
          "time": 0.789474,
          "velocity": 0.6299212598425197
        },
        {
          "duration": 1.2489040083333334,
          "durationTicks": 1139,
          "midi": 67,
          "name": "G4",
          "ticks": 720,
          "time": 0.789474,
          "velocity": 0.6299212598425197
        },
        {
          "duration": 0.4989037083333332,
          "durationTicks": 455,
          "midi": 60,
          "name": "C4",
          "ticks": 1440,
          "time": 1.578948,
          "velocity": 0.6299212598425197
        },
        {
          "duration": 0.7489038083333335,
          "durationTicks": 683,
          "midi": 60,
          "name": "C4",
          "ticks": 1920,
          "time": 2.105264,
          "velocity": 0.6299212598425197
        },
        {
          "duration": 0.7489038083333335,
          "durationTicks": 683,
          "midi": 64,
          "name": "E4",
          "ticks": 1920,
          "time": 2.105264,
          "velocity": 0.6299212598425197
        },
        {
          "duration": 0.7489038083333335,
          "durationTicks": 683,
          "midi": 67,
          "name": "G4",
          "ticks": 1920,
          "time": 2.105264,
          "velocity": 0.6299212598425197
        },
        {
          "duration": 0.748903808333333,
          "durationTicks": 683,
          "midi": 62,
          "name": "D4",
          "ticks": 2640,
          "time": 2.8947380000000003,
          "velocity": 0.6299212598425197
        },
        {
          "duration": 0.748903808333333,
          "durationTicks": 683,
          "midi": 65,
          "name": "F4",
          "ticks": 2640,
          "time": 2.8947380000000003,
          "velocity": 0.6299212598425197
        },
        {
          "duration": 0.748903808333333,
          "durationTicks": 683,
          "midi": 69,
          "name": "A4",
          "ticks": 2640,
          "time": 2.8947380000000003,
          "velocity": 0.6299212598425197
        },
        {
          "duration": 0.12390355833333322,
          "durationTicks": 113,
          "midi": 72,
          "name": "C5",
          "ticks": 3360,
          "time": 3.684212,
          "velocity": 0.6299212598425197
        },
        {
          "duration": 0.12390355833333322,
          "durationTicks": 113,
          "midi": 70,
          "name": "A#4",
          "ticks": 3480,
          "time": 3.815791,
          "velocity": 0.6299212598425197
        },
        {
          "duration": 0.24890360833333336,
          "durationTicks": 227,
          "midi": 69,
          "name": "A4",
          "ticks": 3600,
          "time": 3.9473700000000003,
          "velocity": 0.6299212598425197
        },
        {
          "duration": 0.7489038083333339,
          "durationTicks": 683,
          "midi": 58,
          "name": "A#3",
          "ticks": 3840,
          "time": 4.210528,
          "velocity": 0.6299212598425197
        },
        {
          "duration": 0.7489038083333339,
          "durationTicks": 683,
          "midi": 62,
          "name": "D4",
          "ticks": 3840,
          "time": 4.210528,
          "velocity": 0.6299212598425197
        },
        {
          "duration": 0.7489038083333339,
          "durationTicks": 683,
          "midi": 65,
          "name": "F4",
          "ticks": 3840,
          "time": 4.210528,
          "velocity": 0.6299212598425197
        },
        {
          "duration": 0.7489038083333339,
          "durationTicks": 683,
          "midi": 60,
          "name": "C4",
          "ticks": 4560,
          "time": 5.000002,
          "velocity": 0.6299212598425197
        },
        {
          "duration": 1.2489040083333336,
          "durationTicks": 1139,
          "midi": 64,
          "name": "E4",
          "ticks": 4560,
          "time": 5.000002,
          "velocity": 0.6299212598425197
        },
        {
          "duration": 1.2489040083333336,
          "durationTicks": 1139,
          "midi": 67,
          "name": "G4",
          "ticks": 4560,
          "time": 5.000002,
          "velocity": 0.6299212598425197
        },
        {
          "duration": 1.2489040083333327,
          "durationTicks": 1139,
          "midi": 60,
          "name": "C4",
          "ticks": 5280,
          "time": 5.7894760000000005,
          "velocity": 0.6299212598425197
        },
        {
          "duration": 0.12390355833333366,
          "durationTicks": 113,
          "midi": 60,
          "name": "C4",
          "ticks": 6960,
          "time": 7.631582,
          "velocity": 0.6299212598425197
        },
        {
          "duration": 0.12390355833333366,
          "durationTicks": 113,
          "midi": 60,
          "name": "C4",
          "ticks": 7080,
          "time": 7.763161,
          "velocity": 0.6299212598425197
        },
        {
          "duration": 0.12390355833333366,
          "durationTicks": 113,
          "midi": 62,
          "name": "D4",
          "ticks": 7200,
          "time": 7.8947400000000005,
          "velocity": 0.6299212598425197
        },
        {
          "duration": 0.24890360833333247,
          "durationTicks": 227,
          "midi": 64,
          "name": "E4",
          "ticks": 7320,
          "time": 8.026319,
          "velocity": 0.6299212598425197
        },
        {
          "duration": 0.12390355833333366,
          "durationTicks": 113,
          "midi": 65,
          "name": "F4",
          "ticks": 7560,
          "time": 8.289477,
          "velocity": 0.6299212598425197
        },
        {
          "duration": 0.748903808333333,
          "durationTicks": 683,
          "midi": 58,
          "name": "A#3",
          "ticks": 7680,
          "time": 8.421056,
          "velocity": 0.6299212598425197
        },
        {
          "duration": 0.748903808333333,
          "durationTicks": 683,
          "midi": 62,
          "name": "D4",
          "ticks": 7680,
          "time": 8.421056,
          "velocity": 0.6299212598425197
        },
        {
          "duration": 0.748903808333333,
          "durationTicks": 683,
          "midi": 65,
          "name": "F4",
          "ticks": 7680,
          "time": 8.421056,
          "velocity": 0.6299212598425197
        },
        {
          "duration": 0.748903808333333,
          "durationTicks": 683,
          "midi": 60,
          "name": "C4",
          "ticks": 8400,
          "time": 9.21053,
          "velocity": 0.6299212598425197
        },
        {
          "duration": 1.2489040083333336,
          "durationTicks": 1139,
          "midi": 64,
          "name": "E4",
          "ticks": 8400,
          "time": 9.21053,
          "velocity": 0.6299212598425197
        },
        {
          "duration": 1.2489040083333336,
          "durationTicks": 1139,
          "midi": 67,
          "name": "G4",
          "ticks": 8400,
          "time": 9.21053,
          "velocity": 0.6299212598425197
        },
        {
          "duration": 0.49890370833333364,
          "durationTicks": 455,
          "midi": 60,
          "name": "C4",
          "ticks": 9120,
          "time": 10.000004,
          "velocity": 0.6299212598425197
        },
        {
          "duration": 0.748903808333333,
          "durationTicks": 683,
          "midi": 60,
          "name": "C4",
          "ticks": 9600,
          "time": 10.52632,
          "velocity": 0.6299212598425197
        },
        {
          "duration": 0.748903808333333,
          "durationTicks": 683,
          "midi": 64,
          "name": "E4",
          "ticks": 9600,
          "time": 10.52632,
          "velocity": 0.6299212598425197
        },
        {
          "duration": 0.748903808333333,
          "durationTicks": 683,
          "midi": 67,
          "name": "G4",
          "ticks": 9600,
          "time": 10.52632,
          "velocity": 0.6299212598425197
        },
        {
          "duration": 0.748903808333333,
          "durationTicks": 683,
          "midi": 62,
          "name": "D4",
          "ticks": 10320,
          "time": 11.315794,
          "velocity": 0.6299212598425197
        },
        {
          "duration": 0.748903808333333,
          "durationTicks": 683,
          "midi": 65,
          "name": "F4",
          "ticks": 10320,
          "time": 11.315794,
          "velocity": 0.6299212598425197
        },
        {
          "duration": 0.748903808333333,
          "durationTicks": 683,
          "midi": 69,
          "name": "A4",
          "ticks": 10320,
          "time": 11.315794,
          "velocity": 0.6299212598425197
        },
        {
          "duration": 0.12390355833333366,
          "durationTicks": 113,
          "midi": 72,
          "name": "C5",
          "ticks": 11040,
          "time": 12.105268,
          "velocity": 0.6299212598425197
        },
        {
          "duration": 0.12390355833333189,
          "durationTicks": 113,
          "midi": 70,
          "name": "A#4",
          "ticks": 11160,
          "time": 12.236847000000001,
          "velocity": 0.6299212598425197
        },
        {
          "duration": 0.24890360833333425,
          "durationTicks": 227,
          "midi": 69,
          "name": "A4",
          "ticks": 11280,
          "time": 12.368426,
          "velocity": 0.6299212598425197
        },
        {
          "duration": 0.7489038083333348,
          "durationTicks": 683,
          "midi": 58,
          "name": "A#3",
          "ticks": 11520,
          "time": 12.631584,
          "velocity": 0.6299212598425197
        },
        {
          "duration": 0.7489038083333348,
          "durationTicks": 683,
          "midi": 62,
          "name": "D4",
          "ticks": 11520,
          "time": 12.631584,
          "velocity": 0.6299212598425197
        },
        {
          "duration": 0.7489038083333348,
          "durationTicks": 683,
          "midi": 65,
          "name": "F4",
          "ticks": 11520,
          "time": 12.631584,
          "velocity": 0.6299212598425197
        },
        {
          "duration": 0.748903808333333,
          "durationTicks": 683,
          "midi": 60,
          "name": "C4",
          "ticks": 12240,
          "time": 13.421058,
          "velocity": 0.6299212598425197
        },
        {
          "duration": 1.2489040083333336,
          "durationTicks": 1139,
          "midi": 64,
          "name": "E4",
          "ticks": 12240,
          "time": 13.421058,
          "velocity": 0.6299212598425197
        },
        {
          "duration": 1.2489040083333336,
          "durationTicks": 1139,
          "midi": 67,
          "name": "G4",
          "ticks": 12240,
          "time": 13.421058,
          "velocity": 0.6299212598425197
        },
        {
          "duration": 0.5263159999999996,
          "durationTicks": 480,
          "midi": 60,
          "name": "C4",
          "ticks": 12960,
          "time": 14.210532,
          "velocity": 0.6299212598425197
        },
        {
          "duration": 0.722588008333334,
          "durationTicks": 659,
          "midi": 60,
          "name": "C4",
          "ticks": 13440,
          "time": 14.736848,
          "velocity": 0.6299212598425197
        },
        {
          "duration": 0.24890360833333425,
          "durationTicks": 227,
          "midi": 64,
          "name": "E4",
          "ticks": 13440,
          "time": 14.736848,
          "velocity": 0.6299212598425197
        },
        {
          "duration": 0.24890360833333425,
          "durationTicks": 227,
          "midi": 65,
          "name": "F4",
          "ticks": 13680,
          "time": 15.000005999999999,
          "velocity": 0.6299212598425197
        },
        {
          "duration": 0.49890370833333364,
          "durationTicks": 455,
          "midi": 57,
          "name": "A3",
          "ticks": 13920,
          "time": 15.263164,
          "velocity": 0.6299212598425197
        },
        {
          "duration": 0.49890370833333364,
          "durationTicks": 455,
          "midi": 62,
          "name": "D4",
          "ticks": 13920,
          "time": 15.263164,
          "velocity": 0.6299212598425197
        },
        {
          "duration": 0.49890370833333364,
          "durationTicks": 455,
          "midi": 65,
          "name": "F4",
          "ticks": 13920,
          "time": 15.263164,
          "velocity": 0.6299212598425197
        },
        {
          "duration": 0.12390355833333544,
          "durationTicks": 113,
          "midi": 65,
          "name": "F4",
          "ticks": 14880,
          "time": 16.315796,
          "velocity": 0.6299212598425197
        },
        {
          "duration": 0.24890360833333247,
          "durationTicks": 227,
          "midi": 65,
          "name": "F4",
          "ticks": 15000,
          "time": 16.447375,
          "velocity": 0.6299212598425197
        },
        {
          "duration": 0.12390355833333544,
          "durationTicks": 113,
          "midi": 65,
          "name": "F4",
          "ticks": 15240,
          "time": 16.710532999999998,
          "velocity": 0.6299212598425197
        },
        {
          "duration": 0.26206150833333197,
          "durationTicks": 239,
          "midi": 58,
          "name": "A#3",
          "ticks": 15840,
          "time": 17.368428,
          "velocity": 0.6299212598425197
        },
        {
          "duration": 0.26206150833333197,
          "durationTicks": 239,
          "midi": 62,
          "name": "D4",
          "ticks": 15840,
          "time": 17.368428,
          "velocity": 0.6299212598425197
        },
        {
          "duration": 0.5120616083333331,
          "durationTicks": 467,
          "midi": 58,
          "name": "A#3",
          "ticks": 16080,
          "time": 17.631586,
          "velocity": 0.6299212598425197
        },
        {
          "duration": 0.24890360833333602,
          "durationTicks": 227,
          "midi": 64,
          "name": "E4",
          "ticks": 16080,
          "time": 17.631586,
          "velocity": 0.6299212598425197
        },
        {
          "duration": 0.2620615083333355,
          "durationTicks": 239,
          "midi": 65,
          "name": "F4",
          "ticks": 16320,
          "time": 17.894744,
          "velocity": 0.6299212598425197
        },
        {
          "duration": 0.24890360833333602,
          "durationTicks": 227,
          "midi": 58,
          "name": "A#3",
          "ticks": 16560,
          "time": 18.157902,
          "velocity": 0.6299212598425197
        },
        {
          "duration": 0.24890360833333602,
          "durationTicks": 227,
          "midi": 65,
          "name": "F4",
          "ticks": 16560,
          "time": 18.157902,
          "velocity": 0.6299212598425197
        },
        {
          "duration": 0.24890360833333247,
          "durationTicks": 227,
          "midi": 67,
          "name": "G4",
          "ticks": 16800,
          "time": 18.42106,
          "velocity": 0.6299212598425197
        },
        {
          "duration": 0.37390365833333306,
          "durationTicks": 341,
          "midi": 60,
          "name": "C4",
          "ticks": 17040,
          "time": 18.684218,
          "velocity": 0.6299212598425197
        },
        {
          "duration": 0.37390365833333306,
          "durationTicks": 341,
          "midi": 64,
          "name": "E4",
          "ticks": 17040,
          "time": 18.684218,
          "velocity": 0.6299212598425197
        },
        {
          "duration": 0.12390355833333189,
          "durationTicks": 113,
          "midi": 62,
          "name": "D4",
          "ticks": 17400,
          "time": 19.078955,
          "velocity": 0.6299212598425197
        },
        {
          "duration": 1.24890400833333,
          "durationTicks": 1139,
          "midi": 60,
          "name": "C4",
          "ticks": 17520,
          "time": 19.210534000000003,
          "velocity": 0.6299212598425197
        },
        {
          "duration": 0.9989039083333324,
          "durationTicks": 911,
          "midi": 58,
          "name": "A#3",
          "ticks": 19440,
          "time": 21.315798,
          "velocity": 0.6299212598425197
        },
        {
          "duration": 0.24890360833333247,
          "durationTicks": 227,
          "midi": 62,
          "name": "D4",
          "ticks": 19440,
          "time": 21.315798,
          "velocity": 0.6299212598425197
        },
        {
          "duration": 0.24890360833333602,
          "durationTicks": 227,
          "midi": 62,
          "name": "D4",
          "ticks": 19680,
          "time": 21.578955999999998,
          "velocity": 0.6299212598425197
        },
        {
          "duration": 0.24890360833332892,
          "durationTicks": 227,
          "midi": 64,
          "name": "E4",
          "ticks": 19920,
          "time": 21.842114000000002,
          "velocity": 0.6299212598425197
        },
        {
          "duration": 0.24890360833333602,
          "durationTicks": 227,
          "midi": 65,
          "name": "F4",
          "ticks": 20160,
          "time": 22.105272,
          "velocity": 0.6299212598425197
        },
        {
          "duration": 0.49890370833333364,
          "durationTicks": 455,
          "midi": 62,
          "name": "D4",
          "ticks": 20400,
          "time": 22.36843,
          "velocity": 0.6299212598425197
        },
        {
          "duration": 0.24890360833333602,
          "durationTicks": 227,
          "midi": 60,
          "name": "C4",
          "ticks": 20880,
          "time": 22.894745999999998,
          "velocity": 0.6299212598425197
        },
        {
          "duration": 0.26206150833333197,
          "durationTicks": 239,
          "midi": 60,
          "name": "C4",
          "ticks": 21120,
          "time": 23.157904000000002,
          "velocity": 0.7559055118110236
        },
        {
          "duration": 0.26206150833333197,
          "durationTicks": 239,
          "midi": 72,
          "name": "C5",
          "ticks": 21120,
          "time": 23.157904000000002,
          "velocity": 0.7559055118110236
        },
        {
          "duration": 0.24890360833333247,
          "durationTicks": 227,
          "midi": 72,
          "name": "C5",
          "ticks": 21600,
          "time": 23.68422,
          "velocity": 0.6299212598425197
        },
        {
          "duration": 0.9989039083333324,
          "durationTicks": 911,
          "midi": 67,
          "name": "G4",
          "ticks": 21840,
          "time": 23.947378,
          "velocity": 0.6299212598425197
        },
        {
          "duration": 0.26206150833333197,
          "durationTicks": 239,
          "midi": 58,
          "name": "A#3",
          "ticks": 23280,
          "time": 25.526326,
          "velocity": 0.6299212598425197
        },
        {
          "duration": 0.26206150833333197,
          "durationTicks": 239,
          "midi": 62,
          "name": "D4",
          "ticks": 23280,
          "time": 25.526326,
          "velocity": 0.6299212598425197
        },
        {
          "duration": 0.26206150833333197,
          "durationTicks": 239,
          "midi": 58,
          "name": "A#3",
          "ticks": 23520,
          "time": 25.789484,
          "velocity": 0.6299212598425197
        },
        {
          "duration": 0.26206150833333197,
          "durationTicks": 239,
          "midi": 62,
          "name": "D4",
          "ticks": 23520,
          "time": 25.789484,
          "velocity": 0.6299212598425197
        },
        {
          "duration": 0.49890370833333364,
          "durationTicks": 455,
          "midi": 58,
          "name": "A#3",
          "ticks": 23760,
          "time": 26.052642,
          "velocity": 0.6299212598425197
        },
        {
          "duration": 0.24890360833333602,
          "durationTicks": 227,
          "midi": 64,
          "name": "E4",
          "ticks": 23760,
          "time": 26.052642,
          "velocity": 0.6299212598425197
        },
        {
          "duration": 0.24890360833333602,
          "durationTicks": 227,
          "midi": 65,
          "name": "F4",
          "ticks": 24000,
          "time": 26.3158,
          "velocity": 0.6299212598425197
        },
        {
          "duration": 0.24890360833333602,
          "durationTicks": 227,
          "midi": 62,
          "name": "D4",
          "ticks": 24240,
          "time": 26.578958,
          "velocity": 0.6299212598425197
        },
        {
          "duration": 0.24890360833333602,
          "durationTicks": 227,
          "midi": 58,
          "name": "A#3",
          "ticks": 24480,
          "time": 26.842116,
          "velocity": 0.6299212598425197
        },
        {
          "duration": 0.24890360833333602,
          "durationTicks": 227,
          "midi": 65,
          "name": "F4",
          "ticks": 24480,
          "time": 26.842116,
          "velocity": 0.6299212598425197
        },
        {
          "duration": 0.24890360833333247,
          "durationTicks": 227,
          "midi": 67,
          "name": "G4",
          "ticks": 24720,
          "time": 27.105274,
          "velocity": 0.6299212598425197
        },
        {
          "duration": 0.24890360833333602,
          "durationTicks": 227,
          "midi": 60,
          "name": "C4",
          "ticks": 25200,
          "time": 27.63159,
          "velocity": 0.6299212598425197
        },
        {
          "duration": 0.24890360833333602,
          "durationTicks": 227,
          "midi": 64,
          "name": "E4",
          "ticks": 25200,
          "time": 27.63159,
          "velocity": 0.6299212598425197
        },
        {
          "duration": 0.24890360833333602,
          "durationTicks": 227,
          "midi": 62,
          "name": "D4",
          "ticks": 25440,
          "time": 27.894748,
          "velocity": 0.6299212598425197
        },
        {
          "duration": 0.7489038083333313,
          "durationTicks": 683,
          "midi": 60,
          "name": "C4",
          "ticks": 25680,
          "time": 28.157906,
          "velocity": 0.6299212598425197
        },
        {
          "duration": 0.4989037083333301,
          "durationTicks": 455,
          "midi": 58,
          "name": "A#3",
          "ticks": 27120,
          "time": 29.736854,
          "velocity": 0.6299212598425197
        },
        {
          "duration": 0.24890360833333602,
          "durationTicks": 227,
          "midi": 62,
          "name": "D4",
          "ticks": 27120,
          "time": 29.736854,
          "velocity": 0.6299212598425197
        },
        {
          "duration": 0.24890360833333247,
          "durationTicks": 227,
          "midi": 62,
          "name": "D4",
          "ticks": 27360,
          "time": 30.000012,
          "velocity": 0.6299212598425197
        },
        {
          "duration": 0.24890360833333602,
          "durationTicks": 227,
          "midi": 64,
          "name": "E4",
          "ticks": 27600,
          "time": 30.26317,
          "velocity": 0.6299212598425197
        },
        {
          "duration": 0.24890360833333602,
          "durationTicks": 227,
          "midi": 58,
          "name": "A#3",
          "ticks": 27840,
          "time": 30.526328,
          "velocity": 0.6299212598425197
        },
        {
          "duration": 0.24890360833333602,
          "durationTicks": 227,
          "midi": 65,
          "name": "F4",
          "ticks": 27840,
          "time": 30.526328,
          "velocity": 0.6299212598425197
        },
        {
          "duration": 0.24890360833333602,
          "durationTicks": 227,
          "midi": 62,
          "name": "D4",
          "ticks": 28080,
          "time": 30.789486,
          "velocity": 0.6299212598425197
        },
        {
          "duration": 0.4989037083333301,
          "durationTicks": 455,
          "midi": 60,
          "name": "C4",
          "ticks": 28320,
          "time": 31.052644,
          "velocity": 0.6299212598425197
        },
        {
          "duration": 0.24890360833333247,
          "durationTicks": 227,
          "midi": 67,
          "name": "G4",
          "ticks": 28800,
          "time": 31.578960000000002,
          "velocity": 0.6299212598425197
        },
        {
          "duration": 1.4989041083333348,
          "durationTicks": 1367,
          "midi": 60,
          "name": "C4",
          "ticks": 28800,
          "time": 31.578960000000002,
          "velocity": 0.6299212598425197
        },
        {
          "duration": 1.4989041083333348,
          "durationTicks": 1367,
          "midi": 64,
          "name": "E4",
          "ticks": 28800,
          "time": 31.578960000000002,
          "velocity": 0.6299212598425197
        },
        {
          "duration": 0.24890360833333602,
          "durationTicks": 227,
          "midi": 67,
          "name": "G4",
          "ticks": 29040,
          "time": 31.842118,
          "velocity": 0.6299212598425197
        },
        {
          "duration": 0.24890360833333602,
          "durationTicks": 227,
          "midi": 67,
          "name": "G4",
          "ticks": 29280,
          "time": 32.105276,
          "velocity": 0.6299212598425197
        },
        {
          "duration": 0.24890360833333602,
          "durationTicks": 227,
          "midi": 69,
          "name": "A4",
          "ticks": 29520,
          "time": 32.368434,
          "velocity": 0.6299212598425197
        },
        {
          "duration": 0.4989037083333301,
          "durationTicks": 455,
          "midi": 67,
          "name": "G4",
          "ticks": 29760,
          "time": 32.631592,
          "velocity": 0.6299212598425197
        },
        {
          "duration": 0.9989039083333324,
          "durationTicks": 911,
          "midi": 58,
          "name": "A#3",
          "ticks": 30720,
          "time": 33.684224,
          "velocity": 0.6299212598425197
        },
        {
          "duration": 0.9989039083333324,
          "durationTicks": 911,
          "midi": 62,
          "name": "D4",
          "ticks": 30720,
          "time": 33.684224,
          "velocity": 0.6299212598425197
        },
        {
          "duration": 1.2489040083333336,
          "durationTicks": 1139,
          "midi": 65,
          "name": "F4",
          "ticks": 30720,
          "time": 33.684224,
          "velocity": 0.6299212598425197
        },
        {
          "duration": 0.24890360833333602,
          "durationTicks": 227,
          "midi": 67,
          "name": "G4",
          "ticks": 31920,
          "time": 35.000014,
          "velocity": 0.6299212598425197
        },
        {
          "duration": 0.24890360833333602,
          "durationTicks": 227,
          "midi": 69,
          "name": "A4",
          "ticks": 32160,
          "time": 35.263172,
          "velocity": 0.6299212598425197
        },
        {
          "duration": 0.24890360833333602,
          "durationTicks": 227,
          "midi": 65,
          "name": "F4",
          "ticks": 32400,
          "time": 35.52633,
          "velocity": 0.6299212598425197
        },
        {
          "duration": 0.24890360833333602,
          "durationTicks": 227,
          "midi": 67,
          "name": "G4",
          "ticks": 32640,
          "time": 35.789488,
          "velocity": 0.6299212598425197
        },
        {
          "duration": 0.9989039083333395,
          "durationTicks": 911,
          "midi": 60,
          "name": "C4",
          "ticks": 32640,
          "time": 35.789488,
          "velocity": 0.6299212598425197
        },
        {
          "duration": 0.9989039083333395,
          "durationTicks": 911,
          "midi": 64,
          "name": "E4",
          "ticks": 32640,
          "time": 35.789488,
          "velocity": 0.6299212598425197
        },
        {
          "duration": 0.24890360833333602,
          "durationTicks": 227,
          "midi": 67,
          "name": "G4",
          "ticks": 32880,
          "time": 36.052645999999996,
          "velocity": 0.6299212598425197
        },
        {
          "duration": 0.24890360833333602,
          "durationTicks": 227,
          "midi": 67,
          "name": "G4",
          "ticks": 33120,
          "time": 36.315804,
          "velocity": 0.6299212598425197
        },
        {
          "duration": 0.24890360833333602,
          "durationTicks": 227,
          "midi": 69,
          "name": "A4",
          "ticks": 33360,
          "time": 36.578962000000004,
          "velocity": 0.6299212598425197
        },
        {
          "duration": 0.4989037083333301,
          "durationTicks": 455,
          "midi": 67,
          "name": "G4",
          "ticks": 33600,
          "time": 36.84212,
          "velocity": 0.6299212598425197
        },
        {
          "duration": 0.4989037083333301,
          "durationTicks": 455,
          "midi": 60,
          "name": "C4",
          "ticks": 34080,
          "time": 37.368436,
          "velocity": 0.6299212598425197
        },
        {
          "duration": 0.24890360833333602,
          "durationTicks": 227,
          "midi": 62,
          "name": "D4",
          "ticks": 35520,
          "time": 38.947384,
          "velocity": 0.6299212598425197
        },
        {
          "duration": 0.9989039083333324,
          "durationTicks": 911,
          "midi": 58,
          "name": "A#3",
          "ticks": 35520,
          "time": 38.947384,
          "velocity": 0.6299212598425197
        },
        {
          "duration": 0.24890360833333602,
          "durationTicks": 227,
          "midi": 64,
          "name": "E4",
          "ticks": 35760,
          "time": 39.210542000000004,
          "velocity": 0.6299212598425197
        },
        {
          "duration": 0.24890360833333602,
          "durationTicks": 227,
          "midi": 65,
          "name": "F4",
          "ticks": 36000,
          "time": 39.4737,
          "velocity": 0.6299212598425197
        },
        {
          "duration": 0.24890360833333602,
          "durationTicks": 227,
          "midi": 62,
          "name": "D4",
          "ticks": 36240,
          "time": 39.736858,
          "velocity": 0.6299212598425197
        },
        {
          "duration": 0.24890360833333602,
          "durationTicks": 227,
          "midi": 67,
          "name": "G4",
          "ticks": 36720,
          "time": 40.263174,
          "velocity": 0.6299212598425197
        },
        {
          "duration": 1.2489040083333336,
          "durationTicks": 1139,
          "midi": 60,
          "name": "C4",
          "ticks": 36720,
          "time": 40.263174,
          "velocity": 0.6299212598425197
        },
        {
          "duration": 1.2489040083333336,
          "durationTicks": 1139,
          "midi": 64,
          "name": "E4",
          "ticks": 36720,
          "time": 40.263174,
          "velocity": 0.6299212598425197
        },
        {
          "duration": 0.24890360833332892,
          "durationTicks": 227,
          "midi": 69,
          "name": "A4",
          "ticks": 36960,
          "time": 40.526332000000004,
          "velocity": 0.6299212598425197
        },
        {
          "duration": 0.7489038083333313,
          "durationTicks": 683,
          "midi": 67,
          "name": "G4",
          "ticks": 37200,
          "time": 40.78949,
          "velocity": 0.6299212598425197
        },
        {
          "duration": 0.12390355833333189,
          "durationTicks": 113,
          "midi": 60,
          "name": "C4",
          "ticks": 37920,
          "time": 41.578964,
          "velocity": 0.7559055118110236
        },
        {
          "duration": 0.12390355833333189,
          "durationTicks": 113,
          "midi": 62,
          "name": "D4",
          "ticks": 38040,
          "time": 41.710543,
          "velocity": 0.7559055118110236
        },
        {
          "duration": 0.12390355833333189,
          "durationTicks": 113,
          "midi": 65,
          "name": "F4",
          "ticks": 38160,
          "time": 41.842122,
          "velocity": 0.7559055118110236
        },
        {
          "duration": 0.12390355833333189,
          "durationTicks": 113,
          "midi": 62,
          "name": "D4",
          "ticks": 38280,
          "time": 41.973701,
          "velocity": 0.7559055118110236
        },
        {
          "duration": 0.19627200833333092,
          "durationTicks": 179,
          "midi": 62,
          "name": "D4",
          "ticks": 38400,
          "time": 42.10528,
          "velocity": 0.7559055118110236
        },
        {
          "duration": 0.19627200833333092,
          "durationTicks": 179,
          "midi": 65,
          "name": "F4",
          "ticks": 38400,
          "time": 42.10528,
          "velocity": 0.7559055118110236
        },
        {
          "duration": 0.19627200833333092,
          "durationTicks": 179,
          "midi": 69,
          "name": "A4",
          "ticks": 38400,
          "time": 42.10528,
          "velocity": 0.7559055118110236
        },
        {
          "duration": 0.31469310833333,
          "durationTicks": 287,
          "midi": 62,
          "name": "D4",
          "ticks": 38760,
          "time": 42.500017,
          "velocity": 0.7559055118110236
        },
        {
          "duration": 0.31469310833333,
          "durationTicks": 287,
          "midi": 65,
          "name": "F4",
          "ticks": 38760,
          "time": 42.500017,
          "velocity": 0.7559055118110236
        },
        {
          "duration": 0.31469310833333,
          "durationTicks": 287,
          "midi": 69,
          "name": "A4",
          "ticks": 38760,
          "time": 42.500017,
          "velocity": 0.7559055118110236
        },
        {
          "duration": 0.7489038083333313,
          "durationTicks": 683,
          "midi": 60,
          "name": "C4",
          "ticks": 39120,
          "time": 42.894754,
          "velocity": 0.7559055118110236
        },
        {
          "duration": 0.7489038083333313,
          "durationTicks": 683,
          "midi": 64,
          "name": "E4",
          "ticks": 39120,
          "time": 42.894754,
          "velocity": 0.7559055118110236
        },
        {
          "duration": 0.7489038083333313,
          "durationTicks": 683,
          "midi": 67,
          "name": "G4",
          "ticks": 39120,
          "time": 42.894754,
          "velocity": 0.7559055118110236
        },
        {
          "duration": 0.12390355833333899,
          "durationTicks": 113,
          "midi": 60,
          "name": "C4",
          "ticks": 39840,
          "time": 43.684228,
          "velocity": 0.7559055118110236
        },
        {
          "duration": 0.12390355833333189,
          "durationTicks": 113,
          "midi": 62,
          "name": "D4",
          "ticks": 39960,
          "time": 43.815807,
          "velocity": 0.7559055118110236
        },
        {
          "duration": 0.12390355833333189,
          "durationTicks": 113,
          "midi": 65,
          "name": "F4",
          "ticks": 40080,
          "time": 43.947386,
          "velocity": 0.7559055118110236
        },
        {
          "duration": 0.12390355833333189,
          "durationTicks": 113,
          "midi": 62,
          "name": "D4",
          "ticks": 40200,
          "time": 44.078965000000004,
          "velocity": 0.7559055118110236
        },
        {
          "duration": 0.19627200833333802,
          "durationTicks": 179,
          "midi": 60,
          "name": "C4",
          "ticks": 40320,
          "time": 44.210544,
          "velocity": 0.7559055118110236
        },
        {
          "duration": 0.19627200833333802,
          "durationTicks": 179,
          "midi": 64,
          "name": "E4",
          "ticks": 40320,
          "time": 44.210544,
          "velocity": 0.7559055118110236
        },
        {
          "duration": 0.19627200833333802,
          "durationTicks": 179,
          "midi": 67,
          "name": "G4",
          "ticks": 40320,
          "time": 44.210544,
          "velocity": 0.7559055118110236
        },
        {
          "duration": 0.3146931083333371,
          "durationTicks": 287,
          "midi": 60,
          "name": "C4",
          "ticks": 40680,
          "time": 44.605281,
          "velocity": 0.7559055118110236
        },
        {
          "duration": 0.3146931083333371,
          "durationTicks": 287,
          "midi": 64,
          "name": "E4",
          "ticks": 40680,
          "time": 44.605281,
          "velocity": 0.7559055118110236
        },
        {
          "duration": 0.3146931083333371,
          "durationTicks": 287,
          "midi": 67,
          "name": "G4",
          "ticks": 40680,
          "time": 44.605281,
          "velocity": 0.7559055118110236
        },
        {
          "duration": 0.37390365833333306,
          "durationTicks": 341,
          "midi": 57,
          "name": "A3",
          "ticks": 41040,
          "time": 45.000018,
          "velocity": 0.7559055118110236
        },
        {
          "duration": 0.37390365833333306,
          "durationTicks": 341,
          "midi": 62,
          "name": "D4",
          "ticks": 41040,
          "time": 45.000018,
          "velocity": 0.7559055118110236
        },
        {
          "duration": 0.37390365833333306,
          "durationTicks": 341,
          "midi": 65,
          "name": "F4",
          "ticks": 41040,
          "time": 45.000018,
          "velocity": 0.7559055118110236
        },
        {
          "duration": 0.12390355833333189,
          "durationTicks": 113,
          "midi": 64,
          "name": "E4",
          "ticks": 41400,
          "time": 45.394755,
          "velocity": 0.7559055118110236
        },
        {
          "duration": 0.24890360833333602,
          "durationTicks": 227,
          "midi": 62,
          "name": "D4",
          "ticks": 41520,
          "time": 45.526334,
          "velocity": 0.7559055118110236
        },
        {
          "duration": 0.12390355833333189,
          "durationTicks": 113,
          "midi": 60,
          "name": "C4",
          "ticks": 41760,
          "time": 45.789492,
          "velocity": 0.7559055118110236
        },
        {
          "duration": 0.12390355833333899,
          "durationTicks": 113,
          "midi": 62,
          "name": "D4",
          "ticks": 41880,
          "time": 45.921071,
          "velocity": 0.7559055118110236
        },
        {
          "duration": 0.12390355833333189,
          "durationTicks": 113,
          "midi": 65,
          "name": "F4",
          "ticks": 42000,
          "time": 46.05265,
          "velocity": 0.7559055118110236
        },
        {
          "duration": 0.12390355833333189,
          "durationTicks": 113,
          "midi": 62,
          "name": "D4",
          "ticks": 42120,
          "time": 46.184229,
          "velocity": 0.7559055118110236
        },
        {
          "duration": 0.4989037083333372,
          "durationTicks": 455,
          "midi": 58,
          "name": "A#3",
          "ticks": 42240,
          "time": 46.315808,
          "velocity": 0.7559055118110236
        },
        {
          "duration": 0.4989037083333372,
          "durationTicks": 455,
          "midi": 62,
          "name": "D4",
          "ticks": 42240,
          "time": 46.315808,
          "velocity": 0.7559055118110236
        },
        {
          "duration": 0.4989037083333372,
          "durationTicks": 455,
          "midi": 65,
          "name": "F4",
          "ticks": 42240,
          "time": 46.315808,
          "velocity": 0.7559055118110236
        },
        {
          "duration": 0.24890360833333602,
          "durationTicks": 227,
          "midi": 67,
          "name": "G4",
          "ticks": 42720,
          "time": 46.842124,
          "velocity": 0.7559055118110236
        },
        {
          "duration": 0.37390365833332595,
          "durationTicks": 341,
          "midi": 60,
          "name": "C4",
          "ticks": 42960,
          "time": 47.105282,
          "velocity": 0.7559055118110236
        },
        {
          "duration": 0.37390365833332595,
          "durationTicks": 341,
          "midi": 64,
          "name": "E4",
          "ticks": 42960,
          "time": 47.105282,
          "velocity": 0.7559055118110236
        },
        {
          "duration": 0.12390355833333189,
          "durationTicks": 113,
          "midi": 62,
          "name": "D4",
          "ticks": 43320,
          "time": 47.500019,
          "velocity": 0.7559055118110236
        },
        {
          "duration": 0.4989037083333301,
          "durationTicks": 455,
          "midi": 60,
          "name": "C4",
          "ticks": 43440,
          "time": 47.631598000000004,
          "velocity": 0.7559055118110236
        },
        {
          "duration": 0.24890360833333602,
          "durationTicks": 227,
          "midi": 60,
          "name": "C4",
          "ticks": 43920,
          "time": 48.157914,
          "velocity": 0.7559055118110236
        },
        {
          "duration": 0.26206150833333197,
          "durationTicks": 239,
          "midi": 57,
          "name": "A3",
          "ticks": 44160,
          "time": 48.421072,
          "velocity": 0.7559055118110236
        },
        {
          "duration": 0.26206150833333197,
          "durationTicks": 239,
          "midi": 60,
          "name": "C4",
          "ticks": 44160,
          "time": 48.421072,
          "velocity": 0.7559055118110236
        },
        {
          "duration": 0.26206150833333197,
          "durationTicks": 239,
          "midi": 67,
          "name": "G4",
          "ticks": 44160,
          "time": 48.421072,
          "velocity": 0.7559055118110236
        },
        {
          "duration": 0.9989039083333253,
          "durationTicks": 911,
          "midi": 57,
          "name": "A3",
          "ticks": 44640,
          "time": 48.947388000000004,
          "velocity": 0.7559055118110236
        },
        {
          "duration": 0.9989039083333253,
          "durationTicks": 911,
          "midi": 62,
          "name": "D4",
          "ticks": 44640,
          "time": 48.947388000000004,
          "velocity": 0.7559055118110236
        },
        {
          "duration": 0.9989039083333253,
          "durationTicks": 911,
          "midi": 65,
          "name": "F4",
          "ticks": 44640,
          "time": 48.947388000000004,
          "velocity": 0.7559055118110236
        },
        {
          "duration": 0.12390355833333189,
          "durationTicks": 113,
          "midi": 60,
          "name": "C4",
          "ticks": 45600,
          "time": 50.00002,
          "velocity": 0.7559055118110236
        },
        {
          "duration": 0.12390355833333189,
          "durationTicks": 113,
          "midi": 62,
          "name": "D4",
          "ticks": 45720,
          "time": 50.131599,
          "velocity": 0.7559055118110236
        },
        {
          "duration": 0.12390355833333189,
          "durationTicks": 113,
          "midi": 65,
          "name": "F4",
          "ticks": 45840,
          "time": 50.263178,
          "velocity": 0.7559055118110236
        },
        {
          "duration": 0.12390355833333189,
          "durationTicks": 113,
          "midi": 62,
          "name": "D4",
          "ticks": 45960,
          "time": 50.394757,
          "velocity": 0.7559055118110236
        },
        {
          "duration": 0.19627200833333092,
          "durationTicks": 179,
          "midi": 62,
          "name": "D4",
          "ticks": 46080,
          "time": 50.526336,
          "velocity": 0.7559055118110236
        },
        {
          "duration": 0.19627200833333092,
          "durationTicks": 179,
          "midi": 65,
          "name": "F4",
          "ticks": 46080,
          "time": 50.526336,
          "velocity": 0.7559055118110236
        },
        {
          "duration": 0.19627200833333092,
          "durationTicks": 179,
          "midi": 69,
          "name": "A4",
          "ticks": 46080,
          "time": 50.526336,
          "velocity": 0.7559055118110236
        },
        {
          "duration": 0.31469310833333,
          "durationTicks": 287,
          "midi": 62,
          "name": "D4",
          "ticks": 46440,
          "time": 50.921073,
          "velocity": 0.7559055118110236
        },
        {
          "duration": 0.31469310833333,
          "durationTicks": 287,
          "midi": 65,
          "name": "F4",
          "ticks": 46440,
          "time": 50.921073,
          "velocity": 0.7559055118110236
        },
        {
          "duration": 0.31469310833333,
          "durationTicks": 287,
          "midi": 69,
          "name": "A4",
          "ticks": 46440,
          "time": 50.921073,
          "velocity": 0.7559055118110236
        },
        {
          "duration": 0.7489038083333313,
          "durationTicks": 683,
          "midi": 60,
          "name": "C4",
          "ticks": 46800,
          "time": 51.31581,
          "velocity": 0.7559055118110236
        },
        {
          "duration": 0.7489038083333313,
          "durationTicks": 683,
          "midi": 64,
          "name": "E4",
          "ticks": 46800,
          "time": 51.31581,
          "velocity": 0.7559055118110236
        },
        {
          "duration": 0.7489038083333313,
          "durationTicks": 683,
          "midi": 67,
          "name": "G4",
          "ticks": 46800,
          "time": 51.31581,
          "velocity": 0.7559055118110236
        },
        {
          "duration": 0.12390355833333899,
          "durationTicks": 113,
          "midi": 60,
          "name": "C4",
          "ticks": 47520,
          "time": 52.105284,
          "velocity": 0.7559055118110236
        },
        {
          "duration": 0.12390355833333189,
          "durationTicks": 113,
          "midi": 62,
          "name": "D4",
          "ticks": 47640,
          "time": 52.236863,
          "velocity": 0.7559055118110236
        },
        {
          "duration": 0.12390355833333189,
          "durationTicks": 113,
          "midi": 65,
          "name": "F4",
          "ticks": 47760,
          "time": 52.368442,
          "velocity": 0.7559055118110236
        },
        {
          "duration": 0.12390355833333189,
          "durationTicks": 113,
          "midi": 62,
          "name": "D4",
          "ticks": 47880,
          "time": 52.500021000000004,
          "velocity": 0.7559055118110236
        },
        {
          "duration": 0.4989037083333372,
          "durationTicks": 455,
          "midi": 60,
          "name": "C4",
          "ticks": 48000,
          "time": 52.6316,
          "velocity": 0.7559055118110236
        },
        {
          "duration": 0.4989037083333372,
          "durationTicks": 455,
          "midi": 72,
          "name": "C5",
          "ticks": 48000,
          "time": 52.6316,
          "velocity": 0.7559055118110236
        },
        {
          "duration": 0.24890360833332892,
          "durationTicks": 227,
          "midi": 64,
          "name": "E4",
          "ticks": 48480,
          "time": 53.157916,
          "velocity": 0.7559055118110236
        },
        {
          "duration": 0.37390365833333306,
          "durationTicks": 341,
          "midi": 65,
          "name": "F4",
          "ticks": 48720,
          "time": 53.421074,
          "velocity": 0.7559055118110236
        },
        {
          "duration": 0.12390355833333189,
          "durationTicks": 113,
          "midi": 64,
          "name": "E4",
          "ticks": 49080,
          "time": 53.815811000000004,
          "velocity": 0.7559055118110236
        },
        {
          "duration": 0.24890360833333602,
          "durationTicks": 227,
          "midi": 62,
          "name": "D4",
          "ticks": 49200,
          "time": 53.94739,
          "velocity": 0.7559055118110236
        },
        {
          "duration": 0.12390355833333189,
          "durationTicks": 113,
          "midi": 60,
          "name": "C4",
          "ticks": 49440,
          "time": 54.210548,
          "velocity": 0.7559055118110236
        },
        {
          "duration": 0.12390355833333899,
          "durationTicks": 113,
          "midi": 62,
          "name": "D4",
          "ticks": 49560,
          "time": 54.342127,
          "velocity": 0.7559055118110236
        },
        {
          "duration": 0.12390355833333189,
          "durationTicks": 113,
          "midi": 65,
          "name": "F4",
          "ticks": 49680,
          "time": 54.473706,
          "velocity": 0.7559055118110236
        },
        {
          "duration": 0.12390355833333189,
          "durationTicks": 113,
          "midi": 62,
          "name": "D4",
          "ticks": 49800,
          "time": 54.605285,
          "velocity": 0.7559055118110236
        },
        {
          "duration": 0.4989037083333301,
          "durationTicks": 455,
          "midi": 58,
          "name": "A#3",
          "ticks": 49920,
          "time": 54.736864000000004,
          "velocity": 0.7559055118110236
        },
        {
          "duration": 0.4989037083333301,
          "durationTicks": 455,
          "midi": 62,
          "name": "D4",
          "ticks": 49920,
          "time": 54.736864000000004,
          "velocity": 0.7559055118110236
        },
        {
          "duration": 0.4989037083333301,
          "durationTicks": 455,
          "midi": 65,
          "name": "F4",
          "ticks": 49920,
          "time": 54.736864000000004,
          "velocity": 0.7559055118110236
        },
        {
          "duration": 0.24890360833333602,
          "durationTicks": 227,
          "midi": 67,
          "name": "G4",
          "ticks": 50400,
          "time": 55.26318,
          "velocity": 0.7559055118110236
        },
        {
          "duration": 0.37390365833332595,
          "durationTicks": 341,
          "midi": 60,
          "name": "C4",
          "ticks": 50640,
          "time": 55.526338,
          "velocity": 0.7559055118110236
        },
        {
          "duration": 0.37390365833332595,
          "durationTicks": 341,
          "midi": 64,
          "name": "E4",
          "ticks": 50640,
          "time": 55.526338,
          "velocity": 0.7559055118110236
        },
        {
          "duration": 0.12390355833333189,
          "durationTicks": 113,
          "midi": 62,
          "name": "D4",
          "ticks": 51000,
          "time": 55.921075,
          "velocity": 0.7559055118110236
        },
        {
          "duration": 0.4989037083333301,
          "durationTicks": 455,
          "midi": 60,
          "name": "C4",
          "ticks": 51120,
          "time": 56.052654000000004,
          "velocity": 0.7559055118110236
        },
        {
          "duration": 0.24890360833333602,
          "durationTicks": 227,
          "midi": 60,
          "name": "C4",
          "ticks": 51600,
          "time": 56.57897,
          "velocity": 0.7559055118110236
        },
        {
          "duration": 0.26206150833333197,
          "durationTicks": 239,
          "midi": 57,
          "name": "A3",
          "ticks": 51840,
          "time": 56.842128,
          "velocity": 0.7559055118110236
        },
        {
          "duration": 0.26206150833333197,
          "durationTicks": 239,
          "midi": 60,
          "name": "C4",
          "ticks": 51840,
          "time": 56.842128,
          "velocity": 0.7559055118110236
        },
        {
          "duration": 0.26206150833333197,
          "durationTicks": 239,
          "midi": 67,
          "name": "G4",
          "ticks": 51840,
          "time": 56.842128,
          "velocity": 0.7559055118110236
        },
        {
          "duration": 0.9989039083333253,
          "durationTicks": 911,
          "midi": 57,
          "name": "A3",
          "ticks": 52320,
          "time": 57.368444000000004,
          "velocity": 0.7559055118110236
        },
        {
          "duration": 0.9989039083333253,
          "durationTicks": 911,
          "midi": 62,
          "name": "D4",
          "ticks": 52320,
          "time": 57.368444000000004,
          "velocity": 0.7559055118110236
        },
        {
          "duration": 0.9989039083333253,
          "durationTicks": 911,
          "midi": 65,
          "name": "F4",
          "ticks": 52320,
          "time": 57.368444000000004,
          "velocity": 0.7559055118110236
        },
        {
          "duration": 0.26206150833333197,
          "durationTicks": 239,
          "midi": 58,
          "name": "A#3",
          "ticks": 54240,
          "time": 59.473708,
          "velocity": 0.6299212598425197
        },
        {
          "duration": 0.26206150833333197,
          "durationTicks": 239,
          "midi": 62,
          "name": "D4",
          "ticks": 54240,
          "time": 59.473708,
          "velocity": 0.6299212598425197
        },
        {
          "duration": 0.5120616083333331,
          "durationTicks": 467,
          "midi": 58,
          "name": "A#3",
          "ticks": 54480,
          "time": 59.736866,
          "velocity": 0.6299212598425197
        },
        {
          "duration": 0.24890360833333602,
          "durationTicks": 227,
          "midi": 64,
          "name": "E4",
          "ticks": 54480,
          "time": 59.736866,
          "velocity": 0.6299212598425197
        },
        {
          "duration": 0.26206150833333197,
          "durationTicks": 239,
          "midi": 65,
          "name": "F4",
          "ticks": 54720,
          "time": 60.000024,
          "velocity": 0.6299212598425197
        },
        {
          "duration": 0.24890360833332892,
          "durationTicks": 227,
          "midi": 58,
          "name": "A#3",
          "ticks": 54960,
          "time": 60.263182,
          "velocity": 0.6299212598425197
        },
        {
          "duration": 0.24890360833332892,
          "durationTicks": 227,
          "midi": 65,
          "name": "F4",
          "ticks": 54960,
          "time": 60.263182,
          "velocity": 0.6299212598425197
        },
        {
          "duration": 0.24890360833333602,
          "durationTicks": 227,
          "midi": 67,
          "name": "G4",
          "ticks": 55200,
          "time": 60.52634,
          "velocity": 0.6299212598425197
        },
        {
          "duration": 0.37390365833332595,
          "durationTicks": 341,
          "midi": 60,
          "name": "C4",
          "ticks": 55440,
          "time": 60.789498,
          "velocity": 0.6299212598425197
        },
        {
          "duration": 0.37390365833332595,
          "durationTicks": 341,
          "midi": 64,
          "name": "E4",
          "ticks": 55440,
          "time": 60.789498,
          "velocity": 0.6299212598425197
        },
        {
          "duration": 0.12390355833333189,
          "durationTicks": 113,
          "midi": 62,
          "name": "D4",
          "ticks": 55800,
          "time": 61.184235,
          "velocity": 0.6299212598425197
        },
        {
          "duration": 1.2489040083333336,
          "durationTicks": 1139,
          "midi": 60,
          "name": "C4",
          "ticks": 55920,
          "time": 61.315814,
          "velocity": 0.6299212598425197
        },
        {
          "duration": 0.9989039083333395,
          "durationTicks": 911,
          "midi": 58,
          "name": "A#3",
          "ticks": 57840,
          "time": 63.421078,
          "velocity": 0.6299212598425197
        },
        {
          "duration": 0.24890360833332892,
          "durationTicks": 227,
          "midi": 62,
          "name": "D4",
          "ticks": 57840,
          "time": 63.421078,
          "velocity": 0.6299212598425197
        },
        {
          "duration": 0.24890360833333602,
          "durationTicks": 227,
          "midi": 62,
          "name": "D4",
          "ticks": 58080,
          "time": 63.684236,
          "velocity": 0.6299212598425197
        },
        {
          "duration": 0.24890360833333602,
          "durationTicks": 227,
          "midi": 64,
          "name": "E4",
          "ticks": 58320,
          "time": 63.947394,
          "velocity": 0.6299212598425197
        },
        {
          "duration": 0.2489036083333218,
          "durationTicks": 227,
          "midi": 65,
          "name": "F4",
          "ticks": 58560,
          "time": 64.210552,
          "velocity": 0.6299212598425197
        },
        {
          "duration": 0.4989037083333301,
          "durationTicks": 455,
          "midi": 62,
          "name": "D4",
          "ticks": 58800,
          "time": 64.47371000000001,
          "velocity": 0.6299212598425197
        },
        {
          "duration": 0.24890360833333602,
          "durationTicks": 227,
          "midi": 60,
          "name": "C4",
          "ticks": 59280,
          "time": 65.00002599999999,
          "velocity": 0.6299212598425197
        },
        {
          "duration": 0.2620615083333462,
          "durationTicks": 239,
          "midi": 60,
          "name": "C4",
          "ticks": 59520,
          "time": 65.263184,
          "velocity": 0.7559055118110236
        },
        {
          "duration": 0.2620615083333462,
          "durationTicks": 239,
          "midi": 72,
          "name": "C5",
          "ticks": 59520,
          "time": 65.263184,
          "velocity": 0.7559055118110236
        },
        {
          "duration": 0.24890360833333602,
          "durationTicks": 227,
          "midi": 72,
          "name": "C5",
          "ticks": 60000,
          "time": 65.7895,
          "velocity": 0.6299212598425197
        },
        {
          "duration": 0.4989037083333301,
          "durationTicks": 455,
          "midi": 67,
          "name": "G4",
          "ticks": 60240,
          "time": 66.05265800000001,
          "velocity": 0.6062992125984252
        },
        {
          "duration": 0.2489036083333218,
          "durationTicks": 227,
          "midi": 69,
          "name": "A4",
          "ticks": 60720,
          "time": 66.578974,
          "velocity": 0.5590551181102362
        },
        {
          "duration": 0.24890360833333602,
          "durationTicks": 227,
          "midi": 67,
          "name": "G4",
          "ticks": 60960,
          "time": 66.84213199999999,
          "velocity": 0.5354330708661418
        },
        {
          "duration": 0.24890360833333602,
          "durationTicks": 227,
          "midi": 65,
          "name": "F4",
          "ticks": 61200,
          "time": 67.10529,
          "velocity": 0.5039370078740157
        },
        {
          "duration": 0.26206150833333197,
          "durationTicks": 239,
          "midi": 58,
          "name": "A#3",
          "ticks": 61680,
          "time": 67.631606,
          "velocity": 0.6299212598425197
        },
        {
          "duration": 0.26206150833333197,
          "durationTicks": 239,
          "midi": 62,
          "name": "D4",
          "ticks": 61680,
          "time": 67.631606,
          "velocity": 0.6299212598425197
        },
        {
          "duration": 0.26206150833331776,
          "durationTicks": 239,
          "midi": 58,
          "name": "A#3",
          "ticks": 61920,
          "time": 67.89476400000001,
          "velocity": 0.6299212598425197
        },
        {
          "duration": 0.26206150833331776,
          "durationTicks": 239,
          "midi": 62,
          "name": "D4",
          "ticks": 61920,
          "time": 67.89476400000001,
          "velocity": 0.6299212598425197
        },
        {
          "duration": 0.4989037083333443,
          "durationTicks": 455,
          "midi": 58,
          "name": "A#3",
          "ticks": 62160,
          "time": 68.157922,
          "velocity": 0.6299212598425197
        },
        {
          "duration": 0.24890360833333602,
          "durationTicks": 227,
          "midi": 64,
          "name": "E4",
          "ticks": 62160,
          "time": 68.157922,
          "velocity": 0.6299212598425197
        },
        {
          "duration": 0.2489036083333218,
          "durationTicks": 227,
          "midi": 65,
          "name": "F4",
          "ticks": 62400,
          "time": 68.42108,
          "velocity": 0.6299212598425197
        },
        {
          "duration": 0.24890360833333602,
          "durationTicks": 227,
          "midi": 62,
          "name": "D4",
          "ticks": 62640,
          "time": 68.684238,
          "velocity": 0.6299212598425197
        },
        {
          "duration": 0.24890360833333602,
          "durationTicks": 227,
          "midi": 58,
          "name": "A#3",
          "ticks": 62880,
          "time": 68.947396,
          "velocity": 0.6299212598425197
        },
        {
          "duration": 0.24890360833333602,
          "durationTicks": 227,
          "midi": 65,
          "name": "F4",
          "ticks": 62880,
          "time": 68.947396,
          "velocity": 0.6299212598425197
        },
        {
          "duration": 0.24890360833333602,
          "durationTicks": 227,
          "midi": 67,
          "name": "G4",
          "ticks": 63120,
          "time": 69.210554,
          "velocity": 0.6299212598425197
        },
        {
          "duration": 0.2489036083333218,
          "durationTicks": 227,
          "midi": 60,
          "name": "C4",
          "ticks": 63600,
          "time": 69.73687000000001,
          "velocity": 0.6299212598425197
        },
        {
          "duration": 0.2489036083333218,
          "durationTicks": 227,
          "midi": 64,
          "name": "E4",
          "ticks": 63600,
          "time": 69.73687000000001,
          "velocity": 0.6299212598425197
        },
        {
          "duration": 0.2489036083333218,
          "durationTicks": 227,
          "midi": 62,
          "name": "D4",
          "ticks": 63840,
          "time": 70.000028,
          "velocity": 0.6299212598425197
        },
        {
          "duration": 0.7489038083333526,
          "durationTicks": 683,
          "midi": 60,
          "name": "C4",
          "ticks": 64080,
          "time": 70.26318599999999,
          "velocity": 0.6299212598425197
        },
        {
          "duration": 0.4989037083333443,
          "durationTicks": 455,
          "midi": 58,
          "name": "A#3",
          "ticks": 65520,
          "time": 71.842134,
          "velocity": 0.6299212598425197
        },
        {
          "duration": 0.2489036083333218,
          "durationTicks": 227,
          "midi": 62,
          "name": "D4",
          "ticks": 65520,
          "time": 71.842134,
          "velocity": 0.6299212598425197
        },
        {
          "duration": 0.24890360833333602,
          "durationTicks": 227,
          "midi": 62,
          "name": "D4",
          "ticks": 65760,
          "time": 72.10529199999999,
          "velocity": 0.6299212598425197
        },
        {
          "duration": 0.24890360833333602,
          "durationTicks": 227,
          "midi": 64,
          "name": "E4",
          "ticks": 66000,
          "time": 72.36845,
          "velocity": 0.6299212598425197
        },
        {
          "duration": 0.24890360833333602,
          "durationTicks": 227,
          "midi": 58,
          "name": "A#3",
          "ticks": 66240,
          "time": 72.631608,
          "velocity": 0.6299212598425197
        },
        {
          "duration": 0.24890360833333602,
          "durationTicks": 227,
          "midi": 65,
          "name": "F4",
          "ticks": 66240,
          "time": 72.631608,
          "velocity": 0.6299212598425197
        },
        {
          "duration": 0.24890360833333602,
          "durationTicks": 227,
          "midi": 62,
          "name": "D4",
          "ticks": 66480,
          "time": 72.894766,
          "velocity": 0.6299212598425197
        },
        {
          "duration": 0.4989037083333301,
          "durationTicks": 455,
          "midi": 60,
          "name": "C4",
          "ticks": 66720,
          "time": 73.15792400000001,
          "velocity": 0.6299212598425197
        },
        {
          "duration": 0.24890360833333602,
          "durationTicks": 227,
          "midi": 67,
          "name": "G4",
          "ticks": 67200,
          "time": 73.68423999999999,
          "velocity": 0.6299212598425197
        },
        {
          "duration": 1.4989041083333348,
          "durationTicks": 1367,
          "midi": 60,
          "name": "C4",
          "ticks": 67200,
          "time": 73.68423999999999,
          "velocity": 0.6299212598425197
        },
        {
          "duration": 1.4989041083333348,
          "durationTicks": 1367,
          "midi": 64,
          "name": "E4",
          "ticks": 67200,
          "time": 73.68423999999999,
          "velocity": 0.6299212598425197
        },
        {
          "duration": 0.24890360833333602,
          "durationTicks": 227,
          "midi": 67,
          "name": "G4",
          "ticks": 67440,
          "time": 73.94739799999999,
          "velocity": 0.6299212598425197
        },
        {
          "duration": 0.24890360833333602,
          "durationTicks": 227,
          "midi": 67,
          "name": "G4",
          "ticks": 67680,
          "time": 74.210556,
          "velocity": 0.6299212598425197
        },
        {
          "duration": 0.24890360833333602,
          "durationTicks": 227,
          "midi": 69,
          "name": "A4",
          "ticks": 67920,
          "time": 74.473714,
          "velocity": 0.6299212598425197
        },
        {
          "duration": 0.4989037083333301,
          "durationTicks": 455,
          "midi": 67,
          "name": "G4",
          "ticks": 68160,
          "time": 74.736872,
          "velocity": 0.6299212598425197
        },
        {
          "duration": 0.9989039083333466,
          "durationTicks": 911,
          "midi": 58,
          "name": "A#3",
          "ticks": 69120,
          "time": 75.789504,
          "velocity": 0.6299212598425197
        },
        {
          "duration": 0.9989039083333466,
          "durationTicks": 911,
          "midi": 62,
          "name": "D4",
          "ticks": 69120,
          "time": 75.789504,
          "velocity": 0.6299212598425197
        },
        {
          "duration": 1.2489040083333407,
          "durationTicks": 1139,
          "midi": 65,
          "name": "F4",
          "ticks": 69120,
          "time": 75.789504,
          "velocity": 0.6299212598425197
        },
        {
          "duration": 0.2489036083333076,
          "durationTicks": 227,
          "midi": 67,
          "name": "G4",
          "ticks": 70320,
          "time": 77.10529400000001,
          "velocity": 0.6299212598425197
        },
        {
          "duration": 0.24890360833333602,
          "durationTicks": 227,
          "midi": 69,
          "name": "A4",
          "ticks": 70560,
          "time": 77.36845199999999,
          "velocity": 0.6299212598425197
        },
        {
          "duration": 0.24890360833333602,
          "durationTicks": 227,
          "midi": 65,
          "name": "F4",
          "ticks": 70800,
          "time": 77.63161,
          "velocity": 0.6299212598425197
        },
        {
          "duration": 0.24890360833333602,
          "durationTicks": 227,
          "midi": 67,
          "name": "G4",
          "ticks": 71040,
          "time": 77.894768,
          "velocity": 0.6299212598425197
        },
        {
          "duration": 0.9989039083333466,
          "durationTicks": 911,
          "midi": 60,
          "name": "C4",
          "ticks": 71040,
          "time": 77.894768,
          "velocity": 0.6299212598425197
        },
        {
          "duration": 0.9989039083333466,
          "durationTicks": 911,
          "midi": 64,
          "name": "E4",
          "ticks": 71040,
          "time": 77.894768,
          "velocity": 0.6299212598425197
        },
        {
          "duration": 0.24890360833333602,
          "durationTicks": 227,
          "midi": 67,
          "name": "G4",
          "ticks": 71280,
          "time": 78.157926,
          "velocity": 0.6299212598425197
        },
        {
          "duration": 0.24890360833333602,
          "durationTicks": 227,
          "midi": 67,
          "name": "G4",
          "ticks": 71520,
          "time": 78.42108400000001,
          "velocity": 0.6299212598425197
        },
        {
          "duration": 0.2489036083333076,
          "durationTicks": 227,
          "midi": 69,
          "name": "A4",
          "ticks": 71760,
          "time": 78.68424200000001,
          "velocity": 0.6299212598425197
        },
        {
          "duration": 0.4989037083333301,
          "durationTicks": 455,
          "midi": 67,
          "name": "G4",
          "ticks": 72000,
          "time": 78.94739999999999,
          "velocity": 0.6299212598425197
        },
        {
          "duration": 0.4989037083333301,
          "durationTicks": 455,
          "midi": 60,
          "name": "C4",
          "ticks": 72480,
          "time": 79.473716,
          "velocity": 0.6299212598425197
        },
        {
          "duration": 0.24890360833333602,
          "durationTicks": 227,
          "midi": 62,
          "name": "D4",
          "ticks": 73920,
          "time": 81.052664,
          "velocity": 0.6299212598425197
        },
        {
          "duration": 0.9989039083333466,
          "durationTicks": 911,
          "midi": 58,
          "name": "A#3",
          "ticks": 73920,
          "time": 81.052664,
          "velocity": 0.6299212598425197
        },
        {
          "duration": 0.24890360833333602,
          "durationTicks": 227,
          "midi": 64,
          "name": "E4",
          "ticks": 74160,
          "time": 81.315822,
          "velocity": 0.6299212598425197
        },
        {
          "duration": 0.24890360833333602,
          "durationTicks": 227,
          "midi": 65,
          "name": "F4",
          "ticks": 74400,
          "time": 81.57898,
          "velocity": 0.6299212598425197
        },
        {
          "duration": 0.24890360833333602,
          "durationTicks": 227,
          "midi": 62,
          "name": "D4",
          "ticks": 74640,
          "time": 81.842138,
          "velocity": 0.6299212598425197
        },
        {
          "duration": 0.2489036083333076,
          "durationTicks": 227,
          "midi": 67,
          "name": "G4",
          "ticks": 75120,
          "time": 82.36845400000001,
          "velocity": 0.6299212598425197
        },
        {
          "duration": 1.2489040083333123,
          "durationTicks": 1139,
          "midi": 60,
          "name": "C4",
          "ticks": 75120,
          "time": 82.36845400000001,
          "velocity": 0.6299212598425197
        },
        {
          "duration": 1.2489040083333123,
          "durationTicks": 1139,
          "midi": 64,
          "name": "E4",
          "ticks": 75120,
          "time": 82.36845400000001,
          "velocity": 0.6299212598425197
        },
        {
          "duration": 0.24890360833333602,
          "durationTicks": 227,
          "midi": 69,
          "name": "A4",
          "ticks": 75360,
          "time": 82.63161199999999,
          "velocity": 0.6299212598425197
        },
        {
          "duration": 0.7489038083333526,
          "durationTicks": 683,
          "midi": 67,
          "name": "G4",
          "ticks": 75600,
          "time": 82.89477,
          "velocity": 0.6299212598425197
        },
        {
          "duration": 0.12390355833332478,
          "durationTicks": 113,
          "midi": 60,
          "name": "C4",
          "ticks": 76320,
          "time": 83.684244,
          "velocity": 0.7559055118110236
        },
        {
          "duration": 0.1239035583333532,
          "durationTicks": 113,
          "midi": 62,
          "name": "D4",
          "ticks": 76440,
          "time": 83.815823,
          "velocity": 0.7559055118110236
        },
        {
          "duration": 0.12390355833332478,
          "durationTicks": 113,
          "midi": 65,
          "name": "F4",
          "ticks": 76560,
          "time": 83.94740200000001,
          "velocity": 0.7559055118110236
        },
        {
          "duration": 0.1239035583333532,
          "durationTicks": 113,
          "midi": 62,
          "name": "D4",
          "ticks": 76680,
          "time": 84.078981,
          "velocity": 0.7559055118110236
        },
        {
          "duration": 0.19627200833335223,
          "durationTicks": 179,
          "midi": 62,
          "name": "D4",
          "ticks": 76800,
          "time": 84.21055999999999,
          "velocity": 0.7559055118110236
        },
        {
          "duration": 0.19627200833335223,
          "durationTicks": 179,
          "midi": 65,
          "name": "F4",
          "ticks": 76800,
          "time": 84.21055999999999,
          "velocity": 0.7559055118110236
        },
        {
          "duration": 0.19627200833335223,
          "durationTicks": 179,
          "midi": 69,
          "name": "A4",
          "ticks": 76800,
          "time": 84.21055999999999,
          "velocity": 0.7559055118110236
        },
        {
          "duration": 0.31469310833333,
          "durationTicks": 287,
          "midi": 62,
          "name": "D4",
          "ticks": 77160,
          "time": 84.60529700000001,
          "velocity": 0.7559055118110236
        },
        {
          "duration": 0.31469310833333,
          "durationTicks": 287,
          "midi": 65,
          "name": "F4",
          "ticks": 77160,
          "time": 84.60529700000001,
          "velocity": 0.7559055118110236
        },
        {
          "duration": 0.31469310833333,
          "durationTicks": 287,
          "midi": 69,
          "name": "A4",
          "ticks": 77160,
          "time": 84.60529700000001,
          "velocity": 0.7559055118110236
        },
        {
          "duration": 0.7489038083333526,
          "durationTicks": 683,
          "midi": 60,
          "name": "C4",
          "ticks": 77520,
          "time": 85.000034,
          "velocity": 0.7559055118110236
        },
        {
          "duration": 0.7489038083333526,
          "durationTicks": 683,
          "midi": 64,
          "name": "E4",
          "ticks": 77520,
          "time": 85.000034,
          "velocity": 0.7559055118110236
        },
        {
          "duration": 0.7489038083333526,
          "durationTicks": 683,
          "midi": 67,
          "name": "G4",
          "ticks": 77520,
          "time": 85.000034,
          "velocity": 0.7559055118110236
        },
        {
          "duration": 0.12390355833332478,
          "durationTicks": 113,
          "midi": 60,
          "name": "C4",
          "ticks": 78240,
          "time": 85.78950800000001,
          "velocity": 0.7559055118110236
        },
        {
          "duration": 0.1239035583333532,
          "durationTicks": 113,
          "midi": 62,
          "name": "D4",
          "ticks": 78360,
          "time": 85.921087,
          "velocity": 0.7559055118110236
        },
        {
          "duration": 0.1239035583333532,
          "durationTicks": 113,
          "midi": 65,
          "name": "F4",
          "ticks": 78480,
          "time": 86.05266599999999,
          "velocity": 0.7559055118110236
        },
        {
          "duration": 0.12390355833332478,
          "durationTicks": 113,
          "midi": 62,
          "name": "D4",
          "ticks": 78600,
          "time": 86.184245,
          "velocity": 0.7559055118110236
        },
        {
          "duration": 0.19627200833335223,
          "durationTicks": 179,
          "midi": 60,
          "name": "C4",
          "ticks": 78720,
          "time": 86.31582399999999,
          "velocity": 0.7559055118110236
        },
        {
          "duration": 0.19627200833335223,
          "durationTicks": 179,
          "midi": 64,
          "name": "E4",
          "ticks": 78720,
          "time": 86.31582399999999,
          "velocity": 0.7559055118110236
        },
        {
          "duration": 0.19627200833335223,
          "durationTicks": 179,
          "midi": 67,
          "name": "G4",
          "ticks": 78720,
          "time": 86.31582399999999,
          "velocity": 0.7559055118110236
        },
        {
          "duration": 0.31469310833333,
          "durationTicks": 287,
          "midi": 60,
          "name": "C4",
          "ticks": 79080,
          "time": 86.71056100000001,
          "velocity": 0.7559055118110236
        },
        {
          "duration": 0.31469310833333,
          "durationTicks": 287,
          "midi": 64,
          "name": "E4",
          "ticks": 79080,
          "time": 86.71056100000001,
          "velocity": 0.7559055118110236
        },
        {
          "duration": 0.31469310833333,
          "durationTicks": 287,
          "midi": 67,
          "name": "G4",
          "ticks": 79080,
          "time": 86.71056100000001,
          "velocity": 0.7559055118110236
        },
        {
          "duration": 0.37390365833334727,
          "durationTicks": 341,
          "midi": 57,
          "name": "A3",
          "ticks": 79440,
          "time": 87.105298,
          "velocity": 0.7559055118110236
        },
        {
          "duration": 0.37390365833334727,
          "durationTicks": 341,
          "midi": 62,
          "name": "D4",
          "ticks": 79440,
          "time": 87.105298,
          "velocity": 0.7559055118110236
        },
        {
          "duration": 0.37390365833334727,
          "durationTicks": 341,
          "midi": 65,
          "name": "F4",
          "ticks": 79440,
          "time": 87.105298,
          "velocity": 0.7559055118110236
        },
        {
          "duration": 0.1239035583333532,
          "durationTicks": 113,
          "midi": 64,
          "name": "E4",
          "ticks": 79800,
          "time": 87.500035,
          "velocity": 0.7559055118110236
        },
        {
          "duration": 0.2489036083333076,
          "durationTicks": 227,
          "midi": 62,
          "name": "D4",
          "ticks": 79920,
          "time": 87.63161400000001,
          "velocity": 0.7559055118110236
        },
        {
          "duration": 0.1239035583333532,
          "durationTicks": 113,
          "midi": 60,
          "name": "C4",
          "ticks": 80160,
          "time": 87.89477199999999,
          "velocity": 0.7559055118110236
        },
        {
          "duration": 0.12390355833332478,
          "durationTicks": 113,
          "midi": 62,
          "name": "D4",
          "ticks": 80280,
          "time": 88.026351,
          "velocity": 0.7559055118110236
        },
        {
          "duration": 0.1239035583333532,
          "durationTicks": 113,
          "midi": 65,
          "name": "F4",
          "ticks": 80400,
          "time": 88.15793,
          "velocity": 0.7559055118110236
        },
        {
          "duration": 0.12390355833332478,
          "durationTicks": 113,
          "midi": 62,
          "name": "D4",
          "ticks": 80520,
          "time": 88.28950900000001,
          "velocity": 0.7559055118110236
        },
        {
          "duration": 0.4989037083333301,
          "durationTicks": 455,
          "midi": 58,
          "name": "A#3",
          "ticks": 80640,
          "time": 88.421088,
          "velocity": 0.7559055118110236
        },
        {
          "duration": 0.4989037083333301,
          "durationTicks": 455,
          "midi": 62,
          "name": "D4",
          "ticks": 80640,
          "time": 88.421088,
          "velocity": 0.7559055118110236
        },
        {
          "duration": 0.4989037083333301,
          "durationTicks": 455,
          "midi": 65,
          "name": "F4",
          "ticks": 80640,
          "time": 88.421088,
          "velocity": 0.7559055118110236
        },
        {
          "duration": 0.24890360833333602,
          "durationTicks": 227,
          "midi": 67,
          "name": "G4",
          "ticks": 81120,
          "time": 88.947404,
          "velocity": 0.7559055118110236
        },
        {
          "duration": 0.37390365833331884,
          "durationTicks": 341,
          "midi": 60,
          "name": "C4",
          "ticks": 81360,
          "time": 89.21056200000001,
          "velocity": 0.7559055118110236
        },
        {
          "duration": 0.37390365833331884,
          "durationTicks": 341,
          "midi": 64,
          "name": "E4",
          "ticks": 81360,
          "time": 89.21056200000001,
          "velocity": 0.7559055118110236
        },
        {
          "duration": 0.1239035583333532,
          "durationTicks": 113,
          "midi": 62,
          "name": "D4",
          "ticks": 81720,
          "time": 89.605299,
          "velocity": 0.7559055118110236
        },
        {
          "duration": 0.4989037083333301,
          "durationTicks": 455,
          "midi": 60,
          "name": "C4",
          "ticks": 81840,
          "time": 89.73687799999999,
          "velocity": 0.7559055118110236
        },
        {
          "duration": 0.24890360833333602,
          "durationTicks": 227,
          "midi": 60,
          "name": "C4",
          "ticks": 82320,
          "time": 90.263194,
          "velocity": 0.7559055118110236
        },
        {
          "duration": 0.2620615083333462,
          "durationTicks": 239,
          "midi": 57,
          "name": "A3",
          "ticks": 82560,
          "time": 90.526352,
          "velocity": 0.7559055118110236
        },
        {
          "duration": 0.2620615083333462,
          "durationTicks": 239,
          "midi": 60,
          "name": "C4",
          "ticks": 82560,
          "time": 90.526352,
          "velocity": 0.7559055118110236
        },
        {
          "duration": 0.2620615083333462,
          "durationTicks": 239,
          "midi": 67,
          "name": "G4",
          "ticks": 82560,
          "time": 90.526352,
          "velocity": 0.7559055118110236
        },
        {
          "duration": 0.9989039083333182,
          "durationTicks": 911,
          "midi": 57,
          "name": "A3",
          "ticks": 83040,
          "time": 91.05266800000001,
          "velocity": 0.7559055118110236
        },
        {
          "duration": 0.9989039083333182,
          "durationTicks": 911,
          "midi": 62,
          "name": "D4",
          "ticks": 83040,
          "time": 91.05266800000001,
          "velocity": 0.7559055118110236
        },
        {
          "duration": 0.9989039083333182,
          "durationTicks": 911,
          "midi": 65,
          "name": "F4",
          "ticks": 83040,
          "time": 91.05266800000001,
          "velocity": 0.7559055118110236
        },
        {
          "duration": 0.1239035583333532,
          "durationTicks": 113,
          "midi": 60,
          "name": "C4",
          "ticks": 84000,
          "time": 92.1053,
          "velocity": 0.7559055118110236
        },
        {
          "duration": 0.1239035583333532,
          "durationTicks": 113,
          "midi": 62,
          "name": "D4",
          "ticks": 84120,
          "time": 92.23687899999999,
          "velocity": 0.7559055118110236
        },
        {
          "duration": 0.12390355833332478,
          "durationTicks": 113,
          "midi": 65,
          "name": "F4",
          "ticks": 84240,
          "time": 92.368458,
          "velocity": 0.7559055118110236
        },
        {
          "duration": 0.1239035583333532,
          "durationTicks": 113,
          "midi": 62,
          "name": "D4",
          "ticks": 84360,
          "time": 92.50003699999999,
          "velocity": 0.7559055118110236
        },
        {
          "duration": 0.1962720083333238,
          "durationTicks": 179,
          "midi": 62,
          "name": "D4",
          "ticks": 84480,
          "time": 92.63161600000001,
          "velocity": 0.7559055118110236
        },
        {
          "duration": 0.1962720083333238,
          "durationTicks": 179,
          "midi": 65,
          "name": "F4",
          "ticks": 84480,
          "time": 92.63161600000001,
          "velocity": 0.7559055118110236
        },
        {
          "duration": 0.1962720083333238,
          "durationTicks": 179,
          "midi": 69,
          "name": "A4",
          "ticks": 84480,
          "time": 92.63161600000001,
          "velocity": 0.7559055118110236
        },
        {
          "duration": 0.31469310833333,
          "durationTicks": 287,
          "midi": 62,
          "name": "D4",
          "ticks": 84840,
          "time": 93.026353,
          "velocity": 0.7559055118110236
        },
        {
          "duration": 0.31469310833333,
          "durationTicks": 287,
          "midi": 65,
          "name": "F4",
          "ticks": 84840,
          "time": 93.026353,
          "velocity": 0.7559055118110236
        },
        {
          "duration": 0.31469310833333,
          "durationTicks": 287,
          "midi": 69,
          "name": "A4",
          "ticks": 84840,
          "time": 93.026353,
          "velocity": 0.7559055118110236
        },
        {
          "duration": 0.7489038083333526,
          "durationTicks": 683,
          "midi": 60,
          "name": "C4",
          "ticks": 85200,
          "time": 93.42108999999999,
          "velocity": 0.7559055118110236
        },
        {
          "duration": 0.7489038083333526,
          "durationTicks": 683,
          "midi": 64,
          "name": "E4",
          "ticks": 85200,
          "time": 93.42108999999999,
          "velocity": 0.7559055118110236
        },
        {
          "duration": 0.7489038083333526,
          "durationTicks": 683,
          "midi": 67,
          "name": "G4",
          "ticks": 85200,
          "time": 93.42108999999999,
          "velocity": 0.7559055118110236
        },
        {
          "duration": 0.12390355833332478,
          "durationTicks": 113,
          "midi": 60,
          "name": "C4",
          "ticks": 85920,
          "time": 94.210564,
          "velocity": 0.7559055118110236
        },
        {
          "duration": 0.1239035583333532,
          "durationTicks": 113,
          "midi": 62,
          "name": "D4",
          "ticks": 86040,
          "time": 94.342143,
          "velocity": 0.7559055118110236
        },
        {
          "duration": 0.12390355833332478,
          "durationTicks": 113,
          "midi": 65,
          "name": "F4",
          "ticks": 86160,
          "time": 94.47372200000001,
          "velocity": 0.7559055118110236
        },
        {
          "duration": 0.1239035583333532,
          "durationTicks": 113,
          "midi": 62,
          "name": "D4",
          "ticks": 86280,
          "time": 94.605301,
          "velocity": 0.7559055118110236
        },
        {
          "duration": 0.4989037083333301,
          "durationTicks": 455,
          "midi": 60,
          "name": "C4",
          "ticks": 86400,
          "time": 94.73688000000001,
          "velocity": 0.7559055118110236
        },
        {
          "duration": 0.4989037083333301,
          "durationTicks": 455,
          "midi": 72,
          "name": "C5",
          "ticks": 86400,
          "time": 94.73688000000001,
          "velocity": 0.7559055118110236
        },
        {
          "duration": 0.24890360833333602,
          "durationTicks": 227,
          "midi": 64,
          "name": "E4",
          "ticks": 86880,
          "time": 95.263196,
          "velocity": 0.7559055118110236
        },
        {
          "duration": 0.37390365833334727,
          "durationTicks": 341,
          "midi": 65,
          "name": "F4",
          "ticks": 87120,
          "time": 95.526354,
          "velocity": 0.7559055118110236
        },
        {
          "duration": 0.1239035583333532,
          "durationTicks": 113,
          "midi": 64,
          "name": "E4",
          "ticks": 87480,
          "time": 95.92109099999999,
          "velocity": 0.7559055118110236
        },
        {
          "duration": 0.24890360833333602,
          "durationTicks": 227,
          "midi": 62,
          "name": "D4",
          "ticks": 87600,
          "time": 96.05267,
          "velocity": 0.7559055118110236
        },
        {
          "duration": 0.12390355833332478,
          "durationTicks": 113,
          "midi": 60,
          "name": "C4",
          "ticks": 87840,
          "time": 96.31582800000001,
          "velocity": 0.7559055118110236
        },
        {
          "duration": 0.1239035583333532,
          "durationTicks": 113,
          "midi": 62,
          "name": "D4",
          "ticks": 87960,
          "time": 96.447407,
          "velocity": 0.7559055118110236
        },
        {
          "duration": 0.12390355833332478,
          "durationTicks": 113,
          "midi": 65,
          "name": "F4",
          "ticks": 88080,
          "time": 96.57898600000001,
          "velocity": 0.7559055118110236
        },
        {
          "duration": 0.12390355833332478,
          "durationTicks": 113,
          "midi": 62,
          "name": "D4",
          "ticks": 88200,
          "time": 96.710565,
          "velocity": 0.7559055118110236
        },
        {
          "duration": 0.4989037083333301,
          "durationTicks": 455,
          "midi": 58,
          "name": "A#3",
          "ticks": 88320,
          "time": 96.84214399999999,
          "velocity": 0.7559055118110236
        },
        {
          "duration": 0.4989037083333301,
          "durationTicks": 455,
          "midi": 62,
          "name": "D4",
          "ticks": 88320,
          "time": 96.84214399999999,
          "velocity": 0.7559055118110236
        },
        {
          "duration": 0.4989037083333301,
          "durationTicks": 455,
          "midi": 65,
          "name": "F4",
          "ticks": 88320,
          "time": 96.84214399999999,
          "velocity": 0.7559055118110236
        },
        {
          "duration": 0.24890360833333602,
          "durationTicks": 227,
          "midi": 67,
          "name": "G4",
          "ticks": 88800,
          "time": 97.36846,
          "velocity": 0.7559055118110236
        },
        {
          "duration": 0.37390365833334727,
          "durationTicks": 341,
          "midi": 60,
          "name": "C4",
          "ticks": 89040,
          "time": 97.631618,
          "velocity": 0.7559055118110236
        },
        {
          "duration": 0.37390365833334727,
          "durationTicks": 341,
          "midi": 64,
          "name": "E4",
          "ticks": 89040,
          "time": 97.631618,
          "velocity": 0.7559055118110236
        },
        {
          "duration": 0.1239035583333532,
          "durationTicks": 113,
          "midi": 62,
          "name": "D4",
          "ticks": 89400,
          "time": 98.026355,
          "velocity": 0.7559055118110236
        },
        {
          "duration": 0.4989037083333301,
          "durationTicks": 455,
          "midi": 60,
          "name": "C4",
          "ticks": 89520,
          "time": 98.15793400000001,
          "velocity": 0.7559055118110236
        },
        {
          "duration": 0.24890360833333602,
          "durationTicks": 227,
          "midi": 60,
          "name": "C4",
          "ticks": 90000,
          "time": 98.68424999999999,
          "velocity": 0.7559055118110236
        },
        {
          "duration": 0.2620615083333462,
          "durationTicks": 239,
          "midi": 57,
          "name": "A3",
          "ticks": 90240,
          "time": 98.947408,
          "velocity": 0.7559055118110236
        },
        {
          "duration": 0.2620615083333462,
          "durationTicks": 239,
          "midi": 60,
          "name": "C4",
          "ticks": 90240,
          "time": 98.947408,
          "velocity": 0.7559055118110236
        },
        {
          "duration": 0.2620615083333462,
          "durationTicks": 239,
          "midi": 67,
          "name": "G4",
          "ticks": 90240,
          "time": 98.947408,
          "velocity": 0.7559055118110236
        },
        {
          "duration": 0.9989039083333466,
          "durationTicks": 911,
          "midi": 57,
          "name": "A3",
          "ticks": 90720,
          "time": 99.473724,
          "velocity": 0.7559055118110236
        },
        {
          "duration": 0.9989039083333466,
          "durationTicks": 911,
          "midi": 62,
          "name": "D4",
          "ticks": 90720,
          "time": 99.473724,
          "velocity": 0.7559055118110236
        },
        {
          "duration": 0.9989039083333466,
          "durationTicks": 911,
          "midi": 65,
          "name": "F4",
          "ticks": 90720,
          "time": 99.473724,
          "velocity": 0.7559055118110236
        },
        {
          "duration": 0.1239035583333532,
          "durationTicks": 113,
          "midi": 60,
          "name": "C4",
          "ticks": 91680,
          "time": 100.52635599999999,
          "velocity": 0.7559055118110236
        },
        {
          "duration": 0.12390355833332478,
          "durationTicks": 113,
          "midi": 62,
          "name": "D4",
          "ticks": 91800,
          "time": 100.65793500000001,
          "velocity": 0.7559055118110236
        },
        {
          "duration": 0.1239035583333532,
          "durationTicks": 113,
          "midi": 65,
          "name": "F4",
          "ticks": 91920,
          "time": 100.789514,
          "velocity": 0.7559055118110236
        },
        {
          "duration": 0.12390355833332478,
          "durationTicks": 113,
          "midi": 62,
          "name": "D4",
          "ticks": 92040,
          "time": 100.92109300000001,
          "velocity": 0.7559055118110236
        },
        {
          "duration": 0.1962720083333238,
          "durationTicks": 179,
          "midi": 62,
          "name": "D4",
          "ticks": 92160,
          "time": 101.052672,
          "velocity": 0.7559055118110236
        },
        {
          "duration": 0.1962720083333238,
          "durationTicks": 179,
          "midi": 65,
          "name": "F4",
          "ticks": 92160,
          "time": 101.052672,
          "velocity": 0.7559055118110236
        },
        {
          "duration": 0.1962720083333238,
          "durationTicks": 179,
          "midi": 69,
          "name": "A4",
          "ticks": 92160,
          "time": 101.052672,
          "velocity": 0.7559055118110236
        },
        {
          "duration": 0.31469310833333,
          "durationTicks": 287,
          "midi": 62,
          "name": "D4",
          "ticks": 92520,
          "time": 101.447409,
          "velocity": 0.7559055118110236
        },
        {
          "duration": 0.31469310833333,
          "durationTicks": 287,
          "midi": 65,
          "name": "F4",
          "ticks": 92520,
          "time": 101.447409,
          "velocity": 0.7559055118110236
        },
        {
          "duration": 0.31469310833333,
          "durationTicks": 287,
          "midi": 69,
          "name": "A4",
          "ticks": 92520,
          "time": 101.447409,
          "velocity": 0.7559055118110236
        },
        {
          "duration": 0.7489038083333242,
          "durationTicks": 683,
          "midi": 60,
          "name": "C4",
          "ticks": 92880,
          "time": 101.84214600000001,
          "velocity": 0.7559055118110236
        },
        {
          "duration": 0.7489038083333242,
          "durationTicks": 683,
          "midi": 64,
          "name": "E4",
          "ticks": 92880,
          "time": 101.84214600000001,
          "velocity": 0.7559055118110236
        },
        {
          "duration": 0.7489038083333242,
          "durationTicks": 683,
          "midi": 67,
          "name": "G4",
          "ticks": 92880,
          "time": 101.84214600000001,
          "velocity": 0.7559055118110236
        },
        {
          "duration": 0.1239035583333532,
          "durationTicks": 113,
          "midi": 60,
          "name": "C4",
          "ticks": 93600,
          "time": 102.63162,
          "velocity": 0.7559055118110236
        },
        {
          "duration": 0.12390355833332478,
          "durationTicks": 113,
          "midi": 62,
          "name": "D4",
          "ticks": 93720,
          "time": 102.76319900000001,
          "velocity": 0.7559055118110236
        },
        {
          "duration": 0.1239035583333532,
          "durationTicks": 113,
          "midi": 65,
          "name": "F4",
          "ticks": 93840,
          "time": 102.894778,
          "velocity": 0.7559055118110236
        },
        {
          "duration": 0.1239035583333532,
          "durationTicks": 113,
          "midi": 62,
          "name": "D4",
          "ticks": 93960,
          "time": 103.02635699999999,
          "velocity": 0.7559055118110236
        },
        {
          "duration": 0.1962720083333238,
          "durationTicks": 179,
          "midi": 60,
          "name": "C4",
          "ticks": 94080,
          "time": 103.157936,
          "velocity": 0.7559055118110236
        },
        {
          "duration": 0.1962720083333238,
          "durationTicks": 179,
          "midi": 64,
          "name": "E4",
          "ticks": 94080,
          "time": 103.157936,
          "velocity": 0.7559055118110236
        },
        {
          "duration": 0.1962720083333238,
          "durationTicks": 179,
          "midi": 67,
          "name": "G4",
          "ticks": 94080,
          "time": 103.157936,
          "velocity": 0.7559055118110236
        },
        {
          "duration": 0.31469310833333,
          "durationTicks": 287,
          "midi": 60,
          "name": "C4",
          "ticks": 94440,
          "time": 103.552673,
          "velocity": 0.7559055118110236
        },
        {
          "duration": 0.31469310833333,
          "durationTicks": 287,
          "midi": 64,
          "name": "E4",
          "ticks": 94440,
          "time": 103.552673,
          "velocity": 0.7559055118110236
        },
        {
          "duration": 0.31469310833333,
          "durationTicks": 287,
          "midi": 67,
          "name": "G4",
          "ticks": 94440,
          "time": 103.552673,
          "velocity": 0.7559055118110236
        },
        {
          "duration": 0.37390365833334727,
          "durationTicks": 341,
          "midi": 57,
          "name": "A3",
          "ticks": 94800,
          "time": 103.94740999999999,
          "velocity": 0.7559055118110236
        },
        {
          "duration": 0.37390365833334727,
          "durationTicks": 341,
          "midi": 62,
          "name": "D4",
          "ticks": 94800,
          "time": 103.94740999999999,
          "velocity": 0.7559055118110236
        },
        {
          "duration": 0.37390365833334727,
          "durationTicks": 341,
          "midi": 65,
          "name": "F4",
          "ticks": 94800,
          "time": 103.94740999999999,
          "velocity": 0.7559055118110236
        },
        {
          "duration": 0.12390355833332478,
          "durationTicks": 113,
          "midi": 64,
          "name": "E4",
          "ticks": 95160,
          "time": 104.34214700000001,
          "velocity": 0.7559055118110236
        },
        {
          "duration": 0.24890360833333602,
          "durationTicks": 227,
          "midi": 62,
          "name": "D4",
          "ticks": 95280,
          "time": 104.473726,
          "velocity": 0.7559055118110236
        },
        {
          "duration": 0.12390355833332478,
          "durationTicks": 113,
          "midi": 60,
          "name": "C4",
          "ticks": 95520,
          "time": 104.736884,
          "velocity": 0.7559055118110236
        },
        {
          "duration": 0.1239035583333532,
          "durationTicks": 113,
          "midi": 62,
          "name": "D4",
          "ticks": 95640,
          "time": 104.86846299999999,
          "velocity": 0.7559055118110236
        },
        {
          "duration": 0.12390355833332478,
          "durationTicks": 113,
          "midi": 65,
          "name": "F4",
          "ticks": 95760,
          "time": 105.00004200000001,
          "velocity": 0.7559055118110236
        },
        {
          "duration": 0.1239035583333532,
          "durationTicks": 113,
          "midi": 62,
          "name": "D4",
          "ticks": 95880,
          "time": 105.131621,
          "velocity": 0.7559055118110236
        },
        {
          "duration": 0.4989037083333301,
          "durationTicks": 455,
          "midi": 58,
          "name": "A#3",
          "ticks": 96000,
          "time": 105.26320000000001,
          "velocity": 0.7559055118110236
        },
        {
          "duration": 0.4989037083333301,
          "durationTicks": 455,
          "midi": 62,
          "name": "D4",
          "ticks": 96000,
          "time": 105.26320000000001,
          "velocity": 0.7559055118110236
        },
        {
          "duration": 0.4989037083333301,
          "durationTicks": 455,
          "midi": 65,
          "name": "F4",
          "ticks": 96000,
          "time": 105.26320000000001,
          "velocity": 0.7559055118110236
        },
        {
          "duration": 0.24890360833333602,
          "durationTicks": 227,
          "midi": 67,
          "name": "G4",
          "ticks": 96480,
          "time": 105.78951599999999,
          "velocity": 0.7559055118110236
        },
        {
          "duration": 0.37390365833334727,
          "durationTicks": 341,
          "midi": 60,
          "name": "C4",
          "ticks": 96720,
          "time": 106.052674,
          "velocity": 0.7559055118110236
        },
        {
          "duration": 0.37390365833334727,
          "durationTicks": 341,
          "midi": 64,
          "name": "E4",
          "ticks": 96720,
          "time": 106.052674,
          "velocity": 0.7559055118110236
        },
        {
          "duration": 0.1239035583333532,
          "durationTicks": 113,
          "midi": 62,
          "name": "D4",
          "ticks": 97080,
          "time": 106.44741099999999,
          "velocity": 0.7559055118110236
        },
        {
          "duration": 0.4989037083333301,
          "durationTicks": 455,
          "midi": 60,
          "name": "C4",
          "ticks": 97200,
          "time": 106.57899,
          "velocity": 0.7559055118110236
        },
        {
          "duration": 0.2489036083333076,
          "durationTicks": 227,
          "midi": 60,
          "name": "C4",
          "ticks": 97680,
          "time": 107.10530600000001,
          "velocity": 0.7559055118110236
        },
        {
          "duration": 0.2620615083333462,
          "durationTicks": 239,
          "midi": 57,
          "name": "A3",
          "ticks": 97920,
          "time": 107.36846399999999,
          "velocity": 0.7559055118110236
        },
        {
          "duration": 0.2620615083333462,
          "durationTicks": 239,
          "midi": 60,
          "name": "C4",
          "ticks": 97920,
          "time": 107.36846399999999,
          "velocity": 0.7559055118110236
        },
        {
          "duration": 0.2620615083333462,
          "durationTicks": 239,
          "midi": 67,
          "name": "G4",
          "ticks": 97920,
          "time": 107.36846399999999,
          "velocity": 0.7559055118110236
        },
        {
          "duration": 0.9989039083333466,
          "durationTicks": 911,
          "midi": 57,
          "name": "A3",
          "ticks": 98400,
          "time": 107.89478,
          "velocity": 0.7559055118110236
        },
        {
          "duration": 0.9989039083333466,
          "durationTicks": 911,
          "midi": 62,
          "name": "D4",
          "ticks": 98400,
          "time": 107.89478,
          "velocity": 0.7559055118110236
        },
        {
          "duration": 0.9989039083333466,
          "durationTicks": 911,
          "midi": 65,
          "name": "F4",
          "ticks": 98400,
          "time": 107.89478,
          "velocity": 0.7559055118110236
        },
        {
          "duration": 0.12390355833332478,
          "durationTicks": 113,
          "midi": 60,
          "name": "C4",
          "ticks": 99360,
          "time": 108.94741200000001,
          "velocity": 0.7559055118110236
        },
        {
          "duration": 0.1239035583333532,
          "durationTicks": 113,
          "midi": 62,
          "name": "D4",
          "ticks": 99480,
          "time": 109.078991,
          "velocity": 0.7559055118110236
        },
        {
          "duration": 0.1239035583333532,
          "durationTicks": 113,
          "midi": 65,
          "name": "F4",
          "ticks": 99600,
          "time": 109.21056999999999,
          "velocity": 0.7559055118110236
        },
        {
          "duration": 0.12390355833332478,
          "durationTicks": 113,
          "midi": 62,
          "name": "D4",
          "ticks": 99720,
          "time": 109.342149,
          "velocity": 0.7559055118110236
        },
        {
          "duration": 0.19627200833335223,
          "durationTicks": 179,
          "midi": 62,
          "name": "D4",
          "ticks": 99840,
          "time": 109.473728,
          "velocity": 0.7559055118110236
        },
        {
          "duration": 0.19627200833335223,
          "durationTicks": 179,
          "midi": 65,
          "name": "F4",
          "ticks": 99840,
          "time": 109.473728,
          "velocity": 0.7559055118110236
        },
        {
          "duration": 0.19627200833335223,
          "durationTicks": 179,
          "midi": 69,
          "name": "A4",
          "ticks": 99840,
          "time": 109.473728,
          "velocity": 0.7559055118110236
        },
        {
          "duration": 0.31469310833333,
          "durationTicks": 287,
          "midi": 62,
          "name": "D4",
          "ticks": 100200,
          "time": 109.86846500000001,
          "velocity": 0.7559055118110236
        },
        {
          "duration": 0.31469310833333,
          "durationTicks": 287,
          "midi": 65,
          "name": "F4",
          "ticks": 100200,
          "time": 109.86846500000001,
          "velocity": 0.7559055118110236
        },
        {
          "duration": 0.31469310833333,
          "durationTicks": 287,
          "midi": 69,
          "name": "A4",
          "ticks": 100200,
          "time": 109.86846500000001,
          "velocity": 0.7559055118110236
        },
        {
          "duration": 0.7489038083333242,
          "durationTicks": 683,
          "midi": 60,
          "name": "C4",
          "ticks": 100560,
          "time": 110.263202,
          "velocity": 0.7559055118110236
        },
        {
          "duration": 0.7489038083333242,
          "durationTicks": 683,
          "midi": 64,
          "name": "E4",
          "ticks": 100560,
          "time": 110.263202,
          "velocity": 0.7559055118110236
        },
        {
          "duration": 0.7489038083333242,
          "durationTicks": 683,
          "midi": 67,
          "name": "G4",
          "ticks": 100560,
          "time": 110.263202,
          "velocity": 0.7559055118110236
        },
        {
          "duration": 0.1239035583333532,
          "durationTicks": 113,
          "midi": 60,
          "name": "C4",
          "ticks": 101280,
          "time": 111.05267599999999,
          "velocity": 0.7559055118110236
        },
        {
          "duration": 0.12390355833332478,
          "durationTicks": 113,
          "midi": 62,
          "name": "D4",
          "ticks": 101400,
          "time": 111.18425500000001,
          "velocity": 0.7559055118110236
        },
        {
          "duration": 0.1239035583333532,
          "durationTicks": 113,
          "midi": 65,
          "name": "F4",
          "ticks": 101520,
          "time": 111.315834,
          "velocity": 0.7559055118110236
        },
        {
          "duration": 0.12390355833332478,
          "durationTicks": 113,
          "midi": 62,
          "name": "D4",
          "ticks": 101640,
          "time": 111.44741300000001,
          "velocity": 0.7559055118110236
        },
        {
          "duration": 0.4989037083333301,
          "durationTicks": 455,
          "midi": 60,
          "name": "C4",
          "ticks": 101760,
          "time": 111.578992,
          "velocity": 0.7559055118110236
        },
        {
          "duration": 0.4989037083333301,
          "durationTicks": 455,
          "midi": 72,
          "name": "C5",
          "ticks": 101760,
          "time": 111.578992,
          "velocity": 0.7559055118110236
        },
        {
          "duration": 0.24890360833333602,
          "durationTicks": 227,
          "midi": 64,
          "name": "E4",
          "ticks": 102240,
          "time": 112.10530800000001,
          "velocity": 0.7559055118110236
        },
        {
          "duration": 0.37390365833331884,
          "durationTicks": 341,
          "midi": 65,
          "name": "F4",
          "ticks": 102480,
          "time": 112.36846600000001,
          "velocity": 0.7559055118110236
        },
        {
          "duration": 0.12390355833332478,
          "durationTicks": 113,
          "midi": 64,
          "name": "E4",
          "ticks": 102840,
          "time": 112.763203,
          "velocity": 0.7559055118110236
        },
        {
          "duration": 0.24890360833333602,
          "durationTicks": 227,
          "midi": 62,
          "name": "D4",
          "ticks": 102960,
          "time": 112.89478199999999,
          "velocity": 0.7559055118110236
        },
        {
          "duration": 0.1239035583333532,
          "durationTicks": 113,
          "midi": 60,
          "name": "C4",
          "ticks": 103200,
          "time": 113.15794,
          "velocity": 0.7559055118110236
        },
        {
          "duration": 0.12390355833332478,
          "durationTicks": 113,
          "midi": 62,
          "name": "D4",
          "ticks": 103320,
          "time": 113.28951900000001,
          "velocity": 0.7559055118110236
        },
        {
          "duration": 0.1239035583333532,
          "durationTicks": 113,
          "midi": 65,
          "name": "F4",
          "ticks": 103440,
          "time": 113.421098,
          "velocity": 0.7559055118110236
        },
        {
          "duration": 0.1239035583333532,
          "durationTicks": 113,
          "midi": 62,
          "name": "D4",
          "ticks": 103560,
          "time": 113.55267699999999,
          "velocity": 0.7559055118110236
        },
        {
          "duration": 0.4989037083333301,
          "durationTicks": 455,
          "midi": 58,
          "name": "A#3",
          "ticks": 103680,
          "time": 113.684256,
          "velocity": 0.7559055118110236
        },
        {
          "duration": 0.4989037083333301,
          "durationTicks": 455,
          "midi": 62,
          "name": "D4",
          "ticks": 103680,
          "time": 113.684256,
          "velocity": 0.7559055118110236
        },
        {
          "duration": 0.4989037083333301,
          "durationTicks": 455,
          "midi": 65,
          "name": "F4",
          "ticks": 103680,
          "time": 113.684256,
          "velocity": 0.7559055118110236
        },
        {
          "duration": 0.2489036083333076,
          "durationTicks": 227,
          "midi": 67,
          "name": "G4",
          "ticks": 104160,
          "time": 114.21057200000001,
          "velocity": 0.7559055118110236
        },
        {
          "duration": 0.37390365833334727,
          "durationTicks": 341,
          "midi": 60,
          "name": "C4",
          "ticks": 104400,
          "time": 114.47372999999999,
          "velocity": 0.7559055118110236
        },
        {
          "duration": 0.37390365833334727,
          "durationTicks": 341,
          "midi": 64,
          "name": "E4",
          "ticks": 104400,
          "time": 114.47372999999999,
          "velocity": 0.7559055118110236
        },
        {
          "duration": 0.12390355833332478,
          "durationTicks": 113,
          "midi": 62,
          "name": "D4",
          "ticks": 104760,
          "time": 114.86846700000001,
          "velocity": 0.7559055118110236
        },
        {
          "duration": 0.4989037083333301,
          "durationTicks": 455,
          "midi": 60,
          "name": "C4",
          "ticks": 104880,
          "time": 115.000046,
          "velocity": 0.7559055118110236
        },
        {
          "duration": 0.24890360833333602,
          "durationTicks": 227,
          "midi": 60,
          "name": "C4",
          "ticks": 105360,
          "time": 115.526362,
          "velocity": 0.7559055118110236
        },
        {
          "duration": 0.26206150833331776,
          "durationTicks": 239,
          "midi": 57,
          "name": "A3",
          "ticks": 105600,
          "time": 115.78952000000001,
          "velocity": 0.7559055118110236
        },
        {
          "duration": 0.26206150833331776,
          "durationTicks": 239,
          "midi": 60,
          "name": "C4",
          "ticks": 105600,
          "time": 115.78952000000001,
          "velocity": 0.7559055118110236
        },
        {
          "duration": 0.26206150833331776,
          "durationTicks": 239,
          "midi": 67,
          "name": "G4",
          "ticks": 105600,
          "time": 115.78952000000001,
          "velocity": 0.7559055118110236
        },
        {
          "duration": 0.9989039083333466,
          "durationTicks": 911,
          "midi": 57,
          "name": "A3",
          "ticks": 106080,
          "time": 116.31583599999999,
          "velocity": 0.7559055118110236
        },
        {
          "duration": 0.9989039083333466,
          "durationTicks": 911,
          "midi": 62,
          "name": "D4",
          "ticks": 106080,
          "time": 116.31583599999999,
          "velocity": 0.7559055118110236
        },
        {
          "duration": 0.9989039083333466,
          "durationTicks": 911,
          "midi": 65,
          "name": "F4",
          "ticks": 106080,
          "time": 116.31583599999999,
          "velocity": 0.7559055118110236
        },
        {
          "duration": 1.9989043083333513,
          "durationTicks": 1823,
          "midi": 60,
          "name": "C4",
          "ticks": 107520,
          "time": 117.89478399999999,
          "velocity": 0.7559055118110236
        },
        {
          "duration": 0.37390365833334727,
          "durationTicks": 341,
          "midi": 65,
          "name": "F4",
          "ticks": 109440,
          "time": 120.00004799999999,
          "velocity": 0.7559055118110236
        },
        {
          "duration": 0.12390355833332478,
          "durationTicks": 113,
          "midi": 65,
          "name": "F4",
          "ticks": 109800,
          "time": 120.39478500000001,
          "velocity": 0.7559055118110236
        },
        {
          "duration": 0.24890360833333602,
          "durationTicks": 227,
          "midi": 64,
          "name": "E4",
          "ticks": 110160,
          "time": 120.789522,
          "velocity": 0.7559055118110236
        },
        {
          "duration": 1.9989043083333513,
          "durationTicks": 1823,
          "midi": 60,
          "name": "C4",
          "ticks": 111360,
          "time": 122.105312,
          "velocity": 0.7559055118110236
        },
        {
          "duration": 0.37390365833334727,
          "durationTicks": 341,
          "midi": 65,
          "name": "F4",
          "ticks": 113280,
          "time": 124.210576,
          "velocity": 0.7559055118110236
        },
        {
          "duration": 0.1239035583333532,
          "durationTicks": 113,
          "midi": 65,
          "name": "F4",
          "ticks": 113640,
          "time": 124.605313,
          "velocity": 0.7559055118110236
        },
        {
          "duration": 0.24890360833333602,
          "durationTicks": 227,
          "midi": 64,
          "name": "E4",
          "ticks": 114000,
          "time": 125.00004999999999,
          "velocity": 0.7559055118110236
        },
        {
          "duration": 0.2620615083333462,
          "durationTicks": 239,
          "midi": 58,
          "name": "A#3",
          "ticks": 115680,
          "time": 126.84215599999999,
          "velocity": 0.6299212598425197
        },
        {
          "duration": 0.2620615083333462,
          "durationTicks": 239,
          "midi": 62,
          "name": "D4",
          "ticks": 115680,
          "time": 126.84215599999999,
          "velocity": 0.6299212598425197
        },
        {
          "duration": 0.5120616083333402,
          "durationTicks": 467,
          "midi": 58,
          "name": "A#3",
          "ticks": 115920,
          "time": 127.10531399999999,
          "velocity": 0.6299212598425197
        },
        {
          "duration": 0.24890360833333602,
          "durationTicks": 227,
          "midi": 64,
          "name": "E4",
          "ticks": 115920,
          "time": 127.10531399999999,
          "velocity": 0.6299212598425197
        },
        {
          "duration": 0.2620615083333462,
          "durationTicks": 239,
          "midi": 65,
          "name": "F4",
          "ticks": 116160,
          "time": 127.368472,
          "velocity": 0.6299212598425197
        },
        {
          "duration": 0.24890360833333602,
          "durationTicks": 227,
          "midi": 58,
          "name": "A#3",
          "ticks": 116400,
          "time": 127.63163,
          "velocity": 0.6299212598425197
        },
        {
          "duration": 0.24890360833333602,
          "durationTicks": 227,
          "midi": 65,
          "name": "F4",
          "ticks": 116400,
          "time": 127.63163,
          "velocity": 0.6299212598425197
        },
        {
          "duration": 0.24890360833333602,
          "durationTicks": 227,
          "midi": 67,
          "name": "G4",
          "ticks": 116640,
          "time": 127.894788,
          "velocity": 0.6299212598425197
        },
        {
          "duration": 0.37390365833331884,
          "durationTicks": 341,
          "midi": 60,
          "name": "C4",
          "ticks": 116880,
          "time": 128.157946,
          "velocity": 0.6299212598425197
        },
        {
          "duration": 0.37390365833331884,
          "durationTicks": 341,
          "midi": 64,
          "name": "E4",
          "ticks": 116880,
          "time": 128.157946,
          "velocity": 0.6299212598425197
        },
        {
          "duration": 0.1239035583333532,
          "durationTicks": 113,
          "midi": 62,
          "name": "D4",
          "ticks": 117240,
          "time": 128.552683,
          "velocity": 0.6299212598425197
        },
        {
          "duration": 1.2489040083333407,
          "durationTicks": 1139,
          "midi": 60,
          "name": "C4",
          "ticks": 117360,
          "time": 128.684262,
          "velocity": 0.6299212598425197
        },
        {
          "duration": 0.9989039083333466,
          "durationTicks": 911,
          "midi": 58,
          "name": "A#3",
          "ticks": 119280,
          "time": 130.789526,
          "velocity": 0.6299212598425197
        },
        {
          "duration": 0.24890360833333602,
          "durationTicks": 227,
          "midi": 62,
          "name": "D4",
          "ticks": 119280,
          "time": 130.789526,
          "velocity": 0.6299212598425197
        },
        {
          "duration": 0.24890360833333602,
          "durationTicks": 227,
          "midi": 62,
          "name": "D4",
          "ticks": 119520,
          "time": 131.052684,
          "velocity": 0.6299212598425197
        },
        {
          "duration": 0.24890360833333602,
          "durationTicks": 227,
          "midi": 64,
          "name": "E4",
          "ticks": 119760,
          "time": 131.315842,
          "velocity": 0.6299212598425197
        },
        {
          "duration": 0.24890360833333602,
          "durationTicks": 227,
          "midi": 65,
          "name": "F4",
          "ticks": 120000,
          "time": 131.579,
          "velocity": 0.6299212598425197
        },
        {
          "duration": 0.4989037083333301,
          "durationTicks": 455,
          "midi": 62,
          "name": "D4",
          "ticks": 120240,
          "time": 131.842158,
          "velocity": 0.6299212598425197
        },
        {
          "duration": 0.24890360833333602,
          "durationTicks": 227,
          "midi": 60,
          "name": "C4",
          "ticks": 120720,
          "time": 132.368474,
          "velocity": 0.6299212598425197
        },
        {
          "duration": 0.2620615083333462,
          "durationTicks": 239,
          "midi": 60,
          "name": "C4",
          "ticks": 120960,
          "time": 132.631632,
          "velocity": 0.7559055118110236
        },
        {
          "duration": 0.2620615083333462,
          "durationTicks": 239,
          "midi": 72,
          "name": "C5",
          "ticks": 120960,
          "time": 132.631632,
          "velocity": 0.7559055118110236
        },
        {
          "duration": 0.24890360833333602,
          "durationTicks": 227,
          "midi": 72,
          "name": "C5",
          "ticks": 121440,
          "time": 133.157948,
          "velocity": 0.6299212598425197
        },
        {
          "duration": 0.4989037083333301,
          "durationTicks": 455,
          "midi": 67,
          "name": "G4",
          "ticks": 121680,
          "time": 133.421106,
          "velocity": 0.6062992125984252
        },
        {
          "duration": 0.24890360833333602,
          "durationTicks": 227,
          "midi": 69,
          "name": "A4",
          "ticks": 122160,
          "time": 133.947422,
          "velocity": 0.5590551181102362
        },
        {
          "duration": 0.24890360833333602,
          "durationTicks": 227,
          "midi": 67,
          "name": "G4",
          "ticks": 122400,
          "time": 134.21058,
          "velocity": 0.5354330708661418
        },
        {
          "duration": 0.24890360833333602,
          "durationTicks": 227,
          "midi": 65,
          "name": "F4",
          "ticks": 122640,
          "time": 134.473738,
          "velocity": 0.5039370078740157
        },
        {
          "duration": 0.26206150833331776,
          "durationTicks": 239,
          "midi": 58,
          "name": "A#3",
          "ticks": 123120,
          "time": 135.000054,
          "velocity": 0.6299212598425197
        },
        {
          "duration": 0.26206150833331776,
          "durationTicks": 239,
          "midi": 62,
          "name": "D4",
          "ticks": 123120,
          "time": 135.000054,
          "velocity": 0.6299212598425197
        },
        {
          "duration": 0.26206150833331776,
          "durationTicks": 239,
          "midi": 58,
          "name": "A#3",
          "ticks": 123360,
          "time": 135.263212,
          "velocity": 0.6299212598425197
        },
        {
          "duration": 0.26206150833331776,
          "durationTicks": 239,
          "midi": 62,
          "name": "D4",
          "ticks": 123360,
          "time": 135.263212,
          "velocity": 0.6299212598425197
        },
        {
          "duration": 0.49890370833330167,
          "durationTicks": 455,
          "midi": 58,
          "name": "A#3",
          "ticks": 123600,
          "time": 135.52637000000001,
          "velocity": 0.6299212598425197
        },
        {
          "duration": 0.2489036083333076,
          "durationTicks": 227,
          "midi": 64,
          "name": "E4",
          "ticks": 123600,
          "time": 135.52637000000001,
          "velocity": 0.6299212598425197
        },
        {
          "duration": 0.24890360833333602,
          "durationTicks": 227,
          "midi": 65,
          "name": "F4",
          "ticks": 123840,
          "time": 135.789528,
          "velocity": 0.6299212598425197
        },
        {
          "duration": 0.24890360833333602,
          "durationTicks": 227,
          "midi": 62,
          "name": "D4",
          "ticks": 124080,
          "time": 136.052686,
          "velocity": 0.6299212598425197
        },
        {
          "duration": 0.24890360833333602,
          "durationTicks": 227,
          "midi": 58,
          "name": "A#3",
          "ticks": 124320,
          "time": 136.315844,
          "velocity": 0.6299212598425197
        },
        {
          "duration": 0.24890360833333602,
          "durationTicks": 227,
          "midi": 65,
          "name": "F4",
          "ticks": 124320,
          "time": 136.315844,
          "velocity": 0.6299212598425197
        },
        {
          "duration": 0.24890360833333602,
          "durationTicks": 227,
          "midi": 67,
          "name": "G4",
          "ticks": 124560,
          "time": 136.579002,
          "velocity": 0.6299212598425197
        },
        {
          "duration": 0.24890360833333602,
          "durationTicks": 227,
          "midi": 60,
          "name": "C4",
          "ticks": 125040,
          "time": 137.10531799999998,
          "velocity": 0.6299212598425197
        },
        {
          "duration": 0.24890360833333602,
          "durationTicks": 227,
          "midi": 64,
          "name": "E4",
          "ticks": 125040,
          "time": 137.10531799999998,
          "velocity": 0.6299212598425197
        },
        {
          "duration": 0.24890360833333602,
          "durationTicks": 227,
          "midi": 62,
          "name": "D4",
          "ticks": 125280,
          "time": 137.368476,
          "velocity": 0.6299212598425197
        },
        {
          "duration": 0.7489038083333526,
          "durationTicks": 683,
          "midi": 60,
          "name": "C4",
          "ticks": 125520,
          "time": 137.631634,
          "velocity": 0.6299212598425197
        },
        {
          "duration": 0.4989037083333301,
          "durationTicks": 455,
          "midi": 58,
          "name": "A#3",
          "ticks": 126960,
          "time": 139.210582,
          "velocity": 0.6299212598425197
        },
        {
          "duration": 0.24890360833333602,
          "durationTicks": 227,
          "midi": 62,
          "name": "D4",
          "ticks": 126960,
          "time": 139.210582,
          "velocity": 0.6299212598425197
        },
        {
          "duration": 0.24890360833333602,
          "durationTicks": 227,
          "midi": 62,
          "name": "D4",
          "ticks": 127200,
          "time": 139.47374,
          "velocity": 0.6299212598425197
        },
        {
          "duration": 0.24890360833333602,
          "durationTicks": 227,
          "midi": 64,
          "name": "E4",
          "ticks": 127440,
          "time": 139.736898,
          "velocity": 0.6299212598425197
        },
        {
          "duration": 0.24890360833333602,
          "durationTicks": 227,
          "midi": 58,
          "name": "A#3",
          "ticks": 127680,
          "time": 140.000056,
          "velocity": 0.6299212598425197
        },
        {
          "duration": 0.24890360833333602,
          "durationTicks": 227,
          "midi": 65,
          "name": "F4",
          "ticks": 127680,
          "time": 140.000056,
          "velocity": 0.6299212598425197
        },
        {
          "duration": 0.2489036083333076,
          "durationTicks": 227,
          "midi": 62,
          "name": "D4",
          "ticks": 127920,
          "time": 140.263214,
          "velocity": 0.6299212598425197
        },
        {
          "duration": 0.4989037083333301,
          "durationTicks": 455,
          "midi": 60,
          "name": "C4",
          "ticks": 128160,
          "time": 140.52637199999998,
          "velocity": 0.6299212598425197
        },
        {
          "duration": 0.24890360833333602,
          "durationTicks": 227,
          "midi": 67,
          "name": "G4",
          "ticks": 128640,
          "time": 141.052688,
          "velocity": 0.6299212598425197
        },
        {
          "duration": 1.4989041083333348,
          "durationTicks": 1367,
          "midi": 60,
          "name": "C4",
          "ticks": 128640,
          "time": 141.052688,
          "velocity": 0.6299212598425197
        },
        {
          "duration": 1.4989041083333348,
          "durationTicks": 1367,
          "midi": 64,
          "name": "E4",
          "ticks": 128640,
          "time": 141.052688,
          "velocity": 0.6299212598425197
        },
        {
          "duration": 0.24890360833333602,
          "durationTicks": 227,
          "midi": 67,
          "name": "G4",
          "ticks": 128880,
          "time": 141.315846,
          "velocity": 0.6299212598425197
        },
        {
          "duration": 0.24890360833333602,
          "durationTicks": 227,
          "midi": 67,
          "name": "G4",
          "ticks": 129120,
          "time": 141.579004,
          "velocity": 0.6299212598425197
        },
        {
          "duration": 0.24890360833333602,
          "durationTicks": 227,
          "midi": 69,
          "name": "A4",
          "ticks": 129360,
          "time": 141.842162,
          "velocity": 0.6299212598425197
        },
        {
          "duration": 0.4989037083333301,
          "durationTicks": 455,
          "midi": 67,
          "name": "G4",
          "ticks": 129600,
          "time": 142.10532,
          "velocity": 0.6299212598425197
        },
        {
          "duration": 0.9989039083333466,
          "durationTicks": 911,
          "midi": 58,
          "name": "A#3",
          "ticks": 130560,
          "time": 143.157952,
          "velocity": 0.6299212598425197
        },
        {
          "duration": 0.9989039083333466,
          "durationTicks": 911,
          "midi": 62,
          "name": "D4",
          "ticks": 130560,
          "time": 143.157952,
          "velocity": 0.6299212598425197
        },
        {
          "duration": 1.2489040083333123,
          "durationTicks": 1139,
          "midi": 65,
          "name": "F4",
          "ticks": 130560,
          "time": 143.157952,
          "velocity": 0.6299212598425197
        },
        {
          "duration": 0.24890360833333602,
          "durationTicks": 227,
          "midi": 67,
          "name": "G4",
          "ticks": 131760,
          "time": 144.473742,
          "velocity": 0.6299212598425197
        },
        {
          "duration": 0.24890360833333602,
          "durationTicks": 227,
          "midi": 69,
          "name": "A4",
          "ticks": 132000,
          "time": 144.7369,
          "velocity": 0.6299212598425197
        },
        {
          "duration": 0.24890360833333602,
          "durationTicks": 227,
          "midi": 65,
          "name": "F4",
          "ticks": 132240,
          "time": 145.000058,
          "velocity": 0.6299212598425197
        },
        {
          "duration": 0.24890360833333602,
          "durationTicks": 227,
          "midi": 67,
          "name": "G4",
          "ticks": 132480,
          "time": 145.263216,
          "velocity": 0.6299212598425197
        },
        {
          "duration": 0.9989039083333182,
          "durationTicks": 911,
          "midi": 60,
          "name": "C4",
          "ticks": 132480,
          "time": 145.263216,
          "velocity": 0.6299212598425197
        },
        {
          "duration": 0.9989039083333182,
          "durationTicks": 911,
          "midi": 64,
          "name": "E4",
          "ticks": 132480,
          "time": 145.263216,
          "velocity": 0.6299212598425197
        },
        {
          "duration": 0.2489036083333076,
          "durationTicks": 227,
          "midi": 67,
          "name": "G4",
          "ticks": 132720,
          "time": 145.526374,
          "velocity": 0.6299212598425197
        },
        {
          "duration": 0.2489036083333076,
          "durationTicks": 227,
          "midi": 67,
          "name": "G4",
          "ticks": 132960,
          "time": 145.789532,
          "velocity": 0.6299212598425197
        },
        {
          "duration": 0.24890360833333602,
          "durationTicks": 227,
          "midi": 69,
          "name": "A4",
          "ticks": 133200,
          "time": 146.05268999999998,
          "velocity": 0.6299212598425197
        },
        {
          "duration": 0.4989037083333585,
          "durationTicks": 455,
          "midi": 67,
          "name": "G4",
          "ticks": 133440,
          "time": 146.315848,
          "velocity": 0.6299212598425197
        },
        {
          "duration": 0.4989037083333301,
          "durationTicks": 455,
          "midi": 60,
          "name": "C4",
          "ticks": 133920,
          "time": 146.842164,
          "velocity": 0.6299212598425197
        },
        {
          "duration": 0.24890360833333602,
          "durationTicks": 227,
          "midi": 62,
          "name": "D4",
          "ticks": 135360,
          "time": 148.421112,
          "velocity": 0.6299212598425197
        },
        {
          "duration": 0.9989039083333466,
          "durationTicks": 911,
          "midi": 58,
          "name": "A#3",
          "ticks": 135360,
          "time": 148.421112,
          "velocity": 0.6299212598425197
        },
        {
          "duration": 0.24890360833333602,
          "durationTicks": 227,
          "midi": 64,
          "name": "E4",
          "ticks": 135600,
          "time": 148.68427,
          "velocity": 0.6299212598425197
        },
        {
          "duration": 0.24890360833333602,
          "durationTicks": 227,
          "midi": 65,
          "name": "F4",
          "ticks": 135840,
          "time": 148.947428,
          "velocity": 0.6299212598425197
        },
        {
          "duration": 0.2489036083333076,
          "durationTicks": 227,
          "midi": 62,
          "name": "D4",
          "ticks": 136080,
          "time": 149.210586,
          "velocity": 0.6299212598425197
        },
        {
          "duration": 0.24890360833333602,
          "durationTicks": 227,
          "midi": 67,
          "name": "G4",
          "ticks": 136560,
          "time": 149.736902,
          "velocity": 0.6299212598425197
        },
        {
          "duration": 1.2489040083333407,
          "durationTicks": 1139,
          "midi": 60,
          "name": "C4",
          "ticks": 136560,
          "time": 149.736902,
          "velocity": 0.6299212598425197
        },
        {
          "duration": 1.2489040083333407,
          "durationTicks": 1139,
          "midi": 64,
          "name": "E4",
          "ticks": 136560,
          "time": 149.736902,
          "velocity": 0.6299212598425197
        },
        {
          "duration": 0.24890360833333602,
          "durationTicks": 227,
          "midi": 69,
          "name": "A4",
          "ticks": 136800,
          "time": 150.00006,
          "velocity": 0.6299212598425197
        },
        {
          "duration": 0.7489038083333242,
          "durationTicks": 683,
          "midi": 67,
          "name": "G4",
          "ticks": 137040,
          "time": 150.263218,
          "velocity": 0.6299212598425197
        },
        {
          "duration": 0.12390355833332478,
          "durationTicks": 113,
          "midi": 60,
          "name": "C4",
          "ticks": 137760,
          "time": 151.052692,
          "velocity": 0.7559055118110236
        },
        {
          "duration": 0.12390355833332478,
          "durationTicks": 113,
          "midi": 62,
          "name": "D4",
          "ticks": 137880,
          "time": 151.184271,
          "velocity": 0.7559055118110236
        },
        {
          "duration": 0.12390355833332478,
          "durationTicks": 113,
          "midi": 65,
          "name": "F4",
          "ticks": 138000,
          "time": 151.31584999999998,
          "velocity": 0.7559055118110236
        },
        {
          "duration": 0.12390355833332478,
          "durationTicks": 113,
          "midi": 62,
          "name": "D4",
          "ticks": 138120,
          "time": 151.447429,
          "velocity": 0.7559055118110236
        },
        {
          "duration": 0.1962720083333238,
          "durationTicks": 179,
          "midi": 62,
          "name": "D4",
          "ticks": 138240,
          "time": 151.579008,
          "velocity": 0.7559055118110236
        },
        {
          "duration": 0.1962720083333238,
          "durationTicks": 179,
          "midi": 65,
          "name": "F4",
          "ticks": 138240,
          "time": 151.579008,
          "velocity": 0.7559055118110236
        },
        {
          "duration": 0.1962720083333238,
          "durationTicks": 179,
          "midi": 69,
          "name": "A4",
          "ticks": 138240,
          "time": 151.579008,
          "velocity": 0.7559055118110236
        },
        {
          "duration": 0.31469310833333,
          "durationTicks": 287,
          "midi": 62,
          "name": "D4",
          "ticks": 138600,
          "time": 151.973745,
          "velocity": 0.7559055118110236
        },
        {
          "duration": 0.31469310833333,
          "durationTicks": 287,
          "midi": 65,
          "name": "F4",
          "ticks": 138600,
          "time": 151.973745,
          "velocity": 0.7559055118110236
        },
        {
          "duration": 0.31469310833333,
          "durationTicks": 287,
          "midi": 69,
          "name": "A4",
          "ticks": 138600,
          "time": 151.973745,
          "velocity": 0.7559055118110236
        },
        {
          "duration": 0.7489038083333242,
          "durationTicks": 683,
          "midi": 60,
          "name": "C4",
          "ticks": 138960,
          "time": 152.368482,
          "velocity": 0.7559055118110236
        },
        {
          "duration": 0.7489038083333242,
          "durationTicks": 683,
          "midi": 64,
          "name": "E4",
          "ticks": 138960,
          "time": 152.368482,
          "velocity": 0.7559055118110236
        },
        {
          "duration": 0.7489038083333242,
          "durationTicks": 683,
          "midi": 67,
          "name": "G4",
          "ticks": 138960,
          "time": 152.368482,
          "velocity": 0.7559055118110236
        },
        {
          "duration": 0.12390355833332478,
          "durationTicks": 113,
          "midi": 60,
          "name": "C4",
          "ticks": 139680,
          "time": 153.15795599999998,
          "velocity": 0.7559055118110236
        },
        {
          "duration": 0.12390355833332478,
          "durationTicks": 113,
          "midi": 62,
          "name": "D4",
          "ticks": 139800,
          "time": 153.289535,
          "velocity": 0.7559055118110236
        },
        {
          "duration": 0.12390355833332478,
          "durationTicks": 113,
          "midi": 65,
          "name": "F4",
          "ticks": 139920,
          "time": 153.421114,
          "velocity": 0.7559055118110236
        },
        {
          "duration": 0.12390355833332478,
          "durationTicks": 113,
          "midi": 62,
          "name": "D4",
          "ticks": 140040,
          "time": 153.552693,
          "velocity": 0.7559055118110236
        },
        {
          "duration": 0.1962720083333238,
          "durationTicks": 179,
          "midi": 60,
          "name": "C4",
          "ticks": 140160,
          "time": 153.684272,
          "velocity": 0.7559055118110236
        },
        {
          "duration": 0.1962720083333238,
          "durationTicks": 179,
          "midi": 64,
          "name": "E4",
          "ticks": 140160,
          "time": 153.684272,
          "velocity": 0.7559055118110236
        },
        {
          "duration": 0.1962720083333238,
          "durationTicks": 179,
          "midi": 67,
          "name": "G4",
          "ticks": 140160,
          "time": 153.684272,
          "velocity": 0.7559055118110236
        },
        {
          "duration": 0.31469310833333,
          "durationTicks": 287,
          "midi": 60,
          "name": "C4",
          "ticks": 140520,
          "time": 154.07900899999999,
          "velocity": 0.7559055118110236
        },
        {
          "duration": 0.31469310833333,
          "durationTicks": 287,
          "midi": 64,
          "name": "E4",
          "ticks": 140520,
          "time": 154.07900899999999,
          "velocity": 0.7559055118110236
        },
        {
          "duration": 0.31469310833333,
          "durationTicks": 287,
          "midi": 67,
          "name": "G4",
          "ticks": 140520,
          "time": 154.07900899999999,
          "velocity": 0.7559055118110236
        },
        {
          "duration": 0.37390365833331884,
          "durationTicks": 341,
          "midi": 57,
          "name": "A3",
          "ticks": 140880,
          "time": 154.473746,
          "velocity": 0.7559055118110236
        },
        {
          "duration": 0.37390365833331884,
          "durationTicks": 341,
          "midi": 62,
          "name": "D4",
          "ticks": 140880,
          "time": 154.473746,
          "velocity": 0.7559055118110236
        },
        {
          "duration": 0.37390365833331884,
          "durationTicks": 341,
          "midi": 65,
          "name": "F4",
          "ticks": 140880,
          "time": 154.473746,
          "velocity": 0.7559055118110236
        },
        {
          "duration": 0.12390355833332478,
          "durationTicks": 113,
          "midi": 64,
          "name": "E4",
          "ticks": 141240,
          "time": 154.868483,
          "velocity": 0.7559055118110236
        },
        {
          "duration": 0.24890360833333602,
          "durationTicks": 227,
          "midi": 62,
          "name": "D4",
          "ticks": 141360,
          "time": 155.00006199999999,
          "velocity": 0.7559055118110236
        },
        {
          "duration": 0.12390355833332478,
          "durationTicks": 113,
          "midi": 60,
          "name": "C4",
          "ticks": 141600,
          "time": 155.26322,
          "velocity": 0.7559055118110236
        },
        {
          "duration": 0.12390355833332478,
          "durationTicks": 113,
          "midi": 62,
          "name": "D4",
          "ticks": 141720,
          "time": 155.394799,
          "velocity": 0.7559055118110236
        },
        {
          "duration": 0.12390355833332478,
          "durationTicks": 113,
          "midi": 65,
          "name": "F4",
          "ticks": 141840,
          "time": 155.526378,
          "velocity": 0.7559055118110236
        },
        {
          "duration": 0.12390355833332478,
          "durationTicks": 113,
          "midi": 62,
          "name": "D4",
          "ticks": 141960,
          "time": 155.65795699999998,
          "velocity": 0.7559055118110236
        },
        {
          "duration": 0.4989037083333301,
          "durationTicks": 455,
          "midi": 58,
          "name": "A#3",
          "ticks": 142080,
          "time": 155.789536,
          "velocity": 0.7559055118110236
        },
        {
          "duration": 0.4989037083333301,
          "durationTicks": 455,
          "midi": 62,
          "name": "D4",
          "ticks": 142080,
          "time": 155.789536,
          "velocity": 0.7559055118110236
        },
        {
          "duration": 0.4989037083333301,
          "durationTicks": 455,
          "midi": 65,
          "name": "F4",
          "ticks": 142080,
          "time": 155.789536,
          "velocity": 0.7559055118110236
        },
        {
          "duration": 0.2489036083333076,
          "durationTicks": 227,
          "midi": 67,
          "name": "G4",
          "ticks": 142560,
          "time": 156.315852,
          "velocity": 0.7559055118110236
        },
        {
          "duration": 0.37390365833334727,
          "durationTicks": 341,
          "midi": 60,
          "name": "C4",
          "ticks": 142800,
          "time": 156.57900999999998,
          "velocity": 0.7559055118110236
        },
        {
          "duration": 0.37390365833334727,
          "durationTicks": 341,
          "midi": 64,
          "name": "E4",
          "ticks": 142800,
          "time": 156.57900999999998,
          "velocity": 0.7559055118110236
        },
        {
          "duration": 0.12390355833332478,
          "durationTicks": 113,
          "midi": 62,
          "name": "D4",
          "ticks": 143160,
          "time": 156.973747,
          "velocity": 0.7559055118110236
        },
        {
          "duration": 0.4989037083333585,
          "durationTicks": 455,
          "midi": 60,
          "name": "C4",
          "ticks": 143280,
          "time": 157.105326,
          "velocity": 0.7559055118110236
        },
        {
          "duration": 0.24890360833333602,
          "durationTicks": 227,
          "midi": 60,
          "name": "C4",
          "ticks": 143760,
          "time": 157.631642,
          "velocity": 0.7559055118110236
        },
        {
          "duration": 0.26206150833331776,
          "durationTicks": 239,
          "midi": 57,
          "name": "A3",
          "ticks": 144000,
          "time": 157.8948,
          "velocity": 0.7559055118110236
        },
        {
          "duration": 0.26206150833331776,
          "durationTicks": 239,
          "midi": 60,
          "name": "C4",
          "ticks": 144000,
          "time": 157.8948,
          "velocity": 0.7559055118110236
        },
        {
          "duration": 0.26206150833331776,
          "durationTicks": 239,
          "midi": 67,
          "name": "G4",
          "ticks": 144000,
          "time": 157.8948,
          "velocity": 0.7559055118110236
        },
        {
          "duration": 0.9989039083333466,
          "durationTicks": 911,
          "midi": 57,
          "name": "A3",
          "ticks": 144480,
          "time": 158.42111599999998,
          "velocity": 0.7559055118110236
        },
        {
          "duration": 0.9989039083333466,
          "durationTicks": 911,
          "midi": 62,
          "name": "D4",
          "ticks": 144480,
          "time": 158.42111599999998,
          "velocity": 0.7559055118110236
        },
        {
          "duration": 0.9989039083333466,
          "durationTicks": 911,
          "midi": 65,
          "name": "F4",
          "ticks": 144480,
          "time": 158.42111599999998,
          "velocity": 0.7559055118110236
        },
        {
          "duration": 0.12390355833332478,
          "durationTicks": 113,
          "midi": 60,
          "name": "C4",
          "ticks": 145440,
          "time": 159.473748,
          "velocity": 0.7559055118110236
        },
        {
          "duration": 0.12390355833332478,
          "durationTicks": 113,
          "midi": 62,
          "name": "D4",
          "ticks": 145560,
          "time": 159.605327,
          "velocity": 0.7559055118110236
        },
        {
          "duration": 0.12390355833332478,
          "durationTicks": 113,
          "midi": 65,
          "name": "F4",
          "ticks": 145680,
          "time": 159.736906,
          "velocity": 0.7559055118110236
        },
        {
          "duration": 0.12390355833332478,
          "durationTicks": 113,
          "midi": 62,
          "name": "D4",
          "ticks": 145800,
          "time": 159.868485,
          "velocity": 0.7559055118110236
        },
        {
          "duration": 0.1962720083333238,
          "durationTicks": 179,
          "midi": 62,
          "name": "D4",
          "ticks": 145920,
          "time": 160.00006399999998,
          "velocity": 0.7559055118110236
        },
        {
          "duration": 0.1962720083333238,
          "durationTicks": 179,
          "midi": 65,
          "name": "F4",
          "ticks": 145920,
          "time": 160.00006399999998,
          "velocity": 0.7559055118110236
        },
        {
          "duration": 0.1962720083333238,
          "durationTicks": 179,
          "midi": 69,
          "name": "A4",
          "ticks": 145920,
          "time": 160.00006399999998,
          "velocity": 0.7559055118110236
        },
        {
          "duration": 0.31469310833333,
          "durationTicks": 287,
          "midi": 62,
          "name": "D4",
          "ticks": 146280,
          "time": 160.394801,
          "velocity": 0.7559055118110236
        },
        {
          "duration": 0.31469310833333,
          "durationTicks": 287,
          "midi": 65,
          "name": "F4",
          "ticks": 146280,
          "time": 160.394801,
          "velocity": 0.7559055118110236
        },
        {
          "duration": 0.31469310833333,
          "durationTicks": 287,
          "midi": 69,
          "name": "A4",
          "ticks": 146280,
          "time": 160.394801,
          "velocity": 0.7559055118110236
        },
        {
          "duration": 0.7489038083333242,
          "durationTicks": 683,
          "midi": 60,
          "name": "C4",
          "ticks": 146640,
          "time": 160.789538,
          "velocity": 0.7559055118110236
        },
        {
          "duration": 0.7489038083333242,
          "durationTicks": 683,
          "midi": 64,
          "name": "E4",
          "ticks": 146640,
          "time": 160.789538,
          "velocity": 0.7559055118110236
        },
        {
          "duration": 0.7489038083333242,
          "durationTicks": 683,
          "midi": 67,
          "name": "G4",
          "ticks": 146640,
          "time": 160.789538,
          "velocity": 0.7559055118110236
        },
        {
          "duration": 0.12390355833332478,
          "durationTicks": 113,
          "midi": 60,
          "name": "C4",
          "ticks": 147360,
          "time": 161.579012,
          "velocity": 0.7559055118110236
        },
        {
          "duration": 0.12390355833332478,
          "durationTicks": 113,
          "midi": 62,
          "name": "D4",
          "ticks": 147480,
          "time": 161.710591,
          "velocity": 0.7559055118110236
        },
        {
          "duration": 0.12390355833332478,
          "durationTicks": 113,
          "midi": 65,
          "name": "F4",
          "ticks": 147600,
          "time": 161.84216999999998,
          "velocity": 0.7559055118110236
        },
        {
          "duration": 0.12390355833332478,
          "durationTicks": 113,
          "midi": 62,
          "name": "D4",
          "ticks": 147720,
          "time": 161.973749,
          "velocity": 0.7559055118110236
        },
        {
          "duration": 0.4989037083333585,
          "durationTicks": 455,
          "midi": 60,
          "name": "C4",
          "ticks": 147840,
          "time": 162.105328,
          "velocity": 0.7559055118110236
        },
        {
          "duration": 0.4989037083333585,
          "durationTicks": 455,
          "midi": 72,
          "name": "C5",
          "ticks": 147840,
          "time": 162.105328,
          "velocity": 0.7559055118110236
        },
        {
          "duration": 0.24890360833333602,
          "durationTicks": 227,
          "midi": 64,
          "name": "E4",
          "ticks": 148320,
          "time": 162.631644,
          "velocity": 0.7559055118110236
        },
        {
          "duration": 0.37390365833334727,
          "durationTicks": 341,
          "midi": 65,
          "name": "F4",
          "ticks": 148560,
          "time": 162.894802,
          "velocity": 0.7559055118110236
        },
        {
          "duration": 0.12390355833332478,
          "durationTicks": 113,
          "midi": 64,
          "name": "E4",
          "ticks": 148920,
          "time": 163.289539,
          "velocity": 0.7559055118110236
        },
        {
          "duration": 0.2489036083333076,
          "durationTicks": 227,
          "midi": 62,
          "name": "D4",
          "ticks": 149040,
          "time": 163.421118,
          "velocity": 0.7559055118110236
        },
        {
          "duration": 0.12390355833332478,
          "durationTicks": 113,
          "midi": 60,
          "name": "C4",
          "ticks": 149280,
          "time": 163.68427599999998,
          "velocity": 0.7559055118110236
        },
        {
          "duration": 0.12390355833332478,
          "durationTicks": 113,
          "midi": 62,
          "name": "D4",
          "ticks": 149400,
          "time": 163.815855,
          "velocity": 0.7559055118110236
        },
        {
          "duration": 0.12390355833332478,
          "durationTicks": 113,
          "midi": 65,
          "name": "F4",
          "ticks": 149520,
          "time": 163.947434,
          "velocity": 0.7559055118110236
        },
        {
          "duration": 0.12390355833332478,
          "durationTicks": 113,
          "midi": 62,
          "name": "D4",
          "ticks": 149640,
          "time": 164.079013,
          "velocity": 0.7559055118110236
        },
        {
          "duration": 0.4989037083333585,
          "durationTicks": 455,
          "midi": 58,
          "name": "A#3",
          "ticks": 149760,
          "time": 164.210592,
          "velocity": 0.7559055118110236
        },
        {
          "duration": 0.4989037083333585,
          "durationTicks": 455,
          "midi": 62,
          "name": "D4",
          "ticks": 149760,
          "time": 164.210592,
          "velocity": 0.7559055118110236
        },
        {
          "duration": 0.4989037083333585,
          "durationTicks": 455,
          "midi": 65,
          "name": "F4",
          "ticks": 149760,
          "time": 164.210592,
          "velocity": 0.7559055118110236
        },
        {
          "duration": 0.24890360833333602,
          "durationTicks": 227,
          "midi": 67,
          "name": "G4",
          "ticks": 150240,
          "time": 164.736908,
          "velocity": 0.7559055118110236
        },
        {
          "duration": 0.37390365833331884,
          "durationTicks": 341,
          "midi": 60,
          "name": "C4",
          "ticks": 150480,
          "time": 165.000066,
          "velocity": 0.7559055118110236
        },
        {
          "duration": 0.37390365833331884,
          "durationTicks": 341,
          "midi": 64,
          "name": "E4",
          "ticks": 150480,
          "time": 165.000066,
          "velocity": 0.7559055118110236
        },
        {
          "duration": 0.12390355833332478,
          "durationTicks": 113,
          "midi": 62,
          "name": "D4",
          "ticks": 150840,
          "time": 165.394803,
          "velocity": 0.7559055118110236
        },
        {
          "duration": 0.4989037083333585,
          "durationTicks": 455,
          "midi": 60,
          "name": "C4",
          "ticks": 150960,
          "time": 165.52638199999998,
          "velocity": 0.7559055118110236
        },
        {
          "duration": 0.24890360833333602,
          "durationTicks": 227,
          "midi": 60,
          "name": "C4",
          "ticks": 151440,
          "time": 166.052698,
          "velocity": 0.7559055118110236
        },
        {
          "duration": 0.26206150833331776,
          "durationTicks": 239,
          "midi": 57,
          "name": "A3",
          "ticks": 151680,
          "time": 166.315856,
          "velocity": 0.7559055118110236
        },
        {
          "duration": 0.26206150833331776,
          "durationTicks": 239,
          "midi": 60,
          "name": "C4",
          "ticks": 151680,
          "time": 166.315856,
          "velocity": 0.7559055118110236
        },
        {
          "duration": 0.26206150833331776,
          "durationTicks": 239,
          "midi": 67,
          "name": "G4",
          "ticks": 151680,
          "time": 166.315856,
          "velocity": 0.7559055118110236
        },
        {
          "duration": 0.9989039083333182,
          "durationTicks": 911,
          "midi": 57,
          "name": "A3",
          "ticks": 152160,
          "time": 166.842172,
          "velocity": 0.7559055118110236
        },
        {
          "duration": 0.9989039083333182,
          "durationTicks": 911,
          "midi": 62,
          "name": "D4",
          "ticks": 152160,
          "time": 166.842172,
          "velocity": 0.7559055118110236
        },
        {
          "duration": 0.9989039083333182,
          "durationTicks": 911,
          "midi": 65,
          "name": "F4",
          "ticks": 152160,
          "time": 166.842172,
          "velocity": 0.7559055118110236
        },
        {
          "duration": 0.12390355833332478,
          "durationTicks": 113,
          "midi": 60,
          "name": "C4",
          "ticks": 153120,
          "time": 167.894804,
          "velocity": 0.7559055118110236
        },
        {
          "duration": 0.12390355833332478,
          "durationTicks": 113,
          "midi": 62,
          "name": "D4",
          "ticks": 153240,
          "time": 168.02638299999998,
          "velocity": 0.7559055118110236
        },
        {
          "duration": 0.12390355833332478,
          "durationTicks": 113,
          "midi": 65,
          "name": "F4",
          "ticks": 153360,
          "time": 168.157962,
          "velocity": 0.7559055118110236
        },
        {
          "duration": 0.12390355833332478,
          "durationTicks": 113,
          "midi": 62,
          "name": "D4",
          "ticks": 153480,
          "time": 168.28954099999999,
          "velocity": 0.7559055118110236
        },
        {
          "duration": 0.1962720083333238,
          "durationTicks": 179,
          "midi": 62,
          "name": "D4",
          "ticks": 153600,
          "time": 168.42112,
          "velocity": 0.7559055118110236
        },
        {
          "duration": 0.1962720083333238,
          "durationTicks": 179,
          "midi": 65,
          "name": "F4",
          "ticks": 153600,
          "time": 168.42112,
          "velocity": 0.7559055118110236
        },
        {
          "duration": 0.1962720083333238,
          "durationTicks": 179,
          "midi": 69,
          "name": "A4",
          "ticks": 153600,
          "time": 168.42112,
          "velocity": 0.7559055118110236
        },
        {
          "duration": 0.31469310833333,
          "durationTicks": 287,
          "midi": 62,
          "name": "D4",
          "ticks": 153960,
          "time": 168.815857,
          "velocity": 0.7559055118110236
        },
        {
          "duration": 0.31469310833333,
          "durationTicks": 287,
          "midi": 65,
          "name": "F4",
          "ticks": 153960,
          "time": 168.815857,
          "velocity": 0.7559055118110236
        },
        {
          "duration": 0.31469310833333,
          "durationTicks": 287,
          "midi": 69,
          "name": "A4",
          "ticks": 153960,
          "time": 168.815857,
          "velocity": 0.7559055118110236
        },
        {
          "duration": 0.7489038083333242,
          "durationTicks": 683,
          "midi": 60,
          "name": "C4",
          "ticks": 154320,
          "time": 169.210594,
          "velocity": 0.7559055118110236
        },
        {
          "duration": 0.7489038083333242,
          "durationTicks": 683,
          "midi": 64,
          "name": "E4",
          "ticks": 154320,
          "time": 169.210594,
          "velocity": 0.7559055118110236
        },
        {
          "duration": 0.7489038083333242,
          "durationTicks": 683,
          "midi": 67,
          "name": "G4",
          "ticks": 154320,
          "time": 169.210594,
          "velocity": 0.7559055118110236
        },
        {
          "duration": 0.12390355833332478,
          "durationTicks": 113,
          "midi": 60,
          "name": "C4",
          "ticks": 155040,
          "time": 170.000068,
          "velocity": 0.7559055118110236
        },
        {
          "duration": 0.12390355833332478,
          "durationTicks": 113,
          "midi": 62,
          "name": "D4",
          "ticks": 155160,
          "time": 170.131647,
          "velocity": 0.7559055118110236
        },
        {
          "duration": 0.12390355833332478,
          "durationTicks": 113,
          "midi": 65,
          "name": "F4",
          "ticks": 155280,
          "time": 170.263226,
          "velocity": 0.7559055118110236
        },
        {
          "duration": 0.12390355833332478,
          "durationTicks": 113,
          "midi": 62,
          "name": "D4",
          "ticks": 155400,
          "time": 170.394805,
          "velocity": 0.7559055118110236
        },
        {
          "duration": 0.1962720083332954,
          "durationTicks": 179,
          "midi": 60,
          "name": "C4",
          "ticks": 155520,
          "time": 170.526384,
          "velocity": 0.7559055118110236
        },
        {
          "duration": 0.1962720083332954,
          "durationTicks": 179,
          "midi": 64,
          "name": "E4",
          "ticks": 155520,
          "time": 170.526384,
          "velocity": 0.7559055118110236
        },
        {
          "duration": 0.1962720083332954,
          "durationTicks": 179,
          "midi": 67,
          "name": "G4",
          "ticks": 155520,
          "time": 170.526384,
          "velocity": 0.7559055118110236
        },
        {
          "duration": 0.31469310833333,
          "durationTicks": 287,
          "midi": 60,
          "name": "C4",
          "ticks": 155880,
          "time": 170.921121,
          "velocity": 0.7559055118110236
        },
        {
          "duration": 0.31469310833333,
          "durationTicks": 287,
          "midi": 64,
          "name": "E4",
          "ticks": 155880,
          "time": 170.921121,
          "velocity": 0.7559055118110236
        },
        {
          "duration": 0.31469310833333,
          "durationTicks": 287,
          "midi": 67,
          "name": "G4",
          "ticks": 155880,
          "time": 170.921121,
          "velocity": 0.7559055118110236
        },
        {
          "duration": 0.37390365833334727,
          "durationTicks": 341,
          "midi": 57,
          "name": "A3",
          "ticks": 156240,
          "time": 171.315858,
          "velocity": 0.7559055118110236
        },
        {
          "duration": 0.37390365833334727,
          "durationTicks": 341,
          "midi": 62,
          "name": "D4",
          "ticks": 156240,
          "time": 171.315858,
          "velocity": 0.7559055118110236
        },
        {
          "duration": 0.37390365833334727,
          "durationTicks": 341,
          "midi": 65,
          "name": "F4",
          "ticks": 156240,
          "time": 171.315858,
          "velocity": 0.7559055118110236
        },
        {
          "duration": 0.12390355833332478,
          "durationTicks": 113,
          "midi": 64,
          "name": "E4",
          "ticks": 156600,
          "time": 171.71059499999998,
          "velocity": 0.7559055118110236
        },
        {
          "duration": 0.24890360833333602,
          "durationTicks": 227,
          "midi": 62,
          "name": "D4",
          "ticks": 156720,
          "time": 171.842174,
          "velocity": 0.7559055118110236
        },
        {
          "duration": 0.12390355833332478,
          "durationTicks": 113,
          "midi": 60,
          "name": "C4",
          "ticks": 156960,
          "time": 172.105332,
          "velocity": 0.7559055118110236
        },
        {
          "duration": 0.12390355833332478,
          "durationTicks": 113,
          "midi": 62,
          "name": "D4",
          "ticks": 157080,
          "time": 172.236911,
          "velocity": 0.7559055118110236
        },
        {
          "duration": 0.12390355833332478,
          "durationTicks": 113,
          "midi": 65,
          "name": "F4",
          "ticks": 157200,
          "time": 172.36849,
          "velocity": 0.7559055118110236
        },
        {
          "duration": 0.12390355833332478,
          "durationTicks": 113,
          "midi": 62,
          "name": "D4",
          "ticks": 157320,
          "time": 172.500069,
          "velocity": 0.7559055118110236
        },
        {
          "duration": 0.4989037083333585,
          "durationTicks": 455,
          "midi": 58,
          "name": "A#3",
          "ticks": 157440,
          "time": 172.63164799999998,
          "velocity": 0.7559055118110236
        },
        {
          "duration": 0.4989037083333585,
          "durationTicks": 455,
          "midi": 62,
          "name": "D4",
          "ticks": 157440,
          "time": 172.63164799999998,
          "velocity": 0.7559055118110236
        },
        {
          "duration": 0.4989037083333585,
          "durationTicks": 455,
          "midi": 65,
          "name": "F4",
          "ticks": 157440,
          "time": 172.63164799999998,
          "velocity": 0.7559055118110236
        },
        {
          "duration": 0.24890360833333602,
          "durationTicks": 227,
          "midi": 67,
          "name": "G4",
          "ticks": 157920,
          "time": 173.157964,
          "velocity": 0.7559055118110236
        },
        {
          "duration": 0.37390365833334727,
          "durationTicks": 341,
          "midi": 60,
          "name": "C4",
          "ticks": 158160,
          "time": 173.421122,
          "velocity": 0.7559055118110236
        },
        {
          "duration": 0.37390365833334727,
          "durationTicks": 341,
          "midi": 64,
          "name": "E4",
          "ticks": 158160,
          "time": 173.421122,
          "velocity": 0.7559055118110236
        },
        {
          "duration": 0.12390355833332478,
          "durationTicks": 113,
          "midi": 62,
          "name": "D4",
          "ticks": 158520,
          "time": 173.815859,
          "velocity": 0.7559055118110236
        },
        {
          "duration": 0.4989037083333301,
          "durationTicks": 455,
          "midi": 60,
          "name": "C4",
          "ticks": 158640,
          "time": 173.947438,
          "velocity": 0.7559055118110236
        },
        {
          "duration": 0.24890360833333602,
          "durationTicks": 227,
          "midi": 60,
          "name": "C4",
          "ticks": 159120,
          "time": 174.47375399999999,
          "velocity": 0.7559055118110236
        },
        {
          "duration": 0.26206150833331776,
          "durationTicks": 239,
          "midi": 57,
          "name": "A3",
          "ticks": 159360,
          "time": 174.736912,
          "velocity": 0.7559055118110236
        },
        {
          "duration": 0.26206150833331776,
          "durationTicks": 239,
          "midi": 60,
          "name": "C4",
          "ticks": 159360,
          "time": 174.736912,
          "velocity": 0.7559055118110236
        },
        {
          "duration": 0.26206150833331776,
          "durationTicks": 239,
          "midi": 67,
          "name": "G4",
          "ticks": 159360,
          "time": 174.736912,
          "velocity": 0.7559055118110236
        },
        {
          "duration": 0.9989039083333466,
          "durationTicks": 911,
          "midi": 57,
          "name": "A3",
          "ticks": 159840,
          "time": 175.263228,
          "velocity": 0.7559055118110236
        },
        {
          "duration": 0.9989039083333466,
          "durationTicks": 911,
          "midi": 62,
          "name": "D4",
          "ticks": 159840,
          "time": 175.263228,
          "velocity": 0.7559055118110236
        },
        {
          "duration": 0.9989039083333466,
          "durationTicks": 911,
          "midi": 65,
          "name": "F4",
          "ticks": 159840,
          "time": 175.263228,
          "velocity": 0.7559055118110236
        },
        {
          "duration": 0.12390355833332478,
          "durationTicks": 113,
          "midi": 60,
          "name": "C4",
          "ticks": 160800,
          "time": 176.31586,
          "velocity": 0.7559055118110236
        },
        {
          "duration": 0.12390355833332478,
          "durationTicks": 113,
          "midi": 62,
          "name": "D4",
          "ticks": 160920,
          "time": 176.447439,
          "velocity": 0.7559055118110236
        },
        {
          "duration": 0.12390355833332478,
          "durationTicks": 113,
          "midi": 65,
          "name": "F4",
          "ticks": 161040,
          "time": 176.579018,
          "velocity": 0.7559055118110236
        },
        {
          "duration": 0.12390355833332478,
          "durationTicks": 113,
          "midi": 62,
          "name": "D4",
          "ticks": 161160,
          "time": 176.710597,
          "velocity": 0.7559055118110236
        },
        {
          "duration": 0.1962720083333238,
          "durationTicks": 179,
          "midi": 62,
          "name": "D4",
          "ticks": 161280,
          "time": 176.842176,
          "velocity": 0.7559055118110236
        },
        {
          "duration": 0.1962720083333238,
          "durationTicks": 179,
          "midi": 65,
          "name": "F4",
          "ticks": 161280,
          "time": 176.842176,
          "velocity": 0.7559055118110236
        },
        {
          "duration": 0.1962720083333238,
          "durationTicks": 179,
          "midi": 69,
          "name": "A4",
          "ticks": 161280,
          "time": 176.842176,
          "velocity": 0.7559055118110236
        },
        {
          "duration": 0.31469310833333,
          "durationTicks": 287,
          "midi": 62,
          "name": "D4",
          "ticks": 161640,
          "time": 177.236913,
          "velocity": 0.7559055118110236
        },
        {
          "duration": 0.31469310833333,
          "durationTicks": 287,
          "midi": 65,
          "name": "F4",
          "ticks": 161640,
          "time": 177.236913,
          "velocity": 0.7559055118110236
        },
        {
          "duration": 0.31469310833333,
          "durationTicks": 287,
          "midi": 69,
          "name": "A4",
          "ticks": 161640,
          "time": 177.236913,
          "velocity": 0.7559055118110236
        },
        {
          "duration": 0.7489038083333242,
          "durationTicks": 683,
          "midi": 60,
          "name": "C4",
          "ticks": 162000,
          "time": 177.63165,
          "velocity": 0.7559055118110236
        },
        {
          "duration": 0.7489038083333242,
          "durationTicks": 683,
          "midi": 64,
          "name": "E4",
          "ticks": 162000,
          "time": 177.63165,
          "velocity": 0.7559055118110236
        },
        {
          "duration": 0.7489038083333242,
          "durationTicks": 683,
          "midi": 67,
          "name": "G4",
          "ticks": 162000,
          "time": 177.63165,
          "velocity": 0.7559055118110236
        },
        {
          "duration": 0.12390355833332478,
          "durationTicks": 113,
          "midi": 60,
          "name": "C4",
          "ticks": 162720,
          "time": 178.421124,
          "velocity": 0.7559055118110236
        },
        {
          "duration": 0.12390355833332478,
          "durationTicks": 113,
          "midi": 62,
          "name": "D4",
          "ticks": 162840,
          "time": 178.552703,
          "velocity": 0.7559055118110236
        },
        {
          "duration": 0.12390355833332478,
          "durationTicks": 113,
          "midi": 65,
          "name": "F4",
          "ticks": 162960,
          "time": 178.684282,
          "velocity": 0.7559055118110236
        },
        {
          "duration": 0.12390355833332478,
          "durationTicks": 113,
          "midi": 62,
          "name": "D4",
          "ticks": 163080,
          "time": 178.81586099999998,
          "velocity": 0.7559055118110236
        },
        {
          "duration": 0.4989037083333301,
          "durationTicks": 455,
          "midi": 60,
          "name": "C4",
          "ticks": 163200,
          "time": 178.94744,
          "velocity": 0.7559055118110236
        },
        {
          "duration": 0.4989037083333301,
          "durationTicks": 455,
          "midi": 72,
          "name": "C5",
          "ticks": 163200,
          "time": 178.94744,
          "velocity": 0.7559055118110236
        },
        {
          "duration": 0.2489036083333076,
          "durationTicks": 227,
          "midi": 64,
          "name": "E4",
          "ticks": 163680,
          "time": 179.473756,
          "velocity": 0.7559055118110236
        },
        {
          "duration": 0.37390365833334727,
          "durationTicks": 341,
          "midi": 65,
          "name": "F4",
          "ticks": 163920,
          "time": 179.73691399999998,
          "velocity": 0.7559055118110236
        },
        {
          "duration": 0.12390355833332478,
          "durationTicks": 113,
          "midi": 64,
          "name": "E4",
          "ticks": 164280,
          "time": 180.131651,
          "velocity": 0.7559055118110236
        },
        {
          "duration": 0.24890360833333602,
          "durationTicks": 227,
          "midi": 62,
          "name": "D4",
          "ticks": 164400,
          "time": 180.26323,
          "velocity": 0.7559055118110236
        },
        {
          "duration": 0.12390355833332478,
          "durationTicks": 113,
          "midi": 60,
          "name": "C4",
          "ticks": 164640,
          "time": 180.526388,
          "velocity": 0.7559055118110236
        },
        {
          "duration": 0.12390355833332478,
          "durationTicks": 113,
          "midi": 62,
          "name": "D4",
          "ticks": 164760,
          "time": 180.65796699999999,
          "velocity": 0.7559055118110236
        },
        {
          "duration": 0.12390355833332478,
          "durationTicks": 113,
          "midi": 65,
          "name": "F4",
          "ticks": 164880,
          "time": 180.789546,
          "velocity": 0.7559055118110236
        },
        {
          "duration": 0.12390355833332478,
          "durationTicks": 113,
          "midi": 62,
          "name": "D4",
          "ticks": 165000,
          "time": 180.921125,
          "velocity": 0.7559055118110236
        },
        {
          "duration": 0.4989037083333301,
          "durationTicks": 455,
          "midi": 58,
          "name": "A#3",
          "ticks": 165120,
          "time": 181.052704,
          "velocity": 0.7559055118110236
        },
        {
          "duration": 0.4989037083333301,
          "durationTicks": 455,
          "midi": 62,
          "name": "D4",
          "ticks": 165120,
          "time": 181.052704,
          "velocity": 0.7559055118110236
        },
        {
          "duration": 0.4989037083333301,
          "durationTicks": 455,
          "midi": 65,
          "name": "F4",
          "ticks": 165120,
          "time": 181.052704,
          "velocity": 0.7559055118110236
        },
        {
          "duration": 0.24890360833333602,
          "durationTicks": 227,
          "midi": 67,
          "name": "G4",
          "ticks": 165600,
          "time": 181.57901999999999,
          "velocity": 0.7559055118110236
        },
        {
          "duration": 0.37390365833334727,
          "durationTicks": 341,
          "midi": 60,
          "name": "C4",
          "ticks": 165840,
          "time": 181.842178,
          "velocity": 0.7559055118110236
        },
        {
          "duration": 0.37390365833334727,
          "durationTicks": 341,
          "midi": 64,
          "name": "E4",
          "ticks": 165840,
          "time": 181.842178,
          "velocity": 0.7559055118110236
        },
        {
          "duration": 0.12390355833332478,
          "durationTicks": 113,
          "midi": 62,
          "name": "D4",
          "ticks": 166200,
          "time": 182.23691499999998,
          "velocity": 0.7559055118110236
        },
        {
          "duration": 0.4989037083333301,
          "durationTicks": 455,
          "midi": 60,
          "name": "C4",
          "ticks": 166320,
          "time": 182.368494,
          "velocity": 0.7559055118110236
        },
        {
          "duration": 0.2489036083333076,
          "durationTicks": 227,
          "midi": 60,
          "name": "C4",
          "ticks": 166800,
          "time": 182.89481,
          "velocity": 0.7559055118110236
        },
        {
          "duration": 0.26206150833331776,
          "durationTicks": 239,
          "midi": 57,
          "name": "A3",
          "ticks": 167040,
          "time": 183.15796799999998,
          "velocity": 0.7559055118110236
        },
        {
          "duration": 0.26206150833331776,
          "durationTicks": 239,
          "midi": 60,
          "name": "C4",
          "ticks": 167040,
          "time": 183.15796799999998,
          "velocity": 0.7559055118110236
        },
        {
          "duration": 0.26206150833331776,
          "durationTicks": 239,
          "midi": 67,
          "name": "G4",
          "ticks": 167040,
          "time": 183.15796799999998,
          "velocity": 0.7559055118110236
        },
        {
          "duration": 0.9989039083333466,
          "durationTicks": 911,
          "midi": 57,
          "name": "A3",
          "ticks": 167520,
          "time": 183.684284,
          "velocity": 0.7559055118110236
        },
        {
          "duration": 0.9989039083333466,
          "durationTicks": 911,
          "midi": 62,
          "name": "D4",
          "ticks": 167520,
          "time": 183.684284,
          "velocity": 0.7559055118110236
        },
        {
          "duration": 0.9989039083333466,
          "durationTicks": 911,
          "midi": 65,
          "name": "F4",
          "ticks": 167520,
          "time": 183.684284,
          "velocity": 0.7559055118110236
        },
        {
          "duration": 0.12390355833332478,
          "durationTicks": 113,
          "midi": 60,
          "name": "C4",
          "ticks": 168480,
          "time": 184.736916,
          "velocity": 0.7559055118110236
        },
        {
          "duration": 0.12390355833332478,
          "durationTicks": 113,
          "midi": 62,
          "name": "D4",
          "ticks": 168600,
          "time": 184.868495,
          "velocity": 0.7559055118110236
        },
        {
          "duration": 0.12390355833332478,
          "durationTicks": 113,
          "midi": 65,
          "name": "F4",
          "ticks": 168720,
          "time": 185.00007399999998,
          "velocity": 0.7559055118110236
        },
        {
          "duration": 0.12390355833332478,
          "durationTicks": 113,
          "midi": 62,
          "name": "D4",
          "ticks": 168840,
          "time": 185.131653,
          "velocity": 0.7559055118110236
        },
        {
          "duration": 0.1962720083333238,
          "durationTicks": 179,
          "midi": 62,
          "name": "D4",
          "ticks": 168960,
          "time": 185.263232,
          "velocity": 0.7559055118110236
        },
        {
          "duration": 0.1962720083333238,
          "durationTicks": 179,
          "midi": 65,
          "name": "F4",
          "ticks": 168960,
          "time": 185.263232,
          "velocity": 0.7559055118110236
        },
        {
          "duration": 0.1962720083333238,
          "durationTicks": 179,
          "midi": 69,
          "name": "A4",
          "ticks": 168960,
          "time": 185.263232,
          "velocity": 0.7559055118110236
        },
        {
          "duration": 0.31469310833333,
          "durationTicks": 287,
          "midi": 62,
          "name": "D4",
          "ticks": 169320,
          "time": 185.657969,
          "velocity": 0.7559055118110236
        },
        {
          "duration": 0.31469310833333,
          "durationTicks": 287,
          "midi": 65,
          "name": "F4",
          "ticks": 169320,
          "time": 185.657969,
          "velocity": 0.7559055118110236
        },
        {
          "duration": 0.31469310833333,
          "durationTicks": 287,
          "midi": 69,
          "name": "A4",
          "ticks": 169320,
          "time": 185.657969,
          "velocity": 0.7559055118110236
        },
        {
          "duration": 0.7489038083333242,
          "durationTicks": 683,
          "midi": 60,
          "name": "C4",
          "ticks": 169680,
          "time": 186.052706,
          "velocity": 0.7559055118110236
        },
        {
          "duration": 0.7489038083333242,
          "durationTicks": 683,
          "midi": 64,
          "name": "E4",
          "ticks": 169680,
          "time": 186.052706,
          "velocity": 0.7559055118110236
        },
        {
          "duration": 0.7489038083333242,
          "durationTicks": 683,
          "midi": 67,
          "name": "G4",
          "ticks": 169680,
          "time": 186.052706,
          "velocity": 0.7559055118110236
        },
        {
          "duration": 0.12390355833332478,
          "durationTicks": 113,
          "midi": 60,
          "name": "C4",
          "ticks": 170400,
          "time": 186.84217999999998,
          "velocity": 0.7559055118110236
        },
        {
          "duration": 0.12390355833332478,
          "durationTicks": 113,
          "midi": 62,
          "name": "D4",
          "ticks": 170520,
          "time": 186.973759,
          "velocity": 0.7559055118110236
        },
        {
          "duration": 0.12390355833332478,
          "durationTicks": 113,
          "midi": 65,
          "name": "F4",
          "ticks": 170640,
          "time": 187.105338,
          "velocity": 0.7559055118110236
        },
        {
          "duration": 0.12390355833332478,
          "durationTicks": 113,
          "midi": 62,
          "name": "D4",
          "ticks": 170760,
          "time": 187.236917,
          "velocity": 0.7559055118110236
        },
        {
          "duration": 0.1962720083333238,
          "durationTicks": 179,
          "midi": 60,
          "name": "C4",
          "ticks": 170880,
          "time": 187.368496,
          "velocity": 0.7559055118110236
        },
        {
          "duration": 0.1962720083333238,
          "durationTicks": 179,
          "midi": 64,
          "name": "E4",
          "ticks": 170880,
          "time": 187.368496,
          "velocity": 0.7559055118110236
        },
        {
          "duration": 0.1962720083333238,
          "durationTicks": 179,
          "midi": 67,
          "name": "G4",
          "ticks": 170880,
          "time": 187.368496,
          "velocity": 0.7559055118110236
        },
        {
          "duration": 0.31469310833333,
          "durationTicks": 287,
          "midi": 60,
          "name": "C4",
          "ticks": 171240,
          "time": 187.76323299999999,
          "velocity": 0.7559055118110236
        },
        {
          "duration": 0.31469310833333,
          "durationTicks": 287,
          "midi": 64,
          "name": "E4",
          "ticks": 171240,
          "time": 187.76323299999999,
          "velocity": 0.7559055118110236
        },
        {
          "duration": 0.31469310833333,
          "durationTicks": 287,
          "midi": 67,
          "name": "G4",
          "ticks": 171240,
          "time": 187.76323299999999,
          "velocity": 0.7559055118110236
        },
        {
          "duration": 0.37390365833331884,
          "durationTicks": 341,
          "midi": 57,
          "name": "A3",
          "ticks": 171600,
          "time": 188.15797,
          "velocity": 0.7559055118110236
        },
        {
          "duration": 0.37390365833331884,
          "durationTicks": 341,
          "midi": 62,
          "name": "D4",
          "ticks": 171600,
          "time": 188.15797,
          "velocity": 0.7559055118110236
        },
        {
          "duration": 0.37390365833331884,
          "durationTicks": 341,
          "midi": 65,
          "name": "F4",
          "ticks": 171600,
          "time": 188.15797,
          "velocity": 0.7559055118110236
        },
        {
          "duration": 0.12390355833332478,
          "durationTicks": 113,
          "midi": 64,
          "name": "E4",
          "ticks": 171960,
          "time": 188.552707,
          "velocity": 0.7559055118110236
        },
        {
          "duration": 0.24890360833333602,
          "durationTicks": 227,
          "midi": 62,
          "name": "D4",
          "ticks": 172080,
          "time": 188.684286,
          "velocity": 0.7559055118110236
        },
        {
          "duration": 0.12390355833332478,
          "durationTicks": 113,
          "midi": 60,
          "name": "C4",
          "ticks": 172320,
          "time": 188.947444,
          "velocity": 0.7559055118110236
        },
        {
          "duration": 0.12390355833332478,
          "durationTicks": 113,
          "midi": 62,
          "name": "D4",
          "ticks": 172440,
          "time": 189.079023,
          "velocity": 0.7559055118110236
        },
        {
          "duration": 0.12390355833332478,
          "durationTicks": 113,
          "midi": 65,
          "name": "F4",
          "ticks": 172560,
          "time": 189.210602,
          "velocity": 0.7559055118110236
        },
        {
          "duration": 0.12390355833332478,
          "durationTicks": 113,
          "midi": 62,
          "name": "D4",
          "ticks": 172680,
          "time": 189.34218099999998,
          "velocity": 0.7559055118110236
        },
        {
          "duration": 0.4989037083333301,
          "durationTicks": 455,
          "midi": 58,
          "name": "A#3",
          "ticks": 172800,
          "time": 189.47376,
          "velocity": 0.7559055118110236
        },
        {
          "duration": 0.4989037083333301,
          "durationTicks": 455,
          "midi": 62,
          "name": "D4",
          "ticks": 172800,
          "time": 189.47376,
          "velocity": 0.7559055118110236
        },
        {
          "duration": 0.4989037083333301,
          "durationTicks": 455,
          "midi": 65,
          "name": "F4",
          "ticks": 172800,
          "time": 189.47376,
          "velocity": 0.7559055118110236
        },
        {
          "duration": 0.2489036083333076,
          "durationTicks": 227,
          "midi": 67,
          "name": "G4",
          "ticks": 173280,
          "time": 190.000076,
          "velocity": 0.7559055118110236
        },
        {
          "duration": 0.37390365833334727,
          "durationTicks": 341,
          "midi": 60,
          "name": "C4",
          "ticks": 173520,
          "time": 190.26323399999998,
          "velocity": 0.7559055118110236
        },
        {
          "duration": 0.37390365833334727,
          "durationTicks": 341,
          "midi": 64,
          "name": "E4",
          "ticks": 173520,
          "time": 190.26323399999998,
          "velocity": 0.7559055118110236
        },
        {
          "duration": 0.12390355833332478,
          "durationTicks": 113,
          "midi": 62,
          "name": "D4",
          "ticks": 173880,
          "time": 190.657971,
          "velocity": 0.7559055118110236
        },
        {
          "duration": 0.4989037083333585,
          "durationTicks": 455,
          "midi": 60,
          "name": "C4",
          "ticks": 174000,
          "time": 190.78955,
          "velocity": 0.7559055118110236
        },
        {
          "duration": 0.24890360833333602,
          "durationTicks": 227,
          "midi": 60,
          "name": "C4",
          "ticks": 174480,
          "time": 191.315866,
          "velocity": 0.7559055118110236
        },
        {
          "duration": 0.26206150833331776,
          "durationTicks": 239,
          "midi": 57,
          "name": "A3",
          "ticks": 174720,
          "time": 191.579024,
          "velocity": 0.7559055118110236
        },
        {
          "duration": 0.26206150833331776,
          "durationTicks": 239,
          "midi": 60,
          "name": "C4",
          "ticks": 174720,
          "time": 191.579024,
          "velocity": 0.7559055118110236
        },
        {
          "duration": 0.26206150833331776,
          "durationTicks": 239,
          "midi": 67,
          "name": "G4",
          "ticks": 174720,
          "time": 191.579024,
          "velocity": 0.7559055118110236
        },
        {
          "duration": 0.9989039083333466,
          "durationTicks": 911,
          "midi": 57,
          "name": "A3",
          "ticks": 175200,
          "time": 192.10533999999998,
          "velocity": 0.7559055118110236
        },
        {
          "duration": 0.9989039083333466,
          "durationTicks": 911,
          "midi": 62,
          "name": "D4",
          "ticks": 175200,
          "time": 192.10533999999998,
          "velocity": 0.7559055118110236
        },
        {
          "duration": 0.9989039083333466,
          "durationTicks": 911,
          "midi": 65,
          "name": "F4",
          "ticks": 175200,
          "time": 192.10533999999998,
          "velocity": 0.7559055118110236
        },
        {
          "duration": 0.12390355833332478,
          "durationTicks": 113,
          "midi": 60,
          "name": "C4",
          "ticks": 176160,
          "time": 193.157972,
          "velocity": 0.7559055118110236
        },
        {
          "duration": 0.12390355833332478,
          "durationTicks": 113,
          "midi": 62,
          "name": "D4",
          "ticks": 176280,
          "time": 193.289551,
          "velocity": 0.7559055118110236
        },
        {
          "duration": 0.12390355833332478,
          "durationTicks": 113,
          "midi": 65,
          "name": "F4",
          "ticks": 176400,
          "time": 193.42113,
          "velocity": 0.7559055118110236
        },
        {
          "duration": 0.12390355833332478,
          "durationTicks": 113,
          "midi": 62,
          "name": "D4",
          "ticks": 176520,
          "time": 193.552709,
          "velocity": 0.7559055118110236
        },
        {
          "duration": 0.1962720083332954,
          "durationTicks": 179,
          "midi": 62,
          "name": "D4",
          "ticks": 176640,
          "time": 193.684288,
          "velocity": 0.7559055118110236
        },
        {
          "duration": 0.1962720083332954,
          "durationTicks": 179,
          "midi": 65,
          "name": "F4",
          "ticks": 176640,
          "time": 193.684288,
          "velocity": 0.7559055118110236
        },
        {
          "duration": 0.1962720083332954,
          "durationTicks": 179,
          "midi": 69,
          "name": "A4",
          "ticks": 176640,
          "time": 193.684288,
          "velocity": 0.7559055118110236
        },
        {
          "duration": 0.31469310833333,
          "durationTicks": 287,
          "midi": 62,
          "name": "D4",
          "ticks": 177000,
          "time": 194.079025,
          "velocity": 0.7559055118110236
        },
        {
          "duration": 0.31469310833333,
          "durationTicks": 287,
          "midi": 65,
          "name": "F4",
          "ticks": 177000,
          "time": 194.079025,
          "velocity": 0.7559055118110236
        },
        {
          "duration": 0.31469310833333,
          "durationTicks": 287,
          "midi": 69,
          "name": "A4",
          "ticks": 177000,
          "time": 194.079025,
          "velocity": 0.7559055118110236
        },
        {
          "duration": 0.7489038083333242,
          "durationTicks": 683,
          "midi": 60,
          "name": "C4",
          "ticks": 177360,
          "time": 194.473762,
          "velocity": 0.7559055118110236
        },
        {
          "duration": 0.7489038083333242,
          "durationTicks": 683,
          "midi": 64,
          "name": "E4",
          "ticks": 177360,
          "time": 194.473762,
          "velocity": 0.7559055118110236
        },
        {
          "duration": 0.7489038083333242,
          "durationTicks": 683,
          "midi": 67,
          "name": "G4",
          "ticks": 177360,
          "time": 194.473762,
          "velocity": 0.7559055118110236
        },
        {
          "duration": 0.12390355833332478,
          "durationTicks": 113,
          "midi": 60,
          "name": "C4",
          "ticks": 178080,
          "time": 195.263236,
          "velocity": 0.7559055118110236
        },
        {
          "duration": 0.12390355833332478,
          "durationTicks": 113,
          "midi": 62,
          "name": "D4",
          "ticks": 178200,
          "time": 195.394815,
          "velocity": 0.7559055118110236
        },
        {
          "duration": 0.12390355833332478,
          "durationTicks": 113,
          "midi": 65,
          "name": "F4",
          "ticks": 178320,
          "time": 195.52639399999998,
          "velocity": 0.7559055118110236
        },
        {
          "duration": 0.12390355833332478,
          "durationTicks": 113,
          "midi": 62,
          "name": "D4",
          "ticks": 178440,
          "time": 195.657973,
          "velocity": 0.7559055118110236
        },
        {
          "duration": 0.4989037083333585,
          "durationTicks": 455,
          "midi": 60,
          "name": "C4",
          "ticks": 178560,
          "time": 195.789552,
          "velocity": 0.7559055118110236
        },
        {
          "duration": 0.4989037083333585,
          "durationTicks": 455,
          "midi": 72,
          "name": "C5",
          "ticks": 178560,
          "time": 195.789552,
          "velocity": 0.7559055118110236
        },
        {
          "duration": 0.24890360833333602,
          "durationTicks": 227,
          "midi": 64,
          "name": "E4",
          "ticks": 179040,
          "time": 196.315868,
          "velocity": 0.7559055118110236
        },
        {
          "duration": 0.37390365833334727,
          "durationTicks": 341,
          "midi": 65,
          "name": "F4",
          "ticks": 179280,
          "time": 196.579026,
          "velocity": 0.7559055118110236
        },
        {
          "duration": 0.12390355833332478,
          "durationTicks": 113,
          "midi": 64,
          "name": "E4",
          "ticks": 179640,
          "time": 196.973763,
          "velocity": 0.7559055118110236
        },
        {
          "duration": 0.2489036083333076,
          "durationTicks": 227,
          "midi": 62,
          "name": "D4",
          "ticks": 179760,
          "time": 197.105342,
          "velocity": 0.7559055118110236
        },
        {
          "duration": 0.12390355833332478,
          "durationTicks": 113,
          "midi": 60,
          "name": "C4",
          "ticks": 180000,
          "time": 197.36849999999998,
          "velocity": 0.7559055118110236
        },
        {
          "duration": 0.12390355833332478,
          "durationTicks": 113,
          "midi": 62,
          "name": "D4",
          "ticks": 180120,
          "time": 197.500079,
          "velocity": 0.7559055118110236
        },
        {
          "duration": 0.12390355833332478,
          "durationTicks": 113,
          "midi": 65,
          "name": "F4",
          "ticks": 180240,
          "time": 197.631658,
          "velocity": 0.7559055118110236
        },
        {
          "duration": 0.12390355833332478,
          "durationTicks": 113,
          "midi": 62,
          "name": "D4",
          "ticks": 180360,
          "time": 197.763237,
          "velocity": 0.7559055118110236
        },
        {
          "duration": 0.4989037083333585,
          "durationTicks": 455,
          "midi": 58,
          "name": "A#3",
          "ticks": 180480,
          "time": 197.894816,
          "velocity": 0.7559055118110236
        },
        {
          "duration": 0.4989037083333585,
          "durationTicks": 455,
          "midi": 62,
          "name": "D4",
          "ticks": 180480,
          "time": 197.894816,
          "velocity": 0.7559055118110236
        },
        {
          "duration": 0.4989037083333585,
          "durationTicks": 455,
          "midi": 65,
          "name": "F4",
          "ticks": 180480,
          "time": 197.894816,
          "velocity": 0.7559055118110236
        },
        {
          "duration": 0.24890360833333602,
          "durationTicks": 227,
          "midi": 67,
          "name": "G4",
          "ticks": 180960,
          "time": 198.421132,
          "velocity": 0.7559055118110236
        },
        {
          "duration": 0.37390365833331884,
          "durationTicks": 341,
          "midi": 60,
          "name": "C4",
          "ticks": 181200,
          "time": 198.68429,
          "velocity": 0.7559055118110236
        },
        {
          "duration": 0.37390365833331884,
          "durationTicks": 341,
          "midi": 64,
          "name": "E4",
          "ticks": 181200,
          "time": 198.68429,
          "velocity": 0.7559055118110236
        },
        {
          "duration": 0.12390355833332478,
          "durationTicks": 113,
          "midi": 62,
          "name": "D4",
          "ticks": 181560,
          "time": 199.079027,
          "velocity": 0.7559055118110236
        },
        {
          "duration": 0.4989037083333585,
          "durationTicks": 455,
          "midi": 60,
          "name": "C4",
          "ticks": 181680,
          "time": 199.21060599999998,
          "velocity": 0.7559055118110236
        },
        {
          "duration": 0.24890360833333602,
          "durationTicks": 227,
          "midi": 60,
          "name": "C4",
          "ticks": 182160,
          "time": 199.736922,
          "velocity": 0.7559055118110236
        },
        {
          "duration": 0.26206150833331776,
          "durationTicks": 239,
          "midi": 57,
          "name": "A3",
          "ticks": 182400,
          "time": 200.00008,
          "velocity": 0.7559055118110236
        },
        {
          "duration": 0.26206150833331776,
          "durationTicks": 239,
          "midi": 60,
          "name": "C4",
          "ticks": 182400,
          "time": 200.00008,
          "velocity": 0.7559055118110236
        },
        {
          "duration": 0.26206150833331776,
          "durationTicks": 239,
          "midi": 67,
          "name": "G4",
          "ticks": 182400,
          "time": 200.00008,
          "velocity": 0.7559055118110236
        },
        {
          "duration": 0.9989039083333182,
          "durationTicks": 911,
          "midi": 57,
          "name": "A3",
          "ticks": 182880,
          "time": 200.526396,
          "velocity": 0.7559055118110236
        },
        {
          "duration": 0.9989039083333182,
          "durationTicks": 911,
          "midi": 62,
          "name": "D4",
          "ticks": 182880,
          "time": 200.526396,
          "velocity": 0.7559055118110236
        },
        {
          "duration": 0.9989039083333182,
          "durationTicks": 911,
          "midi": 65,
          "name": "F4",
          "ticks": 182880,
          "time": 200.526396,
          "velocity": 0.7559055118110236
        }
      ],
      "endOfTrackTicks": 183792
    },
    {
      "channel": 0,
      "controlChanges": {},
      "pitchBends": [],
      "instrument": {
        "family": "piano",
        "number": 0,
        "name": "acoustic grand piano"
      },
      "name": "",
      "notes": [
        {
          "duration": 0.7489038083333334,
          "durationTicks": 683,
          "midi": 34,
          "name": "A#1",
          "ticks": 0,
          "time": 0,
          "velocity": 0.6299212598425197
        },
        {
          "duration": 0.4989037083333334,
          "durationTicks": 455,
          "midi": 46,
          "name": "A#2",
          "ticks": 240,
          "time": 0.263158,
          "velocity": 0.6299212598425197
        },
        {
          "duration": 1.2489040083333334,
          "durationTicks": 1139,
          "midi": 36,
          "name": "C2",
          "ticks": 720,
          "time": 0.789474,
          "velocity": 0.6299212598425197
        },
        {
          "duration": 0.24890360833333336,
          "durationTicks": 227,
          "midi": 48,
          "name": "C3",
          "ticks": 1200,
          "time": 1.31579,
          "velocity": 0.6299212598425197
        },
        {
          "duration": 0.24890360833333358,
          "durationTicks": 227,
          "midi": 48,
          "name": "C3",
          "ticks": 1680,
          "time": 1.842106,
          "velocity": 0.6299212598425197
        },
        {
          "duration": 0.7489038083333335,
          "durationTicks": 683,
          "midi": 33,
          "name": "A1",
          "ticks": 1920,
          "time": 2.105264,
          "velocity": 0.6299212598425197
        },
        {
          "duration": 0.49890370833333364,
          "durationTicks": 455,
          "midi": 45,
          "name": "A2",
          "ticks": 2160,
          "time": 2.368422,
          "velocity": 0.6299212598425197
        },
        {
          "duration": 1.2489040083333336,
          "durationTicks": 1139,
          "midi": 34,
          "name": "A#1",
          "ticks": 2640,
          "time": 2.8947380000000003,
          "velocity": 0.6299212598425197
        },
        {
          "duration": 0.24890360833333336,
          "durationTicks": 227,
          "midi": 50,
          "name": "D3",
          "ticks": 3120,
          "time": 3.421054,
          "velocity": 0.6299212598425197
        },
        {
          "duration": 0.24890360833333336,
          "durationTicks": 227,
          "midi": 50,
          "name": "D3",
          "ticks": 3600,
          "time": 3.9473700000000003,
          "velocity": 0.6299212598425197
        },
        {
          "duration": 0.7489038083333339,
          "durationTicks": 683,
          "midi": 34,
          "name": "A#1",
          "ticks": 3840,
          "time": 4.210528,
          "velocity": 0.6299212598425197
        },
        {
          "duration": 0.49890370833333364,
          "durationTicks": 455,
          "midi": 46,
          "name": "A#2",
          "ticks": 4080,
          "time": 4.473686,
          "velocity": 0.6299212598425197
        },
        {
          "duration": 1.2489040083333336,
          "durationTicks": 1139,
          "midi": 36,
          "name": "C2",
          "ticks": 4560,
          "time": 5.000002,
          "velocity": 0.6299212598425197
        },
        {
          "duration": 0.24890360833333336,
          "durationTicks": 227,
          "midi": 48,
          "name": "C3",
          "ticks": 5040,
          "time": 5.526318,
          "velocity": 0.6299212598425197
        },
        {
          "duration": 0.24890360833333336,
          "durationTicks": 227,
          "midi": 48,
          "name": "C3",
          "ticks": 5520,
          "time": 6.052634,
          "velocity": 0.6299212598425197
        },
        {
          "duration": 0.7489038083333339,
          "durationTicks": 683,
          "midi": 34,
          "name": "A#1",
          "ticks": 5760,
          "time": 6.315792,
          "velocity": 0.6299212598425197
        },
        {
          "duration": 0.49890370833333364,
          "durationTicks": 455,
          "midi": 46,
          "name": "A#2",
          "ticks": 6000,
          "time": 6.57895,
          "velocity": 0.6299212598425197
        },
        {
          "duration": 1.2489040083333336,
          "durationTicks": 1139,
          "midi": 36,
          "name": "C2",
          "ticks": 6480,
          "time": 7.105266,
          "velocity": 0.6299212598425197
        },
        {
          "duration": 0.24890360833333336,
          "durationTicks": 227,
          "midi": 48,
          "name": "C3",
          "ticks": 6960,
          "time": 7.631582,
          "velocity": 0.6299212598425197
        },
        {
          "duration": 0.24890360833333425,
          "durationTicks": 227,
          "midi": 48,
          "name": "C3",
          "ticks": 7440,
          "time": 8.157898,
          "velocity": 0.6299212598425197
        },
        {
          "duration": 0.748903808333333,
          "durationTicks": 683,
          "midi": 34,
          "name": "A#1",
          "ticks": 7680,
          "time": 8.421056,
          "velocity": 0.6299212598425197
        },
        {
          "duration": 0.49890370833333364,
          "durationTicks": 455,
          "midi": 46,
          "name": "A#2",
          "ticks": 7920,
          "time": 8.684214,
          "velocity": 0.6299212598425197
        },
        {
          "duration": 1.2489040083333336,
          "durationTicks": 1139,
          "midi": 36,
          "name": "C2",
          "ticks": 8400,
          "time": 9.21053,
          "velocity": 0.6299212598425197
        },
        {
          "duration": 0.24890360833333425,
          "durationTicks": 227,
          "midi": 48,
          "name": "C3",
          "ticks": 8880,
          "time": 9.736846,
          "velocity": 0.6299212598425197
        },
        {
          "duration": 0.24890360833333425,
          "durationTicks": 227,
          "midi": 48,
          "name": "C3",
          "ticks": 9360,
          "time": 10.263162,
          "velocity": 0.6299212598425197
        },
        {
          "duration": 0.748903808333333,
          "durationTicks": 683,
          "midi": 33,
          "name": "A1",
          "ticks": 9600,
          "time": 10.52632,
          "velocity": 0.6299212598425197
        },
        {
          "duration": 0.49890370833333364,
          "durationTicks": 455,
          "midi": 45,
          "name": "A2",
          "ticks": 9840,
          "time": 10.789477999999999,
          "velocity": 0.6299212598425197
        },
        {
          "duration": 1.2489040083333336,
          "durationTicks": 1139,
          "midi": 34,
          "name": "A#1",
          "ticks": 10320,
          "time": 11.315794,
          "velocity": 0.6299212598425197
        },
        {
          "duration": 0.24890360833333425,
          "durationTicks": 227,
          "midi": 50,
          "name": "D3",
          "ticks": 10800,
          "time": 11.84211,
          "velocity": 0.6299212598425197
        },
        {
          "duration": 0.24890360833333425,
          "durationTicks": 227,
          "midi": 50,
          "name": "D3",
          "ticks": 11280,
          "time": 12.368426,
          "velocity": 0.6299212598425197
        },
        {
          "duration": 0.7489038083333348,
          "durationTicks": 683,
          "midi": 34,
          "name": "A#1",
          "ticks": 11520,
          "time": 12.631584,
          "velocity": 0.6299212598425197
        },
        {
          "duration": 0.49890370833333364,
          "durationTicks": 455,
          "midi": 46,
          "name": "A#2",
          "ticks": 11760,
          "time": 12.894742,
          "velocity": 0.6299212598425197
        },
        {
          "duration": 1.2489040083333336,
          "durationTicks": 1139,
          "midi": 36,
          "name": "C2",
          "ticks": 12240,
          "time": 13.421058,
          "velocity": 0.6299212598425197
        },
        {
          "duration": 0.24890360833333247,
          "durationTicks": 227,
          "midi": 48,
          "name": "C3",
          "ticks": 12720,
          "time": 13.947374,
          "velocity": 0.6299212598425197
        },
        {
          "duration": 0.24890360833333247,
          "durationTicks": 227,
          "midi": 48,
          "name": "C3",
          "ticks": 13200,
          "time": 14.473690000000001,
          "velocity": 0.6299212598425197
        },
        {
          "duration": 0.748903808333333,
          "durationTicks": 683,
          "midi": 33,
          "name": "A1",
          "ticks": 13440,
          "time": 14.736848,
          "velocity": 0.6299212598425197
        },
        {
          "duration": 0.49890370833333364,
          "durationTicks": 455,
          "midi": 45,
          "name": "A2",
          "ticks": 13680,
          "time": 15.000005999999999,
          "velocity": 0.6299212598425197
        },
        {
          "duration": 1.2489040083333336,
          "durationTicks": 1139,
          "midi": 34,
          "name": "A#1",
          "ticks": 14160,
          "time": 15.526322,
          "velocity": 0.6299212598425197
        },
        {
          "duration": 0.24890360833333247,
          "durationTicks": 227,
          "midi": 50,
          "name": "D3",
          "ticks": 14640,
          "time": 16.052638,
          "velocity": 0.6299212598425197
        },
        {
          "duration": 0.24890360833333247,
          "durationTicks": 227,
          "midi": 50,
          "name": "D3",
          "ticks": 15120,
          "time": 16.578954,
          "velocity": 0.6299212598425197
        },
        {
          "duration": 1.748904208333336,
          "durationTicks": 1595,
          "midi": 34,
          "name": "A#1",
          "ticks": 15360,
          "time": 16.842112,
          "velocity": 0.6299212598425197
        },
        {
          "duration": 0.24890360833333247,
          "durationTicks": 227,
          "midi": 41,
          "name": "F2",
          "ticks": 15600,
          "time": 17.10527,
          "velocity": 0.6299212598425197
        },
        {
          "duration": 1.2489040083333336,
          "durationTicks": 1139,
          "midi": 46,
          "name": "A#2",
          "ticks": 15840,
          "time": 17.368428,
          "velocity": 0.6299212598425197
        },
        {
          "duration": 0.9989039083333324,
          "durationTicks": 911,
          "midi": 36,
          "name": "C2",
          "ticks": 17040,
          "time": 18.684218,
          "velocity": 0.6299212598425197
        },
        {
          "duration": 0.9989039083333324,
          "durationTicks": 911,
          "midi": 48,
          "name": "C3",
          "ticks": 17040,
          "time": 18.684218,
          "velocity": 0.6299212598425197
        },
        {
          "duration": 0.24890360833333247,
          "durationTicks": 227,
          "midi": 36,
          "name": "C2",
          "ticks": 18000,
          "time": 19.73685,
          "velocity": 0.6299212598425197
        },
        {
          "duration": 0.24890360833333247,
          "durationTicks": 227,
          "midi": 48,
          "name": "C3",
          "ticks": 18000,
          "time": 19.73685,
          "velocity": 0.6299212598425197
        },
        {
          "duration": 0.49890370833333364,
          "durationTicks": 455,
          "midi": 36,
          "name": "C2",
          "ticks": 18240,
          "time": 20.000008,
          "velocity": 0.6299212598425197
        },
        {
          "duration": 0.49890370833333364,
          "durationTicks": 455,
          "midi": 48,
          "name": "C3",
          "ticks": 18240,
          "time": 20.000008,
          "velocity": 0.6299212598425197
        },
        {
          "duration": 0.4989037083333301,
          "durationTicks": 455,
          "midi": 35,
          "name": "B1",
          "ticks": 18720,
          "time": 20.526324000000002,
          "velocity": 0.6299212598425197
        },
        {
          "duration": 0.4989037083333301,
          "durationTicks": 455,
          "midi": 47,
          "name": "B2",
          "ticks": 18720,
          "time": 20.526324000000002,
          "velocity": 0.6299212598425197
        },
        {
          "duration": 1.4989041083333312,
          "durationTicks": 1367,
          "midi": 34,
          "name": "A#1",
          "ticks": 19200,
          "time": 21.05264,
          "velocity": 0.6299212598425197
        },
        {
          "duration": 0.24890360833333247,
          "durationTicks": 227,
          "midi": 41,
          "name": "F2",
          "ticks": 19440,
          "time": 21.315798,
          "velocity": 0.6299212598425197
        },
        {
          "duration": 0.998903908333336,
          "durationTicks": 911,
          "midi": 46,
          "name": "A#2",
          "ticks": 19680,
          "time": 21.578955999999998,
          "velocity": 0.6299212598425197
        },
        {
          "duration": 0.49890370833333364,
          "durationTicks": 455,
          "midi": 34,
          "name": "A#1",
          "ticks": 20640,
          "time": 22.631588,
          "velocity": 0.6299212598425197
        },
        {
          "duration": 0.49890370833333364,
          "durationTicks": 455,
          "midi": 46,
          "name": "A#2",
          "ticks": 20640,
          "time": 22.631588,
          "velocity": 0.6299212598425197
        },
        {
          "duration": 0.26206150833333197,
          "durationTicks": 239,
          "midi": 36,
          "name": "C2",
          "ticks": 21120,
          "time": 23.157904000000002,
          "velocity": 0.7559055118110236
        },
        {
          "duration": 0.26206150833333197,
          "durationTicks": 239,
          "midi": 48,
          "name": "C3",
          "ticks": 21120,
          "time": 23.157904000000002,
          "velocity": 0.7559055118110236
        },
        {
          "duration": 1.4989041083333348,
          "durationTicks": 1367,
          "midi": 34,
          "name": "A#1",
          "ticks": 23040,
          "time": 25.263168,
          "velocity": 0.6299212598425197
        },
        {
          "duration": 0.24890360833333602,
          "durationTicks": 227,
          "midi": 41,
          "name": "F2",
          "ticks": 23280,
          "time": 25.526326,
          "velocity": 0.6299212598425197
        },
        {
          "duration": 0.9989039083333324,
          "durationTicks": 911,
          "midi": 46,
          "name": "A#2",
          "ticks": 23520,
          "time": 25.789484,
          "velocity": 0.6299212598425197
        },
        {
          "duration": 0.4989037083333301,
          "durationTicks": 455,
          "midi": 34,
          "name": "A#1",
          "ticks": 24480,
          "time": 26.842116,
          "velocity": 0.6299212598425197
        },
        {
          "duration": 0.4989037083333301,
          "durationTicks": 455,
          "midi": 46,
          "name": "A#2",
          "ticks": 24480,
          "time": 26.842116,
          "velocity": 0.6299212598425197
        },
        {
          "duration": 0.7489038083333348,
          "durationTicks": 683,
          "midi": 36,
          "name": "C2",
          "ticks": 24960,
          "time": 27.368432,
          "velocity": 0.6299212598425197
        },
        {
          "duration": 0.7489038083333348,
          "durationTicks": 683,
          "midi": 48,
          "name": "C3",
          "ticks": 24960,
          "time": 27.368432,
          "velocity": 0.6299212598425197
        },
        {
          "duration": 0.7489038083333313,
          "durationTicks": 683,
          "midi": 36,
          "name": "C2",
          "ticks": 25680,
          "time": 28.157906,
          "velocity": 0.6299212598425197
        },
        {
          "duration": 0.7489038083333313,
          "durationTicks": 683,
          "midi": 48,
          "name": "C3",
          "ticks": 25680,
          "time": 28.157906,
          "velocity": 0.6299212598425197
        },
        {
          "duration": 0.49890370833333364,
          "durationTicks": 455,
          "midi": 35,
          "name": "B1",
          "ticks": 26400,
          "time": 28.94738,
          "velocity": 0.6299212598425197
        },
        {
          "duration": 0.49890370833333364,
          "durationTicks": 455,
          "midi": 47,
          "name": "B2",
          "ticks": 26400,
          "time": 28.94738,
          "velocity": 0.6299212598425197
        },
        {
          "duration": 0.9989039083333324,
          "durationTicks": 911,
          "midi": 34,
          "name": "A#1",
          "ticks": 26880,
          "time": 29.473696,
          "velocity": 0.6299212598425197
        },
        {
          "duration": 0.24890360833333602,
          "durationTicks": 227,
          "midi": 41,
          "name": "F2",
          "ticks": 27120,
          "time": 29.736854,
          "velocity": 0.6299212598425197
        },
        {
          "duration": 0.4989037083333301,
          "durationTicks": 455,
          "midi": 46,
          "name": "A#2",
          "ticks": 27360,
          "time": 30.000012,
          "velocity": 0.6299212598425197
        },
        {
          "duration": 0.998903908333336,
          "durationTicks": 911,
          "midi": 31,
          "name": "G1",
          "ticks": 27840,
          "time": 30.526328,
          "velocity": 0.6299212598425197
        },
        {
          "duration": 0.998903908333336,
          "durationTicks": 911,
          "midi": 43,
          "name": "G2",
          "ticks": 27840,
          "time": 30.526328,
          "velocity": 0.6299212598425197
        },
        {
          "duration": 1.4989041083333348,
          "durationTicks": 1367,
          "midi": 36,
          "name": "C2",
          "ticks": 28800,
          "time": 31.578960000000002,
          "velocity": 0.6299212598425197
        },
        {
          "duration": 1.4989041083333348,
          "durationTicks": 1367,
          "midi": 48,
          "name": "C3",
          "ticks": 28800,
          "time": 31.578960000000002,
          "velocity": 0.6299212598425197
        },
        {
          "duration": 0.4989037083333372,
          "durationTicks": 455,
          "midi": 35,
          "name": "B1",
          "ticks": 30240,
          "time": 33.157908,
          "velocity": 0.6299212598425197
        },
        {
          "duration": 0.4989037083333372,
          "durationTicks": 455,
          "midi": 47,
          "name": "B2",
          "ticks": 30240,
          "time": 33.157908,
          "velocity": 0.6299212598425197
        },
        {
          "duration": 0.24890360833333602,
          "durationTicks": 227,
          "midi": 34,
          "name": "A#1",
          "ticks": 30720,
          "time": 33.684224,
          "velocity": 0.6299212598425197
        },
        {
          "duration": 0.24890360833333602,
          "durationTicks": 227,
          "midi": 46,
          "name": "A#2",
          "ticks": 30960,
          "time": 33.947382000000005,
          "velocity": 0.6299212598425197
        },
        {
          "duration": 0.24890360833332892,
          "durationTicks": 227,
          "midi": 34,
          "name": "A#1",
          "ticks": 31200,
          "time": 34.21054,
          "velocity": 0.6299212598425197
        },
        {
          "duration": 0.24890360833333602,
          "durationTicks": 227,
          "midi": 46,
          "name": "A#2",
          "ticks": 31440,
          "time": 34.473698,
          "velocity": 0.6299212598425197
        },
        {
          "duration": 0.24890360833333602,
          "durationTicks": 227,
          "midi": 34,
          "name": "A#1",
          "ticks": 31680,
          "time": 34.736856,
          "velocity": 0.6299212598425197
        },
        {
          "duration": 0.24890360833333602,
          "durationTicks": 227,
          "midi": 46,
          "name": "A#2",
          "ticks": 31920,
          "time": 35.000014,
          "velocity": 0.6299212598425197
        },
        {
          "duration": 0.24890360833333602,
          "durationTicks": 227,
          "midi": 34,
          "name": "A#1",
          "ticks": 32160,
          "time": 35.263172,
          "velocity": 0.6299212598425197
        },
        {
          "duration": 0.24890360833333602,
          "durationTicks": 227,
          "midi": 46,
          "name": "A#2",
          "ticks": 32400,
          "time": 35.52633,
          "velocity": 0.6299212598425197
        },
        {
          "duration": 0.24890360833333602,
          "durationTicks": 227,
          "midi": 36,
          "name": "C2",
          "ticks": 32640,
          "time": 35.789488,
          "velocity": 0.6299212598425197
        },
        {
          "duration": 0.24890360833333602,
          "durationTicks": 227,
          "midi": 48,
          "name": "C3",
          "ticks": 32880,
          "time": 36.052645999999996,
          "velocity": 0.6299212598425197
        },
        {
          "duration": 0.24890360833333602,
          "durationTicks": 227,
          "midi": 36,
          "name": "C2",
          "ticks": 33120,
          "time": 36.315804,
          "velocity": 0.6299212598425197
        },
        {
          "duration": 0.24890360833333602,
          "durationTicks": 227,
          "midi": 48,
          "name": "C3",
          "ticks": 33360,
          "time": 36.578962000000004,
          "velocity": 0.6299212598425197
        },
        {
          "duration": 0.24890360833332892,
          "durationTicks": 227,
          "midi": 36,
          "name": "C2",
          "ticks": 33600,
          "time": 36.84212,
          "velocity": 0.6299212598425197
        },
        {
          "duration": 0.24890360833333602,
          "durationTicks": 227,
          "midi": 48,
          "name": "C3",
          "ticks": 33840,
          "time": 37.105278,
          "velocity": 0.6299212598425197
        },
        {
          "duration": 0.24890360833333602,
          "durationTicks": 227,
          "midi": 36,
          "name": "C2",
          "ticks": 34080,
          "time": 37.368436,
          "velocity": 0.6299212598425197
        },
        {
          "duration": 0.24890360833333602,
          "durationTicks": 227,
          "midi": 48,
          "name": "C3",
          "ticks": 34320,
          "time": 37.631594,
          "velocity": 0.6299212598425197
        },
        {
          "duration": 0.24890360833333602,
          "durationTicks": 227,
          "midi": 34,
          "name": "A#1",
          "ticks": 34560,
          "time": 37.894752,
          "velocity": 0.6299212598425197
        },
        {
          "duration": 0.24890360833333602,
          "durationTicks": 227,
          "midi": 46,
          "name": "A#2",
          "ticks": 34800,
          "time": 38.15791,
          "velocity": 0.6299212598425197
        },
        {
          "duration": 0.24890360833332892,
          "durationTicks": 227,
          "midi": 34,
          "name": "A#1",
          "ticks": 35040,
          "time": 38.421068000000005,
          "velocity": 0.6299212598425197
        },
        {
          "duration": 0.24890360833333602,
          "durationTicks": 227,
          "midi": 46,
          "name": "A#2",
          "ticks": 35280,
          "time": 38.684225999999995,
          "velocity": 0.6299212598425197
        },
        {
          "duration": 0.24890360833333602,
          "durationTicks": 227,
          "midi": 34,
          "name": "A#1",
          "ticks": 35520,
          "time": 38.947384,
          "velocity": 0.6299212598425197
        },
        {
          "duration": 0.24890360833333602,
          "durationTicks": 227,
          "midi": 46,
          "name": "A#2",
          "ticks": 35760,
          "time": 39.210542000000004,
          "velocity": 0.6299212598425197
        },
        {
          "duration": 0.24890360833333602,
          "durationTicks": 227,
          "midi": 34,
          "name": "A#1",
          "ticks": 36000,
          "time": 39.4737,
          "velocity": 0.6299212598425197
        },
        {
          "duration": 0.24890360833333602,
          "durationTicks": 227,
          "midi": 46,
          "name": "A#2",
          "ticks": 36240,
          "time": 39.736858,
          "velocity": 0.6299212598425197
        },
        {
          "duration": 0.26206150833333197,
          "durationTicks": 239,
          "midi": 36,
          "name": "C2",
          "ticks": 36480,
          "time": 40.000016,
          "velocity": 0.7559055118110236
        },
        {
          "duration": 0.26206150833333197,
          "durationTicks": 239,
          "midi": 48,
          "name": "C3",
          "ticks": 36480,
          "time": 40.000016,
          "velocity": 0.7559055118110236
        },
        {
          "duration": 0.19627200833333092,
          "durationTicks": 179,
          "midi": 34,
          "name": "A#1",
          "ticks": 38400,
          "time": 42.10528,
          "velocity": 0.7559055118110236
        },
        {
          "duration": 0.19627200833333092,
          "durationTicks": 179,
          "midi": 46,
          "name": "A#2",
          "ticks": 38400,
          "time": 42.10528,
          "velocity": 0.7559055118110236
        },
        {
          "duration": 0.31469310833333,
          "durationTicks": 287,
          "midi": 34,
          "name": "A#1",
          "ticks": 38760,
          "time": 42.500017,
          "velocity": 0.7559055118110236
        },
        {
          "duration": 0.31469310833333,
          "durationTicks": 287,
          "midi": 46,
          "name": "A#2",
          "ticks": 38760,
          "time": 42.500017,
          "velocity": 0.7559055118110236
        },
        {
          "duration": 0.7489038083333313,
          "durationTicks": 683,
          "midi": 36,
          "name": "C2",
          "ticks": 39120,
          "time": 42.894754,
          "velocity": 0.7559055118110236
        },
        {
          "duration": 0.7489038083333313,
          "durationTicks": 683,
          "midi": 48,
          "name": "C3",
          "ticks": 39120,
          "time": 42.894754,
          "velocity": 0.7559055118110236
        },
        {
          "duration": 0.19627200833333802,
          "durationTicks": 179,
          "midi": 33,
          "name": "A1",
          "ticks": 40320,
          "time": 44.210544,
          "velocity": 0.7559055118110236
        },
        {
          "duration": 0.19627200833333802,
          "durationTicks": 179,
          "midi": 45,
          "name": "A2",
          "ticks": 40320,
          "time": 44.210544,
          "velocity": 0.7559055118110236
        },
        {
          "duration": 0.3146931083333371,
          "durationTicks": 287,
          "midi": 33,
          "name": "A1",
          "ticks": 40680,
          "time": 44.605281,
          "velocity": 0.7559055118110236
        },
        {
          "duration": 0.3146931083333371,
          "durationTicks": 287,
          "midi": 45,
          "name": "A2",
          "ticks": 40680,
          "time": 44.605281,
          "velocity": 0.7559055118110236
        },
        {
          "duration": 0.7489038083333384,
          "durationTicks": 683,
          "midi": 38,
          "name": "D2",
          "ticks": 41040,
          "time": 45.000018,
          "velocity": 0.7559055118110236
        },
        {
          "duration": 0.7489038083333384,
          "durationTicks": 683,
          "midi": 50,
          "name": "D3",
          "ticks": 41040,
          "time": 45.000018,
          "velocity": 0.7559055118110236
        },
        {
          "duration": 0.7489038083333384,
          "durationTicks": 683,
          "midi": 31,
          "name": "G1",
          "ticks": 42240,
          "time": 46.315808,
          "velocity": 0.7559055118110236
        },
        {
          "duration": 0.7489038083333384,
          "durationTicks": 683,
          "midi": 43,
          "name": "G2",
          "ticks": 42240,
          "time": 46.315808,
          "velocity": 0.7559055118110236
        },
        {
          "duration": 0.7489038083333313,
          "durationTicks": 683,
          "midi": 36,
          "name": "C2",
          "ticks": 42960,
          "time": 47.105282,
          "velocity": 0.7559055118110236
        },
        {
          "duration": 0.7489038083333313,
          "durationTicks": 683,
          "midi": 48,
          "name": "C3",
          "ticks": 42960,
          "time": 47.105282,
          "velocity": 0.7559055118110236
        },
        {
          "duration": 0.4989037083333372,
          "durationTicks": 455,
          "midi": 48,
          "name": "C3",
          "ticks": 43680,
          "time": 47.894756,
          "velocity": 0.7559055118110236
        },
        {
          "duration": 0.26206150833333197,
          "durationTicks": 239,
          "midi": 45,
          "name": "A2",
          "ticks": 44160,
          "time": 48.421072,
          "velocity": 0.7559055118110236
        },
        {
          "duration": 0.26206150833333197,
          "durationTicks": 239,
          "midi": 52,
          "name": "E3",
          "ticks": 44160,
          "time": 48.421072,
          "velocity": 0.7559055118110236
        },
        {
          "duration": 0.9989039083333253,
          "durationTicks": 911,
          "midi": 38,
          "name": "D2",
          "ticks": 44640,
          "time": 48.947388000000004,
          "velocity": 0.7559055118110236
        },
        {
          "duration": 0.9989039083333253,
          "durationTicks": 911,
          "midi": 50,
          "name": "D3",
          "ticks": 44640,
          "time": 48.947388000000004,
          "velocity": 0.7559055118110236
        },
        {
          "duration": 0.19627200833333092,
          "durationTicks": 179,
          "midi": 34,
          "name": "A#1",
          "ticks": 46080,
          "time": 50.526336,
          "velocity": 0.7559055118110236
        },
        {
          "duration": 0.19627200833333092,
          "durationTicks": 179,
          "midi": 46,
          "name": "A#2",
          "ticks": 46080,
          "time": 50.526336,
          "velocity": 0.7559055118110236
        },
        {
          "duration": 0.31469310833333,
          "durationTicks": 287,
          "midi": 34,
          "name": "A#1",
          "ticks": 46440,
          "time": 50.921073,
          "velocity": 0.7559055118110236
        },
        {
          "duration": 0.31469310833333,
          "durationTicks": 287,
          "midi": 46,
          "name": "A#2",
          "ticks": 46440,
          "time": 50.921073,
          "velocity": 0.7559055118110236
        },
        {
          "duration": 0.7489038083333313,
          "durationTicks": 683,
          "midi": 36,
          "name": "C2",
          "ticks": 46800,
          "time": 51.31581,
          "velocity": 0.7559055118110236
        },
        {
          "duration": 0.7489038083333313,
          "durationTicks": 683,
          "midi": 48,
          "name": "C3",
          "ticks": 46800,
          "time": 51.31581,
          "velocity": 0.7559055118110236
        },
        {
          "duration": 0.4989037083333372,
          "durationTicks": 455,
          "midi": 33,
          "name": "A1",
          "ticks": 48000,
          "time": 52.6316,
          "velocity": 0.7559055118110236
        },
        {
          "duration": 0.4989037083333372,
          "durationTicks": 455,
          "midi": 45,
          "name": "A2",
          "ticks": 48000,
          "time": 52.6316,
          "velocity": 0.7559055118110236
        },
        {
          "duration": 0.24890360833332892,
          "durationTicks": 227,
          "midi": 33,
          "name": "A1",
          "ticks": 48480,
          "time": 53.157916,
          "velocity": 0.7559055118110236
        },
        {
          "duration": 0.24890360833332892,
          "durationTicks": 227,
          "midi": 45,
          "name": "A2",
          "ticks": 48480,
          "time": 53.157916,
          "velocity": 0.7559055118110236
        },
        {
          "duration": 0.7489038083333384,
          "durationTicks": 683,
          "midi": 38,
          "name": "D2",
          "ticks": 48720,
          "time": 53.421074,
          "velocity": 0.7559055118110236
        },
        {
          "duration": 0.7489038083333384,
          "durationTicks": 683,
          "midi": 50,
          "name": "D3",
          "ticks": 48720,
          "time": 53.421074,
          "velocity": 0.7559055118110236
        },
        {
          "duration": 0.7489038083333313,
          "durationTicks": 683,
          "midi": 31,
          "name": "G1",
          "ticks": 49920,
          "time": 54.736864000000004,
          "velocity": 0.7559055118110236
        },
        {
          "duration": 0.7489038083333313,
          "durationTicks": 683,
          "midi": 43,
          "name": "G2",
          "ticks": 49920,
          "time": 54.736864000000004,
          "velocity": 0.7559055118110236
        },
        {
          "duration": 0.7489038083333313,
          "durationTicks": 683,
          "midi": 36,
          "name": "C2",
          "ticks": 50640,
          "time": 55.526338,
          "velocity": 0.7559055118110236
        },
        {
          "duration": 0.7489038083333313,
          "durationTicks": 683,
          "midi": 48,
          "name": "C3",
          "ticks": 50640,
          "time": 55.526338,
          "velocity": 0.7559055118110236
        },
        {
          "duration": 0.4989037083333372,
          "durationTicks": 455,
          "midi": 48,
          "name": "C3",
          "ticks": 51360,
          "time": 56.315812,
          "velocity": 0.7559055118110236
        },
        {
          "duration": 0.26206150833333197,
          "durationTicks": 239,
          "midi": 45,
          "name": "A2",
          "ticks": 51840,
          "time": 56.842128,
          "velocity": 0.7559055118110236
        },
        {
          "duration": 0.26206150833333197,
          "durationTicks": 239,
          "midi": 52,
          "name": "E3",
          "ticks": 51840,
          "time": 56.842128,
          "velocity": 0.7559055118110236
        },
        {
          "duration": 0.9989039083333253,
          "durationTicks": 911,
          "midi": 38,
          "name": "D2",
          "ticks": 52320,
          "time": 57.368444000000004,
          "velocity": 0.7559055118110236
        },
        {
          "duration": 0.9989039083333253,
          "durationTicks": 911,
          "midi": 50,
          "name": "D3",
          "ticks": 52320,
          "time": 57.368444000000004,
          "velocity": 0.7559055118110236
        },
        {
          "duration": 1.748904208333336,
          "durationTicks": 1595,
          "midi": 34,
          "name": "A#1",
          "ticks": 53760,
          "time": 58.947392,
          "velocity": 0.6299212598425197
        },
        {
          "duration": 0.24890360833333602,
          "durationTicks": 227,
          "midi": 41,
          "name": "F2",
          "ticks": 54000,
          "time": 59.21055,
          "velocity": 0.6299212598425197
        },
        {
          "duration": 1.2489040083333336,
          "durationTicks": 1139,
          "midi": 46,
          "name": "A#2",
          "ticks": 54240,
          "time": 59.473708,
          "velocity": 0.6299212598425197
        },
        {
          "duration": 0.9989039083333253,
          "durationTicks": 911,
          "midi": 36,
          "name": "C2",
          "ticks": 55440,
          "time": 60.789498,
          "velocity": 0.6299212598425197
        },
        {
          "duration": 0.9989039083333253,
          "durationTicks": 911,
          "midi": 48,
          "name": "C3",
          "ticks": 55440,
          "time": 60.789498,
          "velocity": 0.6299212598425197
        },
        {
          "duration": 0.24890360833333602,
          "durationTicks": 227,
          "midi": 36,
          "name": "C2",
          "ticks": 56400,
          "time": 61.84213,
          "velocity": 0.6299212598425197
        },
        {
          "duration": 0.24890360833333602,
          "durationTicks": 227,
          "midi": 48,
          "name": "C3",
          "ticks": 56400,
          "time": 61.84213,
          "velocity": 0.6299212598425197
        },
        {
          "duration": 0.4989037083333372,
          "durationTicks": 455,
          "midi": 36,
          "name": "C2",
          "ticks": 56640,
          "time": 62.105288,
          "velocity": 0.6299212598425197
        },
        {
          "duration": 0.4989037083333372,
          "durationTicks": 455,
          "midi": 48,
          "name": "C3",
          "ticks": 56640,
          "time": 62.105288,
          "velocity": 0.6299212598425197
        },
        {
          "duration": 0.4989037083333301,
          "durationTicks": 455,
          "midi": 35,
          "name": "B1",
          "ticks": 57120,
          "time": 62.631604,
          "velocity": 0.6299212598425197
        },
        {
          "duration": 0.4989037083333301,
          "durationTicks": 455,
          "midi": 47,
          "name": "B2",
          "ticks": 57120,
          "time": 62.631604,
          "velocity": 0.6299212598425197
        },
        {
          "duration": 1.4989041083333277,
          "durationTicks": 1367,
          "midi": 34,
          "name": "A#1",
          "ticks": 57600,
          "time": 63.15792,
          "velocity": 0.6299212598425197
        },
        {
          "duration": 0.24890360833332892,
          "durationTicks": 227,
          "midi": 41,
          "name": "F2",
          "ticks": 57840,
          "time": 63.421078,
          "velocity": 0.6299212598425197
        },
        {
          "duration": 0.9989039083333324,
          "durationTicks": 911,
          "midi": 46,
          "name": "A#2",
          "ticks": 58080,
          "time": 63.684236,
          "velocity": 0.6299212598425197
        },
        {
          "duration": 0.4989037083333443,
          "durationTicks": 455,
          "midi": 34,
          "name": "A#1",
          "ticks": 59040,
          "time": 64.736868,
          "velocity": 0.6299212598425197
        },
        {
          "duration": 0.4989037083333443,
          "durationTicks": 455,
          "midi": 46,
          "name": "A#2",
          "ticks": 59040,
          "time": 64.736868,
          "velocity": 0.6299212598425197
        },
        {
          "duration": 0.2620615083333462,
          "durationTicks": 239,
          "midi": 36,
          "name": "C2",
          "ticks": 59520,
          "time": 65.263184,
          "velocity": 0.7559055118110236
        },
        {
          "duration": 0.2620615083333462,
          "durationTicks": 239,
          "midi": 48,
          "name": "C3",
          "ticks": 59520,
          "time": 65.263184,
          "velocity": 0.7559055118110236
        },
        {
          "duration": 0.9989039083333324,
          "durationTicks": 911,
          "midi": 60,
          "name": "C4",
          "ticks": 60480,
          "time": 66.315816,
          "velocity": 0.5826771653543307
        },
        {
          "duration": 0.9989039083333324,
          "durationTicks": 911,
          "midi": 64,
          "name": "E4",
          "ticks": 60480,
          "time": 66.315816,
          "velocity": 0.5826771653543307
        },
        {
          "duration": 1.4989041083333348,
          "durationTicks": 1367,
          "midi": 34,
          "name": "A#1",
          "ticks": 61440,
          "time": 67.368448,
          "velocity": 0.6299212598425197
        },
        {
          "duration": 0.24890360833333602,
          "durationTicks": 227,
          "midi": 41,
          "name": "F2",
          "ticks": 61680,
          "time": 67.631606,
          "velocity": 0.6299212598425197
        },
        {
          "duration": 0.9989039083333182,
          "durationTicks": 911,
          "midi": 46,
          "name": "A#2",
          "ticks": 61920,
          "time": 67.89476400000001,
          "velocity": 0.6299212598425197
        },
        {
          "duration": 0.4989037083333301,
          "durationTicks": 455,
          "midi": 34,
          "name": "A#1",
          "ticks": 62880,
          "time": 68.947396,
          "velocity": 0.6299212598425197
        },
        {
          "duration": 0.4989037083333301,
          "durationTicks": 455,
          "midi": 46,
          "name": "A#2",
          "ticks": 62880,
          "time": 68.947396,
          "velocity": 0.6299212598425197
        },
        {
          "duration": 0.7489038083333242,
          "durationTicks": 683,
          "midi": 36,
          "name": "C2",
          "ticks": 63360,
          "time": 69.473712,
          "velocity": 0.6299212598425197
        },
        {
          "duration": 0.7489038083333242,
          "durationTicks": 683,
          "midi": 48,
          "name": "C3",
          "ticks": 63360,
          "time": 69.473712,
          "velocity": 0.6299212598425197
        },
        {
          "duration": 0.7489038083333526,
          "durationTicks": 683,
          "midi": 36,
          "name": "C2",
          "ticks": 64080,
          "time": 70.26318599999999,
          "velocity": 0.6299212598425197
        },
        {
          "duration": 0.7489038083333526,
          "durationTicks": 683,
          "midi": 48,
          "name": "C3",
          "ticks": 64080,
          "time": 70.26318599999999,
          "velocity": 0.6299212598425197
        },
        {
          "duration": 0.4989037083333301,
          "durationTicks": 455,
          "midi": 35,
          "name": "B1",
          "ticks": 64800,
          "time": 71.05266,
          "velocity": 0.6299212598425197
        },
        {
          "duration": 0.4989037083333301,
          "durationTicks": 455,
          "midi": 47,
          "name": "B2",
          "ticks": 64800,
          "time": 71.05266,
          "velocity": 0.6299212598425197
        },
        {
          "duration": 0.9989039083333182,
          "durationTicks": 911,
          "midi": 34,
          "name": "A#1",
          "ticks": 65280,
          "time": 71.57897600000001,
          "velocity": 0.6299212598425197
        },
        {
          "duration": 0.2489036083333218,
          "durationTicks": 227,
          "midi": 41,
          "name": "F2",
          "ticks": 65520,
          "time": 71.842134,
          "velocity": 0.6299212598425197
        },
        {
          "duration": 0.4989037083333585,
          "durationTicks": 455,
          "midi": 46,
          "name": "A#2",
          "ticks": 65760,
          "time": 72.10529199999999,
          "velocity": 0.6299212598425197
        },
        {
          "duration": 0.9989039083333182,
          "durationTicks": 911,
          "midi": 31,
          "name": "G1",
          "ticks": 66240,
          "time": 72.631608,
          "velocity": 0.6299212598425197
        },
        {
          "duration": 0.9989039083333182,
          "durationTicks": 911,
          "midi": 43,
          "name": "G2",
          "ticks": 66240,
          "time": 72.631608,
          "velocity": 0.6299212598425197
        },
        {
          "duration": 1.4989041083333348,
          "durationTicks": 1367,
          "midi": 36,
          "name": "C2",
          "ticks": 67200,
          "time": 73.68423999999999,
          "velocity": 0.6299212598425197
        },
        {
          "duration": 1.4989041083333348,
          "durationTicks": 1367,
          "midi": 48,
          "name": "C3",
          "ticks": 67200,
          "time": 73.68423999999999,
          "velocity": 0.6299212598425197
        },
        {
          "duration": 0.4989037083333301,
          "durationTicks": 455,
          "midi": 35,
          "name": "B1",
          "ticks": 68640,
          "time": 75.26318800000001,
          "velocity": 0.6299212598425197
        },
        {
          "duration": 0.4989037083333301,
          "durationTicks": 455,
          "midi": 47,
          "name": "B2",
          "ticks": 68640,
          "time": 75.26318800000001,
          "velocity": 0.6299212598425197
        },
        {
          "duration": 0.24890360833333602,
          "durationTicks": 227,
          "midi": 34,
          "name": "A#1",
          "ticks": 69120,
          "time": 75.789504,
          "velocity": 0.6299212598425197
        },
        {
          "duration": 0.24890360833333602,
          "durationTicks": 227,
          "midi": 46,
          "name": "A#2",
          "ticks": 69360,
          "time": 76.052662,
          "velocity": 0.6299212598425197
        },
        {
          "duration": 0.24890360833333602,
          "durationTicks": 227,
          "midi": 34,
          "name": "A#1",
          "ticks": 69600,
          "time": 76.31582,
          "velocity": 0.6299212598425197
        },
        {
          "duration": 0.24890360833333602,
          "durationTicks": 227,
          "midi": 46,
          "name": "A#2",
          "ticks": 69840,
          "time": 76.578978,
          "velocity": 0.6299212598425197
        },
        {
          "duration": 0.2489036083333076,
          "durationTicks": 227,
          "midi": 34,
          "name": "A#1",
          "ticks": 70080,
          "time": 76.84213600000001,
          "velocity": 0.6299212598425197
        },
        {
          "duration": 0.2489036083333076,
          "durationTicks": 227,
          "midi": 46,
          "name": "A#2",
          "ticks": 70320,
          "time": 77.10529400000001,
          "velocity": 0.6299212598425197
        },
        {
          "duration": 0.24890360833333602,
          "durationTicks": 227,
          "midi": 34,
          "name": "A#1",
          "ticks": 70560,
          "time": 77.36845199999999,
          "velocity": 0.6299212598425197
        },
        {
          "duration": 0.24890360833333602,
          "durationTicks": 227,
          "midi": 46,
          "name": "A#2",
          "ticks": 70800,
          "time": 77.63161,
          "velocity": 0.6299212598425197
        },
        {
          "duration": 0.24890360833333602,
          "durationTicks": 227,
          "midi": 36,
          "name": "C2",
          "ticks": 71040,
          "time": 77.894768,
          "velocity": 0.6299212598425197
        },
        {
          "duration": 0.24890360833333602,
          "durationTicks": 227,
          "midi": 48,
          "name": "C3",
          "ticks": 71280,
          "time": 78.157926,
          "velocity": 0.6299212598425197
        },
        {
          "duration": 0.24890360833333602,
          "durationTicks": 227,
          "midi": 36,
          "name": "C2",
          "ticks": 71520,
          "time": 78.42108400000001,
          "velocity": 0.6299212598425197
        },
        {
          "duration": 0.2489036083333076,
          "durationTicks": 227,
          "midi": 48,
          "name": "C3",
          "ticks": 71760,
          "time": 78.68424200000001,
          "velocity": 0.6299212598425197
        },
        {
          "duration": 0.24890360833333602,
          "durationTicks": 227,
          "midi": 36,
          "name": "C2",
          "ticks": 72000,
          "time": 78.94739999999999,
          "velocity": 0.6299212598425197
        },
        {
          "duration": 0.24890360833333602,
          "durationTicks": 227,
          "midi": 48,
          "name": "C3",
          "ticks": 72240,
          "time": 79.21055799999999,
          "velocity": 0.6299212598425197
        },
        {
          "duration": 0.24890360833333602,
          "durationTicks": 227,
          "midi": 36,
          "name": "C2",
          "ticks": 72480,
          "time": 79.473716,
          "velocity": 0.6299212598425197
        },
        {
          "duration": 0.24890360833333602,
          "durationTicks": 227,
          "midi": 48,
          "name": "C3",
          "ticks": 72720,
          "time": 79.736874,
          "velocity": 0.6299212598425197
        },
        {
          "duration": 0.24890360833333602,
          "durationTicks": 227,
          "midi": 34,
          "name": "A#1",
          "ticks": 72960,
          "time": 80.000032,
          "velocity": 0.6299212598425197
        },
        {
          "duration": 0.24890360833333602,
          "durationTicks": 227,
          "midi": 46,
          "name": "A#2",
          "ticks": 73200,
          "time": 80.26319000000001,
          "velocity": 0.6299212598425197
        },
        {
          "duration": 0.2489036083333076,
          "durationTicks": 227,
          "midi": 34,
          "name": "A#1",
          "ticks": 73440,
          "time": 80.52634800000001,
          "velocity": 0.6299212598425197
        },
        {
          "duration": 0.24890360833333602,
          "durationTicks": 227,
          "midi": 46,
          "name": "A#2",
          "ticks": 73680,
          "time": 80.78950599999999,
          "velocity": 0.6299212598425197
        },
        {
          "duration": 0.24890360833333602,
          "durationTicks": 227,
          "midi": 34,
          "name": "A#1",
          "ticks": 73920,
          "time": 81.052664,
          "velocity": 0.6299212598425197
        },
        {
          "duration": 0.24890360833333602,
          "durationTicks": 227,
          "midi": 46,
          "name": "A#2",
          "ticks": 74160,
          "time": 81.315822,
          "velocity": 0.6299212598425197
        },
        {
          "duration": 0.24890360833333602,
          "durationTicks": 227,
          "midi": 34,
          "name": "A#1",
          "ticks": 74400,
          "time": 81.57898,
          "velocity": 0.6299212598425197
        },
        {
          "duration": 0.24890360833333602,
          "durationTicks": 227,
          "midi": 46,
          "name": "A#2",
          "ticks": 74640,
          "time": 81.842138,
          "velocity": 0.6299212598425197
        },
        {
          "duration": 0.26206150833331776,
          "durationTicks": 239,
          "midi": 36,
          "name": "C2",
          "ticks": 74880,
          "time": 82.10529600000001,
          "velocity": 0.7559055118110236
        },
        {
          "duration": 0.26206150833331776,
          "durationTicks": 239,
          "midi": 48,
          "name": "C3",
          "ticks": 74880,
          "time": 82.10529600000001,
          "velocity": 0.7559055118110236
        },
        {
          "duration": 0.19627200833335223,
          "durationTicks": 179,
          "midi": 34,
          "name": "A#1",
          "ticks": 76800,
          "time": 84.21055999999999,
          "velocity": 0.7559055118110236
        },
        {
          "duration": 0.19627200833335223,
          "durationTicks": 179,
          "midi": 46,
          "name": "A#2",
          "ticks": 76800,
          "time": 84.21055999999999,
          "velocity": 0.7559055118110236
        },
        {
          "duration": 0.31469310833333,
          "durationTicks": 287,
          "midi": 34,
          "name": "A#1",
          "ticks": 77160,
          "time": 84.60529700000001,
          "velocity": 0.7559055118110236
        },
        {
          "duration": 0.31469310833333,
          "durationTicks": 287,
          "midi": 46,
          "name": "A#2",
          "ticks": 77160,
          "time": 84.60529700000001,
          "velocity": 0.7559055118110236
        },
        {
          "duration": 0.7489038083333526,
          "durationTicks": 683,
          "midi": 36,
          "name": "C2",
          "ticks": 77520,
          "time": 85.000034,
          "velocity": 0.7559055118110236
        },
        {
          "duration": 0.7489038083333526,
          "durationTicks": 683,
          "midi": 48,
          "name": "C3",
          "ticks": 77520,
          "time": 85.000034,
          "velocity": 0.7559055118110236
        },
        {
          "duration": 0.19627200833335223,
          "durationTicks": 179,
          "midi": 33,
          "name": "A1",
          "ticks": 78720,
          "time": 86.31582399999999,
          "velocity": 0.7559055118110236
        },
        {
          "duration": 0.19627200833335223,
          "durationTicks": 179,
          "midi": 45,
          "name": "A2",
          "ticks": 78720,
          "time": 86.31582399999999,
          "velocity": 0.7559055118110236
        },
        {
          "duration": 0.31469310833333,
          "durationTicks": 287,
          "midi": 33,
          "name": "A1",
          "ticks": 79080,
          "time": 86.71056100000001,
          "velocity": 0.7559055118110236
        },
        {
          "duration": 0.31469310833333,
          "durationTicks": 287,
          "midi": 45,
          "name": "A2",
          "ticks": 79080,
          "time": 86.71056100000001,
          "velocity": 0.7559055118110236
        },
        {
          "duration": 0.7489038083333242,
          "durationTicks": 683,
          "midi": 38,
          "name": "D2",
          "ticks": 79440,
          "time": 87.105298,
          "velocity": 0.7559055118110236
        },
        {
          "duration": 0.7489038083333242,
          "durationTicks": 683,
          "midi": 50,
          "name": "D3",
          "ticks": 79440,
          "time": 87.105298,
          "velocity": 0.7559055118110236
        },
        {
          "duration": 0.7489038083333526,
          "durationTicks": 683,
          "midi": 31,
          "name": "G1",
          "ticks": 80640,
          "time": 88.421088,
          "velocity": 0.7559055118110236
        },
        {
          "duration": 0.7489038083333526,
          "durationTicks": 683,
          "midi": 43,
          "name": "G2",
          "ticks": 80640,
          "time": 88.421088,
          "velocity": 0.7559055118110236
        },
        {
          "duration": 0.7489038083333242,
          "durationTicks": 683,
          "midi": 36,
          "name": "C2",
          "ticks": 81360,
          "time": 89.21056200000001,
          "velocity": 0.7559055118110236
        },
        {
          "duration": 0.7489038083333242,
          "durationTicks": 683,
          "midi": 48,
          "name": "C3",
          "ticks": 81360,
          "time": 89.21056200000001,
          "velocity": 0.7559055118110236
        },
        {
          "duration": 0.4989037083333301,
          "durationTicks": 455,
          "midi": 48,
          "name": "C3",
          "ticks": 82080,
          "time": 90.000036,
          "velocity": 0.7559055118110236
        },
        {
          "duration": 0.2620615083333462,
          "durationTicks": 239,
          "midi": 45,
          "name": "A2",
          "ticks": 82560,
          "time": 90.526352,
          "velocity": 0.7559055118110236
        },
        {
          "duration": 0.2620615083333462,
          "durationTicks": 239,
          "midi": 52,
          "name": "E3",
          "ticks": 82560,
          "time": 90.526352,
          "velocity": 0.7559055118110236
        },
        {
          "duration": 0.9989039083333182,
          "durationTicks": 911,
          "midi": 38,
          "name": "D2",
          "ticks": 83040,
          "time": 91.05266800000001,
          "velocity": 0.7559055118110236
        },
        {
          "duration": 0.9989039083333182,
          "durationTicks": 911,
          "midi": 50,
          "name": "D3",
          "ticks": 83040,
          "time": 91.05266800000001,
          "velocity": 0.7559055118110236
        },
        {
          "duration": 0.1962720083333238,
          "durationTicks": 179,
          "midi": 34,
          "name": "A#1",
          "ticks": 84480,
          "time": 92.63161600000001,
          "velocity": 0.7559055118110236
        },
        {
          "duration": 0.1962720083333238,
          "durationTicks": 179,
          "midi": 46,
          "name": "A#2",
          "ticks": 84480,
          "time": 92.63161600000001,
          "velocity": 0.7559055118110236
        },
        {
          "duration": 0.31469310833333,
          "durationTicks": 287,
          "midi": 34,
          "name": "A#1",
          "ticks": 84840,
          "time": 93.026353,
          "velocity": 0.7559055118110236
        },
        {
          "duration": 0.31469310833333,
          "durationTicks": 287,
          "midi": 46,
          "name": "A#2",
          "ticks": 84840,
          "time": 93.026353,
          "velocity": 0.7559055118110236
        },
        {
          "duration": 0.7489038083333526,
          "durationTicks": 683,
          "midi": 36,
          "name": "C2",
          "ticks": 85200,
          "time": 93.42108999999999,
          "velocity": 0.7559055118110236
        },
        {
          "duration": 0.7489038083333526,
          "durationTicks": 683,
          "midi": 48,
          "name": "C3",
          "ticks": 85200,
          "time": 93.42108999999999,
          "velocity": 0.7559055118110236
        },
        {
          "duration": 0.4989037083333301,
          "durationTicks": 455,
          "midi": 33,
          "name": "A1",
          "ticks": 86400,
          "time": 94.73688000000001,
          "velocity": 0.7559055118110236
        },
        {
          "duration": 0.4989037083333301,
          "durationTicks": 455,
          "midi": 45,
          "name": "A2",
          "ticks": 86400,
          "time": 94.73688000000001,
          "velocity": 0.7559055118110236
        },
        {
          "duration": 0.24890360833333602,
          "durationTicks": 227,
          "midi": 33,
          "name": "A1",
          "ticks": 86880,
          "time": 95.263196,
          "velocity": 0.7559055118110236
        },
        {
          "duration": 0.24890360833333602,
          "durationTicks": 227,
          "midi": 45,
          "name": "A2",
          "ticks": 86880,
          "time": 95.263196,
          "velocity": 0.7559055118110236
        },
        {
          "duration": 0.7489038083333526,
          "durationTicks": 683,
          "midi": 38,
          "name": "D2",
          "ticks": 87120,
          "time": 95.526354,
          "velocity": 0.7559055118110236
        },
        {
          "duration": 0.7489038083333526,
          "durationTicks": 683,
          "midi": 50,
          "name": "D3",
          "ticks": 87120,
          "time": 95.526354,
          "velocity": 0.7559055118110236
        },
        {
          "duration": 0.7489038083333526,
          "durationTicks": 683,
          "midi": 31,
          "name": "G1",
          "ticks": 88320,
          "time": 96.84214399999999,
          "velocity": 0.7559055118110236
        },
        {
          "duration": 0.7489038083333526,
          "durationTicks": 683,
          "midi": 43,
          "name": "G2",
          "ticks": 88320,
          "time": 96.84214399999999,
          "velocity": 0.7559055118110236
        },
        {
          "duration": 0.7489038083333242,
          "durationTicks": 683,
          "midi": 36,
          "name": "C2",
          "ticks": 89040,
          "time": 97.631618,
          "velocity": 0.7559055118110236
        },
        {
          "duration": 0.7489038083333242,
          "durationTicks": 683,
          "midi": 48,
          "name": "C3",
          "ticks": 89040,
          "time": 97.631618,
          "velocity": 0.7559055118110236
        },
        {
          "duration": 0.4989037083333301,
          "durationTicks": 455,
          "midi": 48,
          "name": "C3",
          "ticks": 89760,
          "time": 98.42109199999999,
          "velocity": 0.7559055118110236
        },
        {
          "duration": 0.2620615083333462,
          "durationTicks": 239,
          "midi": 45,
          "name": "A2",
          "ticks": 90240,
          "time": 98.947408,
          "velocity": 0.7559055118110236
        },
        {
          "duration": 0.2620615083333462,
          "durationTicks": 239,
          "midi": 52,
          "name": "E3",
          "ticks": 90240,
          "time": 98.947408,
          "velocity": 0.7559055118110236
        },
        {
          "duration": 0.9989039083333466,
          "durationTicks": 911,
          "midi": 38,
          "name": "D2",
          "ticks": 90720,
          "time": 99.473724,
          "velocity": 0.7559055118110236
        },
        {
          "duration": 0.9989039083333466,
          "durationTicks": 911,
          "midi": 50,
          "name": "D3",
          "ticks": 90720,
          "time": 99.473724,
          "velocity": 0.7559055118110236
        },
        {
          "duration": 0.1962720083333238,
          "durationTicks": 179,
          "midi": 34,
          "name": "A#1",
          "ticks": 92160,
          "time": 101.052672,
          "velocity": 0.7559055118110236
        },
        {
          "duration": 0.1962720083333238,
          "durationTicks": 179,
          "midi": 46,
          "name": "A#2",
          "ticks": 92160,
          "time": 101.052672,
          "velocity": 0.7559055118110236
        },
        {
          "duration": 0.31469310833333,
          "durationTicks": 287,
          "midi": 34,
          "name": "A#1",
          "ticks": 92520,
          "time": 101.447409,
          "velocity": 0.7559055118110236
        },
        {
          "duration": 0.31469310833333,
          "durationTicks": 287,
          "midi": 46,
          "name": "A#2",
          "ticks": 92520,
          "time": 101.447409,
          "velocity": 0.7559055118110236
        },
        {
          "duration": 0.7489038083333242,
          "durationTicks": 683,
          "midi": 36,
          "name": "C2",
          "ticks": 92880,
          "time": 101.84214600000001,
          "velocity": 0.7559055118110236
        },
        {
          "duration": 0.7489038083333242,
          "durationTicks": 683,
          "midi": 48,
          "name": "C3",
          "ticks": 92880,
          "time": 101.84214600000001,
          "velocity": 0.7559055118110236
        },
        {
          "duration": 0.1962720083333238,
          "durationTicks": 179,
          "midi": 33,
          "name": "A1",
          "ticks": 94080,
          "time": 103.157936,
          "velocity": 0.7559055118110236
        },
        {
          "duration": 0.1962720083333238,
          "durationTicks": 179,
          "midi": 45,
          "name": "A2",
          "ticks": 94080,
          "time": 103.157936,
          "velocity": 0.7559055118110236
        },
        {
          "duration": 0.31469310833333,
          "durationTicks": 287,
          "midi": 33,
          "name": "A1",
          "ticks": 94440,
          "time": 103.552673,
          "velocity": 0.7559055118110236
        },
        {
          "duration": 0.31469310833333,
          "durationTicks": 287,
          "midi": 45,
          "name": "A2",
          "ticks": 94440,
          "time": 103.552673,
          "velocity": 0.7559055118110236
        },
        {
          "duration": 0.7489038083333526,
          "durationTicks": 683,
          "midi": 38,
          "name": "D2",
          "ticks": 94800,
          "time": 103.94740999999999,
          "velocity": 0.7559055118110236
        },
        {
          "duration": 0.7489038083333526,
          "durationTicks": 683,
          "midi": 50,
          "name": "D3",
          "ticks": 94800,
          "time": 103.94740999999999,
          "velocity": 0.7559055118110236
        },
        {
          "duration": 0.7489038083333242,
          "durationTicks": 683,
          "midi": 31,
          "name": "G1",
          "ticks": 96000,
          "time": 105.26320000000001,
          "velocity": 0.7559055118110236
        },
        {
          "duration": 0.7489038083333242,
          "durationTicks": 683,
          "midi": 43,
          "name": "G2",
          "ticks": 96000,
          "time": 105.26320000000001,
          "velocity": 0.7559055118110236
        },
        {
          "duration": 0.7489038083333526,
          "durationTicks": 683,
          "midi": 36,
          "name": "C2",
          "ticks": 96720,
          "time": 106.052674,
          "velocity": 0.7559055118110236
        },
        {
          "duration": 0.7489038083333526,
          "durationTicks": 683,
          "midi": 48,
          "name": "C3",
          "ticks": 96720,
          "time": 106.052674,
          "velocity": 0.7559055118110236
        },
        {
          "duration": 0.4989037083333301,
          "durationTicks": 455,
          "midi": 48,
          "name": "C3",
          "ticks": 97440,
          "time": 106.84214800000001,
          "velocity": 0.7559055118110236
        },
        {
          "duration": 0.2620615083333462,
          "durationTicks": 239,
          "midi": 45,
          "name": "A2",
          "ticks": 97920,
          "time": 107.36846399999999,
          "velocity": 0.7559055118110236
        },
        {
          "duration": 0.2620615083333462,
          "durationTicks": 239,
          "midi": 52,
          "name": "E3",
          "ticks": 97920,
          "time": 107.36846399999999,
          "velocity": 0.7559055118110236
        },
        {
          "duration": 0.9989039083333466,
          "durationTicks": 911,
          "midi": 38,
          "name": "D2",
          "ticks": 98400,
          "time": 107.89478,
          "velocity": 0.7559055118110236
        },
        {
          "duration": 0.9989039083333466,
          "durationTicks": 911,
          "midi": 50,
          "name": "D3",
          "ticks": 98400,
          "time": 107.89478,
          "velocity": 0.7559055118110236
        },
        {
          "duration": 0.19627200833335223,
          "durationTicks": 179,
          "midi": 34,
          "name": "A#1",
          "ticks": 99840,
          "time": 109.473728,
          "velocity": 0.7559055118110236
        },
        {
          "duration": 0.19627200833335223,
          "durationTicks": 179,
          "midi": 46,
          "name": "A#2",
          "ticks": 99840,
          "time": 109.473728,
          "velocity": 0.7559055118110236
        },
        {
          "duration": 0.31469310833333,
          "durationTicks": 287,
          "midi": 34,
          "name": "A#1",
          "ticks": 100200,
          "time": 109.86846500000001,
          "velocity": 0.7559055118110236
        },
        {
          "duration": 0.31469310833333,
          "durationTicks": 287,
          "midi": 46,
          "name": "A#2",
          "ticks": 100200,
          "time": 109.86846500000001,
          "velocity": 0.7559055118110236
        },
        {
          "duration": 0.7489038083333242,
          "durationTicks": 683,
          "midi": 36,
          "name": "C2",
          "ticks": 100560,
          "time": 110.263202,
          "velocity": 0.7559055118110236
        },
        {
          "duration": 0.7489038083333242,
          "durationTicks": 683,
          "midi": 48,
          "name": "C3",
          "ticks": 100560,
          "time": 110.263202,
          "velocity": 0.7559055118110236
        },
        {
          "duration": 0.4989037083333301,
          "durationTicks": 455,
          "midi": 33,
          "name": "A1",
          "ticks": 101760,
          "time": 111.578992,
          "velocity": 0.7559055118110236
        },
        {
          "duration": 0.4989037083333301,
          "durationTicks": 455,
          "midi": 45,
          "name": "A2",
          "ticks": 101760,
          "time": 111.578992,
          "velocity": 0.7559055118110236
        },
        {
          "duration": 0.24890360833333602,
          "durationTicks": 227,
          "midi": 33,
          "name": "A1",
          "ticks": 102240,
          "time": 112.10530800000001,
          "velocity": 0.7559055118110236
        },
        {
          "duration": 0.24890360833333602,
          "durationTicks": 227,
          "midi": 45,
          "name": "A2",
          "ticks": 102240,
          "time": 112.10530800000001,
          "velocity": 0.7559055118110236
        },
        {
          "duration": 0.7489038083333242,
          "durationTicks": 683,
          "midi": 38,
          "name": "D2",
          "ticks": 102480,
          "time": 112.36846600000001,
          "velocity": 0.7559055118110236
        },
        {
          "duration": 0.7489038083333242,
          "durationTicks": 683,
          "midi": 50,
          "name": "D3",
          "ticks": 102480,
          "time": 112.36846600000001,
          "velocity": 0.7559055118110236
        },
        {
          "duration": 0.7489038083333242,
          "durationTicks": 683,
          "midi": 31,
          "name": "G1",
          "ticks": 103680,
          "time": 113.684256,
          "velocity": 0.7559055118110236
        },
        {
          "duration": 0.7489038083333242,
          "durationTicks": 683,
          "midi": 43,
          "name": "G2",
          "ticks": 103680,
          "time": 113.684256,
          "velocity": 0.7559055118110236
        },
        {
          "duration": 0.7489038083333526,
          "durationTicks": 683,
          "midi": 36,
          "name": "C2",
          "ticks": 104400,
          "time": 114.47372999999999,
          "velocity": 0.7559055118110236
        },
        {
          "duration": 0.7489038083333526,
          "durationTicks": 683,
          "midi": 48,
          "name": "C3",
          "ticks": 104400,
          "time": 114.47372999999999,
          "velocity": 0.7559055118110236
        },
        {
          "duration": 0.4989037083333301,
          "durationTicks": 455,
          "midi": 48,
          "name": "C3",
          "ticks": 105120,
          "time": 115.263204,
          "velocity": 0.7559055118110236
        },
        {
          "duration": 0.26206150833331776,
          "durationTicks": 239,
          "midi": 45,
          "name": "A2",
          "ticks": 105600,
          "time": 115.78952000000001,
          "velocity": 0.7559055118110236
        },
        {
          "duration": 0.26206150833331776,
          "durationTicks": 239,
          "midi": 52,
          "name": "E3",
          "ticks": 105600,
          "time": 115.78952000000001,
          "velocity": 0.7559055118110236
        },
        {
          "duration": 0.9989039083333466,
          "durationTicks": 911,
          "midi": 38,
          "name": "D2",
          "ticks": 106080,
          "time": 116.31583599999999,
          "velocity": 0.7559055118110236
        },
        {
          "duration": 0.9989039083333466,
          "durationTicks": 911,
          "midi": 50,
          "name": "D3",
          "ticks": 106080,
          "time": 116.31583599999999,
          "velocity": 0.7559055118110236
        },
        {
          "duration": 0.19627200833335223,
          "durationTicks": 179,
          "midi": 34,
          "name": "A#1",
          "ticks": 107520,
          "time": 117.89478399999999,
          "velocity": 0.7559055118110236
        },
        {
          "duration": 0.19627200833335223,
          "durationTicks": 179,
          "midi": 46,
          "name": "A#2",
          "ticks": 107520,
          "time": 117.89478399999999,
          "velocity": 0.7559055118110236
        },
        {
          "duration": 0.06469300833333591,
          "durationTicks": 59,
          "midi": 34,
          "name": "A#1",
          "ticks": 107880,
          "time": 118.28952100000001,
          "velocity": 0.7559055118110236
        },
        {
          "duration": 0.06469300833333591,
          "durationTicks": 59,
          "midi": 46,
          "name": "A#2",
          "ticks": 107880,
          "time": 118.28952100000001,
          "velocity": 0.7559055118110236
        },
        {
          "duration": 0.37390365833334727,
          "durationTicks": 341,
          "midi": 34,
          "name": "A#1",
          "ticks": 108480,
          "time": 118.947416,
          "velocity": 0.7559055118110236
        },
        {
          "duration": 0.37390365833334727,
          "durationTicks": 341,
          "midi": 46,
          "name": "A#2",
          "ticks": 108480,
          "time": 118.947416,
          "velocity": 0.7559055118110236
        },
        {
          "duration": 0.1239035583333532,
          "durationTicks": 113,
          "midi": 34,
          "name": "A#1",
          "ticks": 108840,
          "time": 119.342153,
          "velocity": 0.7559055118110236
        },
        {
          "duration": 0.1239035583333532,
          "durationTicks": 113,
          "midi": 46,
          "name": "A#2",
          "ticks": 108840,
          "time": 119.342153,
          "velocity": 0.7559055118110236
        },
        {
          "duration": 0.37390365833334727,
          "durationTicks": 341,
          "midi": 34,
          "name": "A#1",
          "ticks": 109440,
          "time": 120.00004799999999,
          "velocity": 0.7559055118110236
        },
        {
          "duration": 0.37390365833334727,
          "durationTicks": 341,
          "midi": 46,
          "name": "A#2",
          "ticks": 109440,
          "time": 120.00004799999999,
          "velocity": 0.7559055118110236
        },
        {
          "duration": 0.12390355833332478,
          "durationTicks": 113,
          "midi": 34,
          "name": "A#1",
          "ticks": 109800,
          "time": 120.39478500000001,
          "velocity": 0.7559055118110236
        },
        {
          "duration": 0.12390355833332478,
          "durationTicks": 113,
          "midi": 46,
          "name": "A#2",
          "ticks": 109800,
          "time": 120.39478500000001,
          "velocity": 0.7559055118110236
        },
        {
          "duration": 0.24890360833333602,
          "durationTicks": 227,
          "midi": 36,
          "name": "C2",
          "ticks": 110160,
          "time": 120.789522,
          "velocity": 0.7559055118110236
        },
        {
          "duration": 0.24890360833333602,
          "durationTicks": 227,
          "midi": 48,
          "name": "C3",
          "ticks": 110160,
          "time": 120.789522,
          "velocity": 0.7559055118110236
        },
        {
          "duration": 0.1962720083333238,
          "durationTicks": 179,
          "midi": 34,
          "name": "A#1",
          "ticks": 111360,
          "time": 122.105312,
          "velocity": 0.7559055118110236
        },
        {
          "duration": 0.1962720083333238,
          "durationTicks": 179,
          "midi": 46,
          "name": "A#2",
          "ticks": 111360,
          "time": 122.105312,
          "velocity": 0.7559055118110236
        },
        {
          "duration": 0.06469300833333591,
          "durationTicks": 59,
          "midi": 34,
          "name": "A#1",
          "ticks": 111720,
          "time": 122.50004899999999,
          "velocity": 0.7559055118110236
        },
        {
          "duration": 0.06469300833333591,
          "durationTicks": 59,
          "midi": 46,
          "name": "A#2",
          "ticks": 111720,
          "time": 122.50004899999999,
          "velocity": 0.7559055118110236
        },
        {
          "duration": 0.37390365833331884,
          "durationTicks": 341,
          "midi": 34,
          "name": "A#1",
          "ticks": 112320,
          "time": 123.15794400000001,
          "velocity": 0.7559055118110236
        },
        {
          "duration": 0.37390365833331884,
          "durationTicks": 341,
          "midi": 46,
          "name": "A#2",
          "ticks": 112320,
          "time": 123.15794400000001,
          "velocity": 0.7559055118110236
        },
        {
          "duration": 0.12390355833332478,
          "durationTicks": 113,
          "midi": 34,
          "name": "A#1",
          "ticks": 112680,
          "time": 123.552681,
          "velocity": 0.7559055118110236
        },
        {
          "duration": 0.12390355833332478,
          "durationTicks": 113,
          "midi": 46,
          "name": "A#2",
          "ticks": 112680,
          "time": 123.552681,
          "velocity": 0.7559055118110236
        },
        {
          "duration": 0.37390365833334727,
          "durationTicks": 341,
          "midi": 34,
          "name": "A#1",
          "ticks": 113280,
          "time": 124.210576,
          "velocity": 0.7559055118110236
        },
        {
          "duration": 0.37390365833334727,
          "durationTicks": 341,
          "midi": 46,
          "name": "A#2",
          "ticks": 113280,
          "time": 124.210576,
          "velocity": 0.7559055118110236
        },
        {
          "duration": 0.1239035583333532,
          "durationTicks": 113,
          "midi": 34,
          "name": "A#1",
          "ticks": 113640,
          "time": 124.605313,
          "velocity": 0.7559055118110236
        },
        {
          "duration": 0.1239035583333532,
          "durationTicks": 113,
          "midi": 46,
          "name": "A#2",
          "ticks": 113640,
          "time": 124.605313,
          "velocity": 0.7559055118110236
        },
        {
          "duration": 0.24890360833333602,
          "durationTicks": 227,
          "midi": 36,
          "name": "C2",
          "ticks": 114000,
          "time": 125.00004999999999,
          "velocity": 0.7559055118110236
        },
        {
          "duration": 0.24890360833333602,
          "durationTicks": 227,
          "midi": 48,
          "name": "C3",
          "ticks": 114000,
          "time": 125.00004999999999,
          "velocity": 0.7559055118110236
        },
        {
          "duration": 1.7489042083333288,
          "durationTicks": 1595,
          "midi": 34,
          "name": "A#1",
          "ticks": 115200,
          "time": 126.31584000000001,
          "velocity": 0.6299212598425197
        },
        {
          "duration": 0.2489036083333076,
          "durationTicks": 227,
          "midi": 41,
          "name": "F2",
          "ticks": 115440,
          "time": 126.57899800000001,
          "velocity": 0.6299212598425197
        },
        {
          "duration": 1.2489040083333407,
          "durationTicks": 1139,
          "midi": 46,
          "name": "A#2",
          "ticks": 115680,
          "time": 126.84215599999999,
          "velocity": 0.6299212598425197
        },
        {
          "duration": 0.9989039083333182,
          "durationTicks": 911,
          "midi": 36,
          "name": "C2",
          "ticks": 116880,
          "time": 128.157946,
          "velocity": 0.6299212598425197
        },
        {
          "duration": 0.9989039083333182,
          "durationTicks": 911,
          "midi": 48,
          "name": "C3",
          "ticks": 116880,
          "time": 128.157946,
          "velocity": 0.6299212598425197
        },
        {
          "duration": 0.24890360833333602,
          "durationTicks": 227,
          "midi": 36,
          "name": "C2",
          "ticks": 117840,
          "time": 129.210578,
          "velocity": 0.6299212598425197
        },
        {
          "duration": 0.24890360833333602,
          "durationTicks": 227,
          "midi": 48,
          "name": "C3",
          "ticks": 117840,
          "time": 129.210578,
          "velocity": 0.6299212598425197
        },
        {
          "duration": 0.4989037083333301,
          "durationTicks": 455,
          "midi": 36,
          "name": "C2",
          "ticks": 118080,
          "time": 129.473736,
          "velocity": 0.6299212598425197
        },
        {
          "duration": 0.4989037083333301,
          "durationTicks": 455,
          "midi": 48,
          "name": "C3",
          "ticks": 118080,
          "time": 129.473736,
          "velocity": 0.6299212598425197
        },
        {
          "duration": 0.4989037083333301,
          "durationTicks": 455,
          "midi": 35,
          "name": "B1",
          "ticks": 118560,
          "time": 130.000052,
          "velocity": 0.6299212598425197
        },
        {
          "duration": 0.4989037083333301,
          "durationTicks": 455,
          "midi": 47,
          "name": "B2",
          "ticks": 118560,
          "time": 130.000052,
          "velocity": 0.6299212598425197
        },
        {
          "duration": 1.4989041083333348,
          "durationTicks": 1367,
          "midi": 34,
          "name": "A#1",
          "ticks": 119040,
          "time": 130.526368,
          "velocity": 0.6299212598425197
        },
        {
          "duration": 0.24890360833333602,
          "durationTicks": 227,
          "midi": 41,
          "name": "F2",
          "ticks": 119280,
          "time": 130.789526,
          "velocity": 0.6299212598425197
        },
        {
          "duration": 0.9989039083333466,
          "durationTicks": 911,
          "midi": 46,
          "name": "A#2",
          "ticks": 119520,
          "time": 131.052684,
          "velocity": 0.6299212598425197
        },
        {
          "duration": 0.4989037083333301,
          "durationTicks": 455,
          "midi": 34,
          "name": "A#1",
          "ticks": 120480,
          "time": 132.105316,
          "velocity": 0.6299212598425197
        },
        {
          "duration": 0.4989037083333301,
          "durationTicks": 455,
          "midi": 46,
          "name": "A#2",
          "ticks": 120480,
          "time": 132.105316,
          "velocity": 0.6299212598425197
        },
        {
          "duration": 0.2620615083333462,
          "durationTicks": 239,
          "midi": 36,
          "name": "C2",
          "ticks": 120960,
          "time": 132.631632,
          "velocity": 0.7559055118110236
        },
        {
          "duration": 0.2620615083333462,
          "durationTicks": 239,
          "midi": 48,
          "name": "C3",
          "ticks": 120960,
          "time": 132.631632,
          "velocity": 0.7559055118110236
        },
        {
          "duration": 0.9989039083333182,
          "durationTicks": 911,
          "midi": 60,
          "name": "C4",
          "ticks": 121920,
          "time": 133.684264,
          "velocity": 0.5826771653543307
        },
        {
          "duration": 0.9989039083333182,
          "durationTicks": 911,
          "midi": 64,
          "name": "E4",
          "ticks": 121920,
          "time": 133.684264,
          "velocity": 0.5826771653543307
        },
        {
          "duration": 1.4989041083333348,
          "durationTicks": 1367,
          "midi": 34,
          "name": "A#1",
          "ticks": 122880,
          "time": 134.736896,
          "velocity": 0.6299212598425197
        },
        {
          "duration": 0.24890360833333602,
          "durationTicks": 227,
          "midi": 41,
          "name": "F2",
          "ticks": 123120,
          "time": 135.000054,
          "velocity": 0.6299212598425197
        },
        {
          "duration": 0.9989039083333182,
          "durationTicks": 911,
          "midi": 46,
          "name": "A#2",
          "ticks": 123360,
          "time": 135.263212,
          "velocity": 0.6299212598425197
        },
        {
          "duration": 0.4989037083333301,
          "durationTicks": 455,
          "midi": 34,
          "name": "A#1",
          "ticks": 124320,
          "time": 136.315844,
          "velocity": 0.6299212598425197
        },
        {
          "duration": 0.4989037083333301,
          "durationTicks": 455,
          "midi": 46,
          "name": "A#2",
          "ticks": 124320,
          "time": 136.315844,
          "velocity": 0.6299212598425197
        },
        {
          "duration": 0.7489038083333242,
          "durationTicks": 683,
          "midi": 36,
          "name": "C2",
          "ticks": 124800,
          "time": 136.84216,
          "velocity": 0.6299212598425197
        },
        {
          "duration": 0.7489038083333242,
          "durationTicks": 683,
          "midi": 48,
          "name": "C3",
          "ticks": 124800,
          "time": 136.84216,
          "velocity": 0.6299212598425197
        },
        {
          "duration": 0.7489038083333526,
          "durationTicks": 683,
          "midi": 36,
          "name": "C2",
          "ticks": 125520,
          "time": 137.631634,
          "velocity": 0.6299212598425197
        },
        {
          "duration": 0.7489038083333526,
          "durationTicks": 683,
          "midi": 48,
          "name": "C3",
          "ticks": 125520,
          "time": 137.631634,
          "velocity": 0.6299212598425197
        },
        {
          "duration": 0.4989037083333301,
          "durationTicks": 455,
          "midi": 35,
          "name": "B1",
          "ticks": 126240,
          "time": 138.421108,
          "velocity": 0.6299212598425197
        },
        {
          "duration": 0.4989037083333301,
          "durationTicks": 455,
          "midi": 47,
          "name": "B2",
          "ticks": 126240,
          "time": 138.421108,
          "velocity": 0.6299212598425197
        },
        {
          "duration": 0.9989039083333466,
          "durationTicks": 911,
          "midi": 34,
          "name": "A#1",
          "ticks": 126720,
          "time": 138.94742399999998,
          "velocity": 0.6299212598425197
        },
        {
          "duration": 0.24890360833333602,
          "durationTicks": 227,
          "midi": 41,
          "name": "F2",
          "ticks": 126960,
          "time": 139.210582,
          "velocity": 0.6299212598425197
        },
        {
          "duration": 0.4989037083333301,
          "durationTicks": 455,
          "midi": 46,
          "name": "A#2",
          "ticks": 127200,
          "time": 139.47374,
          "velocity": 0.6299212598425197
        },
        {
          "duration": 0.9989039083333182,
          "durationTicks": 911,
          "midi": 31,
          "name": "G1",
          "ticks": 127680,
          "time": 140.000056,
          "velocity": 0.6299212598425197
        },
        {
          "duration": 0.9989039083333182,
          "durationTicks": 911,
          "midi": 43,
          "name": "G2",
          "ticks": 127680,
          "time": 140.000056,
          "velocity": 0.6299212598425197
        },
        {
          "duration": 1.4989041083333348,
          "durationTicks": 1367,
          "midi": 36,
          "name": "C2",
          "ticks": 128640,
          "time": 141.052688,
          "velocity": 0.6299212598425197
        },
        {
          "duration": 1.4989041083333348,
          "durationTicks": 1367,
          "midi": 48,
          "name": "C3",
          "ticks": 128640,
          "time": 141.052688,
          "velocity": 0.6299212598425197
        },
        {
          "duration": 0.4989037083333301,
          "durationTicks": 455,
          "midi": 35,
          "name": "B1",
          "ticks": 130080,
          "time": 142.631636,
          "velocity": 0.6299212598425197
        },
        {
          "duration": 0.4989037083333301,
          "durationTicks": 455,
          "midi": 47,
          "name": "B2",
          "ticks": 130080,
          "time": 142.631636,
          "velocity": 0.6299212598425197
        },
        {
          "duration": 0.24890360833333602,
          "durationTicks": 227,
          "midi": 34,
          "name": "A#1",
          "ticks": 130560,
          "time": 143.157952,
          "velocity": 0.6299212598425197
        },
        {
          "duration": 0.24890360833333602,
          "durationTicks": 227,
          "midi": 46,
          "name": "A#2",
          "ticks": 130800,
          "time": 143.42111,
          "velocity": 0.6299212598425197
        },
        {
          "duration": 0.24890360833333602,
          "durationTicks": 227,
          "midi": 34,
          "name": "A#1",
          "ticks": 131040,
          "time": 143.684268,
          "velocity": 0.6299212598425197
        },
        {
          "duration": 0.2489036083333076,
          "durationTicks": 227,
          "midi": 46,
          "name": "A#2",
          "ticks": 131280,
          "time": 143.947426,
          "velocity": 0.6299212598425197
        },
        {
          "duration": 0.24890360833333602,
          "durationTicks": 227,
          "midi": 34,
          "name": "A#1",
          "ticks": 131520,
          "time": 144.21058399999998,
          "velocity": 0.6299212598425197
        },
        {
          "duration": 0.24890360833333602,
          "durationTicks": 227,
          "midi": 46,
          "name": "A#2",
          "ticks": 131760,
          "time": 144.473742,
          "velocity": 0.6299212598425197
        },
        {
          "duration": 0.24890360833333602,
          "durationTicks": 227,
          "midi": 34,
          "name": "A#1",
          "ticks": 132000,
          "time": 144.7369,
          "velocity": 0.6299212598425197
        },
        {
          "duration": 0.24890360833333602,
          "durationTicks": 227,
          "midi": 46,
          "name": "A#2",
          "ticks": 132240,
          "time": 145.000058,
          "velocity": 0.6299212598425197
        },
        {
          "duration": 0.24890360833333602,
          "durationTicks": 227,
          "midi": 36,
          "name": "C2",
          "ticks": 132480,
          "time": 145.263216,
          "velocity": 0.6299212598425197
        },
        {
          "duration": 0.2489036083333076,
          "durationTicks": 227,
          "midi": 48,
          "name": "C3",
          "ticks": 132720,
          "time": 145.526374,
          "velocity": 0.6299212598425197
        },
        {
          "duration": 0.2489036083333076,
          "durationTicks": 227,
          "midi": 36,
          "name": "C2",
          "ticks": 132960,
          "time": 145.789532,
          "velocity": 0.6299212598425197
        },
        {
          "duration": 0.24890360833333602,
          "durationTicks": 227,
          "midi": 48,
          "name": "C3",
          "ticks": 133200,
          "time": 146.05268999999998,
          "velocity": 0.6299212598425197
        },
        {
          "duration": 0.24890360833333602,
          "durationTicks": 227,
          "midi": 36,
          "name": "C2",
          "ticks": 133440,
          "time": 146.315848,
          "velocity": 0.6299212598425197
        },
        {
          "duration": 0.24890360833333602,
          "durationTicks": 227,
          "midi": 48,
          "name": "C3",
          "ticks": 133680,
          "time": 146.579006,
          "velocity": 0.6299212598425197
        },
        {
          "duration": 0.24890360833333602,
          "durationTicks": 227,
          "midi": 36,
          "name": "C2",
          "ticks": 133920,
          "time": 146.842164,
          "velocity": 0.6299212598425197
        },
        {
          "duration": 0.24890360833333602,
          "durationTicks": 227,
          "midi": 48,
          "name": "C3",
          "ticks": 134160,
          "time": 147.105322,
          "velocity": 0.6299212598425197
        },
        {
          "duration": 0.2489036083333076,
          "durationTicks": 227,
          "midi": 34,
          "name": "A#1",
          "ticks": 134400,
          "time": 147.36848,
          "velocity": 0.6299212598425197
        },
        {
          "duration": 0.24890360833333602,
          "durationTicks": 227,
          "midi": 46,
          "name": "A#2",
          "ticks": 134640,
          "time": 147.63163799999998,
          "velocity": 0.6299212598425197
        },
        {
          "duration": 0.24890360833333602,
          "durationTicks": 227,
          "midi": 34,
          "name": "A#1",
          "ticks": 134880,
          "time": 147.89479599999999,
          "velocity": 0.6299212598425197
        },
        {
          "duration": 0.24890360833333602,
          "durationTicks": 227,
          "midi": 46,
          "name": "A#2",
          "ticks": 135120,
          "time": 148.157954,
          "velocity": 0.6299212598425197
        },
        {
          "duration": 0.24890360833333602,
          "durationTicks": 227,
          "midi": 34,
          "name": "A#1",
          "ticks": 135360,
          "time": 148.421112,
          "velocity": 0.6299212598425197
        },
        {
          "duration": 0.24890360833333602,
          "durationTicks": 227,
          "midi": 46,
          "name": "A#2",
          "ticks": 135600,
          "time": 148.68427,
          "velocity": 0.6299212598425197
        },
        {
          "duration": 0.24890360833333602,
          "durationTicks": 227,
          "midi": 34,
          "name": "A#1",
          "ticks": 135840,
          "time": 148.947428,
          "velocity": 0.6299212598425197
        },
        {
          "duration": 0.2489036083333076,
          "durationTicks": 227,
          "midi": 46,
          "name": "A#2",
          "ticks": 136080,
          "time": 149.210586,
          "velocity": 0.6299212598425197
        },
        {
          "duration": 0.26206150833331776,
          "durationTicks": 239,
          "midi": 36,
          "name": "C2",
          "ticks": 136320,
          "time": 149.47374399999998,
          "velocity": 0.7559055118110236
        },
        {
          "duration": 0.26206150833331776,
          "durationTicks": 239,
          "midi": 48,
          "name": "C3",
          "ticks": 136320,
          "time": 149.47374399999998,
          "velocity": 0.7559055118110236
        },
        {
          "duration": 0.1962720083333238,
          "durationTicks": 179,
          "midi": 34,
          "name": "A#1",
          "ticks": 138240,
          "time": 151.579008,
          "velocity": 0.7559055118110236
        },
        {
          "duration": 0.1962720083333238,
          "durationTicks": 179,
          "midi": 46,
          "name": "A#2",
          "ticks": 138240,
          "time": 151.579008,
          "velocity": 0.7559055118110236
        },
        {
          "duration": 0.31469310833333,
          "durationTicks": 287,
          "midi": 34,
          "name": "A#1",
          "ticks": 138600,
          "time": 151.973745,
          "velocity": 0.7559055118110236
        },
        {
          "duration": 0.31469310833333,
          "durationTicks": 287,
          "midi": 46,
          "name": "A#2",
          "ticks": 138600,
          "time": 151.973745,
          "velocity": 0.7559055118110236
        },
        {
          "duration": 0.7489038083333242,
          "durationTicks": 683,
          "midi": 36,
          "name": "C2",
          "ticks": 138960,
          "time": 152.368482,
          "velocity": 0.7559055118110236
        },
        {
          "duration": 0.7489038083333242,
          "durationTicks": 683,
          "midi": 48,
          "name": "C3",
          "ticks": 138960,
          "time": 152.368482,
          "velocity": 0.7559055118110236
        },
        {
          "duration": 0.1962720083333238,
          "durationTicks": 179,
          "midi": 33,
          "name": "A1",
          "ticks": 140160,
          "time": 153.684272,
          "velocity": 0.7559055118110236
        },
        {
          "duration": 0.1962720083333238,
          "durationTicks": 179,
          "midi": 45,
          "name": "A2",
          "ticks": 140160,
          "time": 153.684272,
          "velocity": 0.7559055118110236
        },
        {
          "duration": 0.31469310833333,
          "durationTicks": 287,
          "midi": 33,
          "name": "A1",
          "ticks": 140520,
          "time": 154.07900899999999,
          "velocity": 0.7559055118110236
        },
        {
          "duration": 0.31469310833333,
          "durationTicks": 287,
          "midi": 45,
          "name": "A2",
          "ticks": 140520,
          "time": 154.07900899999999,
          "velocity": 0.7559055118110236
        },
        {
          "duration": 0.7489038083333242,
          "durationTicks": 683,
          "midi": 38,
          "name": "D2",
          "ticks": 140880,
          "time": 154.473746,
          "velocity": 0.7559055118110236
        },
        {
          "duration": 0.7489038083333242,
          "durationTicks": 683,
          "midi": 50,
          "name": "D3",
          "ticks": 140880,
          "time": 154.473746,
          "velocity": 0.7559055118110236
        },
        {
          "duration": 0.7489038083333242,
          "durationTicks": 683,
          "midi": 31,
          "name": "G1",
          "ticks": 142080,
          "time": 155.789536,
          "velocity": 0.7559055118110236
        },
        {
          "duration": 0.7489038083333242,
          "durationTicks": 683,
          "midi": 43,
          "name": "G2",
          "ticks": 142080,
          "time": 155.789536,
          "velocity": 0.7559055118110236
        },
        {
          "duration": 0.7489038083333242,
          "durationTicks": 683,
          "midi": 36,
          "name": "C2",
          "ticks": 142800,
          "time": 156.57900999999998,
          "velocity": 0.7559055118110236
        },
        {
          "duration": 0.7489038083333242,
          "durationTicks": 683,
          "midi": 48,
          "name": "C3",
          "ticks": 142800,
          "time": 156.57900999999998,
          "velocity": 0.7559055118110236
        },
        {
          "duration": 0.4989037083333301,
          "durationTicks": 455,
          "midi": 48,
          "name": "C3",
          "ticks": 143520,
          "time": 157.368484,
          "velocity": 0.7559055118110236
        },
        {
          "duration": 0.26206150833331776,
          "durationTicks": 239,
          "midi": 45,
          "name": "A2",
          "ticks": 144000,
          "time": 157.8948,
          "velocity": 0.7559055118110236
        },
        {
          "duration": 0.26206150833331776,
          "durationTicks": 239,
          "midi": 52,
          "name": "E3",
          "ticks": 144000,
          "time": 157.8948,
          "velocity": 0.7559055118110236
        },
        {
          "duration": 0.9989039083333466,
          "durationTicks": 911,
          "midi": 38,
          "name": "D2",
          "ticks": 144480,
          "time": 158.42111599999998,
          "velocity": 0.7559055118110236
        },
        {
          "duration": 0.9989039083333466,
          "durationTicks": 911,
          "midi": 50,
          "name": "D3",
          "ticks": 144480,
          "time": 158.42111599999998,
          "velocity": 0.7559055118110236
        },
        {
          "duration": 0.1962720083333238,
          "durationTicks": 179,
          "midi": 34,
          "name": "A#1",
          "ticks": 145920,
          "time": 160.00006399999998,
          "velocity": 0.7559055118110236
        },
        {
          "duration": 0.1962720083333238,
          "durationTicks": 179,
          "midi": 46,
          "name": "A#2",
          "ticks": 145920,
          "time": 160.00006399999998,
          "velocity": 0.7559055118110236
        },
        {
          "duration": 0.31469310833333,
          "durationTicks": 287,
          "midi": 34,
          "name": "A#1",
          "ticks": 146280,
          "time": 160.394801,
          "velocity": 0.7559055118110236
        },
        {
          "duration": 0.31469310833333,
          "durationTicks": 287,
          "midi": 46,
          "name": "A#2",
          "ticks": 146280,
          "time": 160.394801,
          "velocity": 0.7559055118110236
        },
        {
          "duration": 0.7489038083333242,
          "durationTicks": 683,
          "midi": 36,
          "name": "C2",
          "ticks": 146640,
          "time": 160.789538,
          "velocity": 0.7559055118110236
        },
        {
          "duration": 0.7489038083333242,
          "durationTicks": 683,
          "midi": 48,
          "name": "C3",
          "ticks": 146640,
          "time": 160.789538,
          "velocity": 0.7559055118110236
        },
        {
          "duration": 0.4989037083333585,
          "durationTicks": 455,
          "midi": 33,
          "name": "A1",
          "ticks": 147840,
          "time": 162.105328,
          "velocity": 0.7559055118110236
        },
        {
          "duration": 0.4989037083333585,
          "durationTicks": 455,
          "midi": 45,
          "name": "A2",
          "ticks": 147840,
          "time": 162.105328,
          "velocity": 0.7559055118110236
        },
        {
          "duration": 0.24890360833333602,
          "durationTicks": 227,
          "midi": 33,
          "name": "A1",
          "ticks": 148320,
          "time": 162.631644,
          "velocity": 0.7559055118110236
        },
        {
          "duration": 0.24890360833333602,
          "durationTicks": 227,
          "midi": 45,
          "name": "A2",
          "ticks": 148320,
          "time": 162.631644,
          "velocity": 0.7559055118110236
        },
        {
          "duration": 0.7489038083333242,
          "durationTicks": 683,
          "midi": 38,
          "name": "D2",
          "ticks": 148560,
          "time": 162.894802,
          "velocity": 0.7559055118110236
        },
        {
          "duration": 0.7489038083333242,
          "durationTicks": 683,
          "midi": 50,
          "name": "D3",
          "ticks": 148560,
          "time": 162.894802,
          "velocity": 0.7559055118110236
        },
        {
          "duration": 0.7489038083333242,
          "durationTicks": 683,
          "midi": 31,
          "name": "G1",
          "ticks": 149760,
          "time": 164.210592,
          "velocity": 0.7559055118110236
        },
        {
          "duration": 0.7489038083333242,
          "durationTicks": 683,
          "midi": 43,
          "name": "G2",
          "ticks": 149760,
          "time": 164.210592,
          "velocity": 0.7559055118110236
        },
        {
          "duration": 0.7489038083333242,
          "durationTicks": 683,
          "midi": 36,
          "name": "C2",
          "ticks": 150480,
          "time": 165.000066,
          "velocity": 0.7559055118110236
        },
        {
          "duration": 0.7489038083333242,
          "durationTicks": 683,
          "midi": 48,
          "name": "C3",
          "ticks": 150480,
          "time": 165.000066,
          "velocity": 0.7559055118110236
        },
        {
          "duration": 0.4989037083333585,
          "durationTicks": 455,
          "midi": 48,
          "name": "C3",
          "ticks": 151200,
          "time": 165.78954,
          "velocity": 0.7559055118110236
        },
        {
          "duration": 0.26206150833331776,
          "durationTicks": 239,
          "midi": 45,
          "name": "A2",
          "ticks": 151680,
          "time": 166.315856,
          "velocity": 0.7559055118110236
        },
        {
          "duration": 0.26206150833331776,
          "durationTicks": 239,
          "midi": 52,
          "name": "E3",
          "ticks": 151680,
          "time": 166.315856,
          "velocity": 0.7559055118110236
        },
        {
          "duration": 0.9989039083333182,
          "durationTicks": 911,
          "midi": 38,
          "name": "D2",
          "ticks": 152160,
          "time": 166.842172,
          "velocity": 0.7559055118110236
        },
        {
          "duration": 0.9989039083333182,
          "durationTicks": 911,
          "midi": 50,
          "name": "D3",
          "ticks": 152160,
          "time": 166.842172,
          "velocity": 0.7559055118110236
        },
        {
          "duration": 0.1962720083333238,
          "durationTicks": 179,
          "midi": 34,
          "name": "A#1",
          "ticks": 153600,
          "time": 168.42112,
          "velocity": 0.7559055118110236
        },
        {
          "duration": 0.1962720083333238,
          "durationTicks": 179,
          "midi": 46,
          "name": "A#2",
          "ticks": 153600,
          "time": 168.42112,
          "velocity": 0.7559055118110236
        },
        {
          "duration": 0.31469310833333,
          "durationTicks": 287,
          "midi": 34,
          "name": "A#1",
          "ticks": 153960,
          "time": 168.815857,
          "velocity": 0.7559055118110236
        },
        {
          "duration": 0.31469310833333,
          "durationTicks": 287,
          "midi": 46,
          "name": "A#2",
          "ticks": 153960,
          "time": 168.815857,
          "velocity": 0.7559055118110236
        },
        {
          "duration": 0.7489038083333242,
          "durationTicks": 683,
          "midi": 36,
          "name": "C2",
          "ticks": 154320,
          "time": 169.210594,
          "velocity": 0.7559055118110236
        },
        {
          "duration": 0.7489038083333242,
          "durationTicks": 683,
          "midi": 48,
          "name": "C3",
          "ticks": 154320,
          "time": 169.210594,
          "velocity": 0.7559055118110236
        },
        {
          "duration": 0.1962720083332954,
          "durationTicks": 179,
          "midi": 33,
          "name": "A1",
          "ticks": 155520,
          "time": 170.526384,
          "velocity": 0.7559055118110236
        },
        {
          "duration": 0.1962720083332954,
          "durationTicks": 179,
          "midi": 45,
          "name": "A2",
          "ticks": 155520,
          "time": 170.526384,
          "velocity": 0.7559055118110236
        },
        {
          "duration": 0.31469310833333,
          "durationTicks": 287,
          "midi": 33,
          "name": "A1",
          "ticks": 155880,
          "time": 170.921121,
          "velocity": 0.7559055118110236
        },
        {
          "duration": 0.31469310833333,
          "durationTicks": 287,
          "midi": 45,
          "name": "A2",
          "ticks": 155880,
          "time": 170.921121,
          "velocity": 0.7559055118110236
        },
        {
          "duration": 0.7489038083333242,
          "durationTicks": 683,
          "midi": 38,
          "name": "D2",
          "ticks": 156240,
          "time": 171.315858,
          "velocity": 0.7559055118110236
        },
        {
          "duration": 0.7489038083333242,
          "durationTicks": 683,
          "midi": 50,
          "name": "D3",
          "ticks": 156240,
          "time": 171.315858,
          "velocity": 0.7559055118110236
        },
        {
          "duration": 0.7489038083333242,
          "durationTicks": 683,
          "midi": 31,
          "name": "G1",
          "ticks": 157440,
          "time": 172.63164799999998,
          "velocity": 0.7559055118110236
        },
        {
          "duration": 0.7489038083333242,
          "durationTicks": 683,
          "midi": 43,
          "name": "G2",
          "ticks": 157440,
          "time": 172.63164799999998,
          "velocity": 0.7559055118110236
        },
        {
          "duration": 0.7489038083333242,
          "durationTicks": 683,
          "midi": 36,
          "name": "C2",
          "ticks": 158160,
          "time": 173.421122,
          "velocity": 0.7559055118110236
        },
        {
          "duration": 0.7489038083333242,
          "durationTicks": 683,
          "midi": 48,
          "name": "C3",
          "ticks": 158160,
          "time": 173.421122,
          "velocity": 0.7559055118110236
        },
        {
          "duration": 0.4989037083333585,
          "durationTicks": 455,
          "midi": 48,
          "name": "C3",
          "ticks": 158880,
          "time": 174.21059599999998,
          "velocity": 0.7559055118110236
        },
        {
          "duration": 0.26206150833331776,
          "durationTicks": 239,
          "midi": 45,
          "name": "A2",
          "ticks": 159360,
          "time": 174.736912,
          "velocity": 0.7559055118110236
        },
        {
          "duration": 0.26206150833331776,
          "durationTicks": 239,
          "midi": 52,
          "name": "E3",
          "ticks": 159360,
          "time": 174.736912,
          "velocity": 0.7559055118110236
        },
        {
          "duration": 0.9989039083333466,
          "durationTicks": 911,
          "midi": 38,
          "name": "D2",
          "ticks": 159840,
          "time": 175.263228,
          "velocity": 0.7559055118110236
        },
        {
          "duration": 0.9989039083333466,
          "durationTicks": 911,
          "midi": 50,
          "name": "D3",
          "ticks": 159840,
          "time": 175.263228,
          "velocity": 0.7559055118110236
        },
        {
          "duration": 0.1962720083333238,
          "durationTicks": 179,
          "midi": 34,
          "name": "A#1",
          "ticks": 161280,
          "time": 176.842176,
          "velocity": 0.7559055118110236
        },
        {
          "duration": 0.1962720083333238,
          "durationTicks": 179,
          "midi": 46,
          "name": "A#2",
          "ticks": 161280,
          "time": 176.842176,
          "velocity": 0.7559055118110236
        },
        {
          "duration": 0.31469310833333,
          "durationTicks": 287,
          "midi": 34,
          "name": "A#1",
          "ticks": 161640,
          "time": 177.236913,
          "velocity": 0.7559055118110236
        },
        {
          "duration": 0.31469310833333,
          "durationTicks": 287,
          "midi": 46,
          "name": "A#2",
          "ticks": 161640,
          "time": 177.236913,
          "velocity": 0.7559055118110236
        },
        {
          "duration": 0.7489038083333242,
          "durationTicks": 683,
          "midi": 36,
          "name": "C2",
          "ticks": 162000,
          "time": 177.63165,
          "velocity": 0.7559055118110236
        },
        {
          "duration": 0.7489038083333242,
          "durationTicks": 683,
          "midi": 48,
          "name": "C3",
          "ticks": 162000,
          "time": 177.63165,
          "velocity": 0.7559055118110236
        },
        {
          "duration": 0.4989037083333301,
          "durationTicks": 455,
          "midi": 33,
          "name": "A1",
          "ticks": 163200,
          "time": 178.94744,
          "velocity": 0.7559055118110236
        },
        {
          "duration": 0.4989037083333301,
          "durationTicks": 455,
          "midi": 45,
          "name": "A2",
          "ticks": 163200,
          "time": 178.94744,
          "velocity": 0.7559055118110236
        },
        {
          "duration": 0.2489036083333076,
          "durationTicks": 227,
          "midi": 33,
          "name": "A1",
          "ticks": 163680,
          "time": 179.473756,
          "velocity": 0.7559055118110236
        },
        {
          "duration": 0.2489036083333076,
          "durationTicks": 227,
          "midi": 45,
          "name": "A2",
          "ticks": 163680,
          "time": 179.473756,
          "velocity": 0.7559055118110236
        },
        {
          "duration": 0.7489038083333242,
          "durationTicks": 683,
          "midi": 38,
          "name": "D2",
          "ticks": 163920,
          "time": 179.73691399999998,
          "velocity": 0.7559055118110236
        },
        {
          "duration": 0.7489038083333242,
          "durationTicks": 683,
          "midi": 50,
          "name": "D3",
          "ticks": 163920,
          "time": 179.73691399999998,
          "velocity": 0.7559055118110236
        },
        {
          "duration": 0.7489038083333242,
          "durationTicks": 683,
          "midi": 31,
          "name": "G1",
          "ticks": 165120,
          "time": 181.052704,
          "velocity": 0.7559055118110236
        },
        {
          "duration": 0.7489038083333242,
          "durationTicks": 683,
          "midi": 43,
          "name": "G2",
          "ticks": 165120,
          "time": 181.052704,
          "velocity": 0.7559055118110236
        },
        {
          "duration": 0.7489038083333242,
          "durationTicks": 683,
          "midi": 36,
          "name": "C2",
          "ticks": 165840,
          "time": 181.842178,
          "velocity": 0.7559055118110236
        },
        {
          "duration": 0.7489038083333242,
          "durationTicks": 683,
          "midi": 48,
          "name": "C3",
          "ticks": 165840,
          "time": 181.842178,
          "velocity": 0.7559055118110236
        },
        {
          "duration": 0.4989037083333301,
          "durationTicks": 455,
          "midi": 48,
          "name": "C3",
          "ticks": 166560,
          "time": 182.631652,
          "velocity": 0.7559055118110236
        },
        {
          "duration": 0.26206150833331776,
          "durationTicks": 239,
          "midi": 45,
          "name": "A2",
          "ticks": 167040,
          "time": 183.15796799999998,
          "velocity": 0.7559055118110236
        },
        {
          "duration": 0.26206150833331776,
          "durationTicks": 239,
          "midi": 52,
          "name": "E3",
          "ticks": 167040,
          "time": 183.15796799999998,
          "velocity": 0.7559055118110236
        },
        {
          "duration": 0.9989039083333466,
          "durationTicks": 911,
          "midi": 38,
          "name": "D2",
          "ticks": 167520,
          "time": 183.684284,
          "velocity": 0.7559055118110236
        },
        {
          "duration": 0.9989039083333466,
          "durationTicks": 911,
          "midi": 50,
          "name": "D3",
          "ticks": 167520,
          "time": 183.684284,
          "velocity": 0.7559055118110236
        },
        {
          "duration": 0.1962720083333238,
          "durationTicks": 179,
          "midi": 34,
          "name": "A#1",
          "ticks": 168960,
          "time": 185.263232,
          "velocity": 0.7559055118110236
        },
        {
          "duration": 0.1962720083333238,
          "durationTicks": 179,
          "midi": 46,
          "name": "A#2",
          "ticks": 168960,
          "time": 185.263232,
          "velocity": 0.7559055118110236
        },
        {
          "duration": 0.31469310833333,
          "durationTicks": 287,
          "midi": 34,
          "name": "A#1",
          "ticks": 169320,
          "time": 185.657969,
          "velocity": 0.7559055118110236
        },
        {
          "duration": 0.31469310833333,
          "durationTicks": 287,
          "midi": 46,
          "name": "A#2",
          "ticks": 169320,
          "time": 185.657969,
          "velocity": 0.7559055118110236
        },
        {
          "duration": 0.7489038083333242,
          "durationTicks": 683,
          "midi": 36,
          "name": "C2",
          "ticks": 169680,
          "time": 186.052706,
          "velocity": 0.7559055118110236
        },
        {
          "duration": 0.7489038083333242,
          "durationTicks": 683,
          "midi": 48,
          "name": "C3",
          "ticks": 169680,
          "time": 186.052706,
          "velocity": 0.7559055118110236
        },
        {
          "duration": 0.1962720083333238,
          "durationTicks": 179,
          "midi": 33,
          "name": "A1",
          "ticks": 170880,
          "time": 187.368496,
          "velocity": 0.7559055118110236
        },
        {
          "duration": 0.1962720083333238,
          "durationTicks": 179,
          "midi": 45,
          "name": "A2",
          "ticks": 170880,
          "time": 187.368496,
          "velocity": 0.7559055118110236
        },
        {
          "duration": 0.31469310833333,
          "durationTicks": 287,
          "midi": 33,
          "name": "A1",
          "ticks": 171240,
          "time": 187.76323299999999,
          "velocity": 0.7559055118110236
        },
        {
          "duration": 0.31469310833333,
          "durationTicks": 287,
          "midi": 45,
          "name": "A2",
          "ticks": 171240,
          "time": 187.76323299999999,
          "velocity": 0.7559055118110236
        },
        {
          "duration": 0.7489038083333242,
          "durationTicks": 683,
          "midi": 38,
          "name": "D2",
          "ticks": 171600,
          "time": 188.15797,
          "velocity": 0.7559055118110236
        },
        {
          "duration": 0.7489038083333242,
          "durationTicks": 683,
          "midi": 50,
          "name": "D3",
          "ticks": 171600,
          "time": 188.15797,
          "velocity": 0.7559055118110236
        },
        {
          "duration": 0.7489038083333242,
          "durationTicks": 683,
          "midi": 31,
          "name": "G1",
          "ticks": 172800,
          "time": 189.47376,
          "velocity": 0.7559055118110236
        },
        {
          "duration": 0.7489038083333242,
          "durationTicks": 683,
          "midi": 43,
          "name": "G2",
          "ticks": 172800,
          "time": 189.47376,
          "velocity": 0.7559055118110236
        },
        {
          "duration": 0.7489038083333242,
          "durationTicks": 683,
          "midi": 36,
          "name": "C2",
          "ticks": 173520,
          "time": 190.26323399999998,
          "velocity": 0.7559055118110236
        },
        {
          "duration": 0.7489038083333242,
          "durationTicks": 683,
          "midi": 48,
          "name": "C3",
          "ticks": 173520,
          "time": 190.26323399999998,
          "velocity": 0.7559055118110236
        },
        {
          "duration": 0.4989037083333301,
          "durationTicks": 455,
          "midi": 48,
          "name": "C3",
          "ticks": 174240,
          "time": 191.052708,
          "velocity": 0.7559055118110236
        },
        {
          "duration": 0.26206150833331776,
          "durationTicks": 239,
          "midi": 45,
          "name": "A2",
          "ticks": 174720,
          "time": 191.579024,
          "velocity": 0.7559055118110236
        },
        {
          "duration": 0.26206150833331776,
          "durationTicks": 239,
          "midi": 52,
          "name": "E3",
          "ticks": 174720,
          "time": 191.579024,
          "velocity": 0.7559055118110236
        },
        {
          "duration": 0.9989039083333466,
          "durationTicks": 911,
          "midi": 38,
          "name": "D2",
          "ticks": 175200,
          "time": 192.10533999999998,
          "velocity": 0.7559055118110236
        },
        {
          "duration": 0.9989039083333466,
          "durationTicks": 911,
          "midi": 50,
          "name": "D3",
          "ticks": 175200,
          "time": 192.10533999999998,
          "velocity": 0.7559055118110236
        },
        {
          "duration": 0.1962720083332954,
          "durationTicks": 179,
          "midi": 34,
          "name": "A#1",
          "ticks": 176640,
          "time": 193.684288,
          "velocity": 0.7559055118110236
        },
        {
          "duration": 0.1962720083332954,
          "durationTicks": 179,
          "midi": 46,
          "name": "A#2",
          "ticks": 176640,
          "time": 193.684288,
          "velocity": 0.7559055118110236
        },
        {
          "duration": 0.31469310833333,
          "durationTicks": 287,
          "midi": 34,
          "name": "A#1",
          "ticks": 177000,
          "time": 194.079025,
          "velocity": 0.7559055118110236
        },
        {
          "duration": 0.31469310833333,
          "durationTicks": 287,
          "midi": 46,
          "name": "A#2",
          "ticks": 177000,
          "time": 194.079025,
          "velocity": 0.7559055118110236
        },
        {
          "duration": 0.7489038083333242,
          "durationTicks": 683,
          "midi": 36,
          "name": "C2",
          "ticks": 177360,
          "time": 194.473762,
          "velocity": 0.7559055118110236
        },
        {
          "duration": 0.7489038083333242,
          "durationTicks": 683,
          "midi": 48,
          "name": "C3",
          "ticks": 177360,
          "time": 194.473762,
          "velocity": 0.7559055118110236
        },
        {
          "duration": 0.4989037083333585,
          "durationTicks": 455,
          "midi": 33,
          "name": "A1",
          "ticks": 178560,
          "time": 195.789552,
          "velocity": 0.7559055118110236
        },
        {
          "duration": 0.4989037083333585,
          "durationTicks": 455,
          "midi": 45,
          "name": "A2",
          "ticks": 178560,
          "time": 195.789552,
          "velocity": 0.7559055118110236
        },
        {
          "duration": 0.24890360833333602,
          "durationTicks": 227,
          "midi": 33,
          "name": "A1",
          "ticks": 179040,
          "time": 196.315868,
          "velocity": 0.7559055118110236
        },
        {
          "duration": 0.24890360833333602,
          "durationTicks": 227,
          "midi": 45,
          "name": "A2",
          "ticks": 179040,
          "time": 196.315868,
          "velocity": 0.7559055118110236
        },
        {
          "duration": 0.7489038083333242,
          "durationTicks": 683,
          "midi": 38,
          "name": "D2",
          "ticks": 179280,
          "time": 196.579026,
          "velocity": 0.7559055118110236
        },
        {
          "duration": 0.7489038083333242,
          "durationTicks": 683,
          "midi": 50,
          "name": "D3",
          "ticks": 179280,
          "time": 196.579026,
          "velocity": 0.7559055118110236
        },
        {
          "duration": 0.7489038083333242,
          "durationTicks": 683,
          "midi": 31,
          "name": "G1",
          "ticks": 180480,
          "time": 197.894816,
          "velocity": 0.7559055118110236
        },
        {
          "duration": 0.7489038083333242,
          "durationTicks": 683,
          "midi": 43,
          "name": "G2",
          "ticks": 180480,
          "time": 197.894816,
          "velocity": 0.7559055118110236
        },
        {
          "duration": 0.7489038083333242,
          "durationTicks": 683,
          "midi": 36,
          "name": "C2",
          "ticks": 181200,
          "time": 198.68429,
          "velocity": 0.7559055118110236
        },
        {
          "duration": 0.7489038083333242,
          "durationTicks": 683,
          "midi": 48,
          "name": "C3",
          "ticks": 181200,
          "time": 198.68429,
          "velocity": 0.7559055118110236
        },
        {
          "duration": 0.4989037083333585,
          "durationTicks": 455,
          "midi": 48,
          "name": "C3",
          "ticks": 181920,
          "time": 199.473764,
          "velocity": 0.7559055118110236
        },
        {
          "duration": 0.26206150833331776,
          "durationTicks": 239,
          "midi": 45,
          "name": "A2",
          "ticks": 182400,
          "time": 200.00008,
          "velocity": 0.7559055118110236
        },
        {
          "duration": 0.26206150833331776,
          "durationTicks": 239,
          "midi": 52,
          "name": "E3",
          "ticks": 182400,
          "time": 200.00008,
          "velocity": 0.7559055118110236
        },
        {
          "duration": 0.9989039083333182,
          "durationTicks": 911,
          "midi": 38,
          "name": "D2",
          "ticks": 182880,
          "time": 200.526396,
          "velocity": 0.7559055118110236
        },
        {
          "duration": 0.9989039083333182,
          "durationTicks": 911,
          "midi": 50,
          "name": "D3",
          "ticks": 182880,
          "time": 200.526396,
          "velocity": 0.7559055118110236
        }
      ],
      "endOfTrackTicks": 183792
    }
  ]
}
